<svg xmlns="http://www.w3.org/2000/svg" xmlns:xlink="http://www.w3.org/1999/xlink" viewBox="0 0 53.02 53.02"><defs><style>.cls-1{fill:url(#linear-gradient);}.cls-2{fill:url(#linear-gradient-2);}.cls-3{fill:url(#linear-gradient-3);}.cls-4{fill:url(#linear-gradient-4);}.cls-5{fill:url(#linear-gradient-5);}.cls-6{fill:url(#linear-gradient-8);}.cls-7{fill:url(#linear-gradient-9);}</style><linearGradient id="linear-gradient" x1="48.6" y1="53.03" x2="48.6" y2="0.8" gradientUnits="userSpaceOnUse"><stop offset="0" stop-color="#ff931e"/><stop offset="1" stop-color="#ffc311"/></linearGradient><linearGradient id="linear-gradient-2" x1="42.13" y1="53.03" x2="42.13" y2="0.8" xlink:href="#linear-gradient"/><linearGradient id="linear-gradient-3" x1="26.51" y1="53.02" x2="26.51" y2="0.79" xlink:href="#linear-gradient"/><linearGradient id="linear-gradient-4" x1="10.89" y1="53.03" x2="10.89" y2="0.8" xlink:href="#linear-gradient"/><linearGradient id="linear-gradient-5" x1="4.42" y1="53.03" x2="4.42" y2="0.8" xlink:href="#linear-gradient"/><linearGradient id="linear-gradient-8" x1="26.51" y1="53.03" x2="26.51" y2="0.8" xlink:href="#linear-gradient"/><linearGradient id="linear-gradient-9" x1="41.87" y1="53.03" x2="41.87" y2="0.8" xlink:href="#linear-gradient"/></defs><g id="Layer_2" data-name="Layer 2"><g id="v2"><path class="cls-1" d="M44.18,26.51A1.42,1.42,0,0,1,45.6,25.1h6a1.41,1.41,0,1,1,0,2.82h-6A1.42,1.42,0,0,1,44.18,26.51Z"/><path class="cls-2" d="M39,39a1.42,1.42,0,0,1,2,0l4.25,4.25a1.41,1.41,0,0,1-2,2L39,41A1.42,1.42,0,0,1,39,39Z"/><path class="cls-3" d="M26.51,44.18a1.42,1.42,0,0,1,1.41,1.42v6a1.41,1.41,0,0,1-2.82,0v-6A1.42,1.42,0,0,1,26.51,44.18Z"/><path class="cls-4" d="M14,39a1.4,1.4,0,0,1,0,2L9.76,45.26a1.41,1.41,0,0,1-2-2L12,39A1.42,1.42,0,0,1,14,39Z"/><path class="cls-5" d="M8.84,26.51a1.42,1.42,0,0,1-1.42,1.41h-6a1.41,1.41,0,0,1,0-2.82h6A1.42,1.42,0,0,1,8.84,26.51Z"/><path class="cls-4" d="M14,14a1.4,1.4,0,0,1-2,0L7.76,9.76a1.41,1.41,0,0,1,2-2L14,12A1.4,1.4,0,0,1,14,14Z"/><path class="cls-3" d="M26.51,8.84A1.42,1.42,0,0,1,25.1,7.42v-6a1.41,1.41,0,0,1,2.82,0v6A1.42,1.42,0,0,1,26.51,8.84Z"/><path class="cls-6" d="M39.76,26.51a13.23,13.23,0,1,1-3.83-9.33L26.41,28.82,20.88,23.3a1.41,1.41,0,0,0-2,2L26.62,33,37.73,19.45A13.16,13.16,0,0,1,39.76,26.51Z"/><path class="cls-7" d="M47.49,7.52,37.73,19.45a13.61,13.61,0,0,0-1.8-2.27L45.3,5.73a1.41,1.41,0,1,1,2.19,1.79Z"/></g></g></svg>