<svg xmlns="http://www.w3.org/2000/svg" xmlns:xlink="http://www.w3.org/1999/xlink" viewBox="0 0 190.65 53.02"><defs><style>.cls-1{fill:#282828;}.cls-2{fill:url(#linear-gradient);}.cls-3{fill:url(#linear-gradient-2);}.cls-4{fill:url(#linear-gradient-3);}.cls-5{fill:url(#linear-gradient-4);}.cls-6{fill:url(#linear-gradient-5);}.cls-7{fill:url(#linear-gradient-8);}.cls-8{fill:url(#linear-gradient-9);}</style><linearGradient id="linear-gradient" x1="186.23" y1="53.03" x2="186.23" y2="0.8" gradientUnits="userSpaceOnUse"><stop offset="0" stop-color="#ff931e"/><stop offset="1" stop-color="#ffc311"/></linearGradient><linearGradient id="linear-gradient-2" x1="179.76" y1="53.03" x2="179.76" y2="0.8" xlink:href="#linear-gradient"/><linearGradient id="linear-gradient-3" x1="164.14" y1="53.02" x2="164.14" y2="0.79" xlink:href="#linear-gradient"/><linearGradient id="linear-gradient-4" x1="148.52" y1="53.03" x2="148.52" y2="0.8" xlink:href="#linear-gradient"/><linearGradient id="linear-gradient-5" x1="142.05" y1="53.03" x2="142.05" y2="0.8" xlink:href="#linear-gradient"/><linearGradient id="linear-gradient-8" x1="164.14" y1="53.03" x2="164.14" y2="0.8" xlink:href="#linear-gradient"/><linearGradient id="linear-gradient-9" x1="179.49" y1="53.03" x2="179.49" y2="0.8" xlink:href="#linear-gradient"/></defs><g id="Layer_2" data-name="Layer 2"><g id="v2"><path class="cls-1" d="M27.53,15.38,22.44,38.6H17.37L13.76,23.51,10.18,38.6H5.1L0,15.38H5L8,31.52l3.65-16.14h4.25l3.66,16.14,3-16.14Z"/><path class="cls-1" d="M44.93,31.53H34a4.22,4.22,0,0,0,1.34,2.56A3.94,3.94,0,0,0,38.1,35a5.55,5.55,0,0,0,2.31-.47,4.67,4.67,0,0,0,1.81-1.41l2.31,2.67A7.08,7.08,0,0,1,41.88,38a9,9,0,0,1-4.09.89,9.1,9.1,0,0,1-4.61-1.12,7.67,7.67,0,0,1-3-3,8.71,8.71,0,0,1-1-4.22v-.61a10.51,10.51,0,0,1,1-4.61,7.47,7.47,0,0,1,2.81-3.17A8,8,0,0,1,37.26,21a7.93,7.93,0,0,1,4.16,1A6.64,6.64,0,0,1,44,25a10.58,10.58,0,0,1,.89,4.49Zm-4.72-3.6a3.31,3.31,0,0,0-.77-2.22,2.86,2.86,0,0,0-2.21-.81,2.66,2.66,0,0,0-2.15.91,4.94,4.94,0,0,0-1,2.5h6.14Z"/><path class="cls-1" d="M61.68,36.72a6.21,6.21,0,0,0,.52,1.61v.27H57.37a5,5,0,0,1-.46-1.55,5.48,5.48,0,0,1-4.32,1.87,6.48,6.48,0,0,1-3-.67,5.28,5.28,0,0,1-2.11-1.85,4.74,4.74,0,0,1-.78-2.66,4.91,4.91,0,0,1,2-4.21,10.1,10.1,0,0,1,6-1.47h2v-1a2.66,2.66,0,0,0-.61-1.85,2.35,2.35,0,0,0-1.82-.67,2.61,2.61,0,0,0-1.71.52,1.84,1.84,0,0,0-.62,1.48H47.12A4.67,4.67,0,0,1,48,23.75a6.18,6.18,0,0,1,2.6-2A9.64,9.64,0,0,1,54.52,21a9,9,0,0,1,3.62.69,5.49,5.49,0,0,1,2.47,2.06,6,6,0,0,1,.89,3.35v7.22A12.73,12.73,0,0,0,61.68,36.72Zm-6.16-1.91a3,3,0,0,0,1.17-1.11V30.82H54.85a3.67,3.67,0,0,0-2.49.72,2.42,2.42,0,0,0-.83,1.89,1.69,1.69,0,0,0,.59,1.33,2.25,2.25,0,0,0,1.55.51A3.6,3.6,0,0,0,55.52,34.81Z"/><path class="cls-1" d="M73.74,34.85v3.62a8.34,8.34,0,0,1-2.84.45c-3.38,0-5.08-1.72-5.08-5.17v-8.9H63.38V21.34h2.44V17.07h4.82v4.27h2.9v3.51h-2.9v8.34a1.89,1.89,0,0,0,.4,1.4A2,2,0,0,0,72.4,35,6.59,6.59,0,0,0,73.74,34.85Z"/><path class="cls-1" d="M89.47,22.63Q91,24.25,91,27.79V38.6H86.16V27.75a3,3,0,0,0-.66-2.2,2.83,2.83,0,0,0-2-.63,3,3,0,0,0-2.77,1.4V38.6H75.89V14.1h4.82v9.09a5.85,5.85,0,0,1,2-1.61A5.79,5.79,0,0,1,85.25,21,5.5,5.5,0,0,1,89.47,22.63Z"/><path class="cls-1" d="M109.53,31.53H98.62A4.17,4.17,0,0,0,100,34.09a3.92,3.92,0,0,0,2.74.95,5.55,5.55,0,0,0,2.31-.47,4.74,4.74,0,0,0,1.81-1.41l2.31,2.67a7.11,7.11,0,0,1-2.66,2.2,8.93,8.93,0,0,1-4.09.89,9.06,9.06,0,0,1-4.6-1.12,7.67,7.67,0,0,1-3-3,8.71,8.71,0,0,1-1-4.22v-.61a10.51,10.51,0,0,1,1-4.61,7.4,7.4,0,0,1,2.81-3.17A8,8,0,0,1,101.86,21a8,8,0,0,1,4.16,1A6.56,6.56,0,0,1,108.63,25a10.43,10.43,0,0,1,.9,4.49Zm-4.72-3.6a3.32,3.32,0,0,0-.78-2.22,2.84,2.84,0,0,0-2.21-.81,2.64,2.64,0,0,0-2.14.91,4.77,4.77,0,0,0-1,2.5h6.14Z"/><path class="cls-1" d="M121.33,21.08a3.67,3.67,0,0,1,.67.14l-.06,4.65a13.56,13.56,0,0,0-1.71-.13c-1.72,0-2.84.57-3.37,1.71V38.6h-4.81V21.34h4.53l.14,2.09a4.84,4.84,0,0,1,1.62-1.78,4,4,0,0,1,2.21-.63A5.54,5.54,0,0,1,121.33,21.08Z"/><path class="cls-2" d="M181.81,26.51a1.41,1.41,0,0,1,1.42-1.41h6a1.41,1.41,0,1,1,0,2.82h-6A1.41,1.41,0,0,1,181.81,26.51Z"/><path class="cls-3" d="M176.63,39a1.42,1.42,0,0,1,2,0l4.25,4.25a1.4,1.4,0,0,1,0,2,1.42,1.42,0,0,1-2,0L176.63,41A1.42,1.42,0,0,1,176.63,39Z"/><path class="cls-4" d="M164.14,44.18a1.42,1.42,0,0,1,1.41,1.42v6a1.42,1.42,0,0,1-2.83,0v-6A1.43,1.43,0,0,1,164.14,44.18Z"/><path class="cls-5" d="M151.64,39a1.42,1.42,0,0,1,0,2l-4.25,4.25a1.41,1.41,0,0,1-2-2L149.64,39A1.42,1.42,0,0,1,151.64,39Z"/><path class="cls-6" d="M146.46,26.51a1.41,1.41,0,0,1-1.41,1.41h-6a1.41,1.41,0,1,1,0-2.82h6A1.41,1.41,0,0,1,146.46,26.51Z"/><path class="cls-5" d="M151.64,14a1.4,1.4,0,0,1-2,0l-4.25-4.25a1.41,1.41,0,0,1,2-2L151.64,12A1.42,1.42,0,0,1,151.64,14Z"/><path class="cls-4" d="M164.14,8.84a1.43,1.43,0,0,1-1.42-1.42v-6a1.42,1.42,0,0,1,2.83,0v6A1.42,1.42,0,0,1,164.14,8.84Z"/><path class="cls-7" d="M177.39,26.51a13.25,13.25,0,1,1-3.84-9.33L164,28.82l-5.52-5.52a1.41,1.41,0,0,0-2,2L164.24,33l11.12-13.58A13.24,13.24,0,0,1,177.39,26.51Z"/><path class="cls-8" d="M185.11,7.52l-9.75,11.93a13.67,13.67,0,0,0-1.81-2.27l9.38-11.45a1.41,1.41,0,1,1,2.18,1.79Z"/></g></g></svg>