<svg xmlns="http://www.w3.org/2000/svg" viewBox="0 0 188.5 188.5"><defs><style>.cls-1{fill:none;stroke:#000;stroke-miterlimit:10;}</style></defs><g id="Layer_2" data-name="Layer 2"><g id="UI"><g id="notFound"><rect class="cls-1" x="0.5" y="0.5" width="187.5" height="187.5" rx="16.92"/><path d="M83.13,99.69A38,38,0,0,1,94,84.87,68.76,68.76,0,0,0,105,73.56a18.16,18.16,0,0,0,3.56-10.93q0-15.19-14-15.2a14.69,14.69,0,0,0-10.41,4Q80,55.31,79.9,63.2H51.47q.18-13,5.82-21.68a33.7,33.7,0,0,1,15.29-12.9,55.15,55.15,0,0,1,22-4.17q13.34,0,22.8,4.27A31.87,31.87,0,0,1,132,41.24Q137,49.51,137,61.32a31.72,31.72,0,0,1-2.67,13.28,40.86,40.86,0,0,1-6.85,10.46q-4.19,4.59-11.59,11.54l-1.78,1.59a25.7,25.7,0,0,0-7.13,9.62,37.54,37.54,0,0,0-2.16,12.62H80Q80.08,107.67,83.13,99.69Zm18,36.5a14.21,14.21,0,0,1,5.53,5.34,15.64,15.64,0,0,1,0,15.2,14.23,14.23,0,0,1-5.53,5.35,18.28,18.28,0,0,1-16.51,0,14.19,14.19,0,0,1-5.54-5.35,15.64,15.64,0,0,1,0-15.2,14.17,14.17,0,0,1,5.54-5.34,18.28,18.28,0,0,1,16.51,0Z"/></g></g></g></svg>