<svg xmlns="http://www.w3.org/2000/svg" viewBox="0 0 187.5 187.5"><defs><style>.cls-1{fill:none;}.cls-2{fill:#828282;}</style></defs><g id="Layer_2" data-name="Layer 2"><g id="Icons"><g id="favoriteNegative"><rect class="cls-1" width="187.5" height="187.5"/><path class="cls-2" d="M139.44,169.06a5,5,0,0,1-2.85-.89L93.75,138.36,50.91,168.17a5,5,0,0,1-7.64-5.56l15.11-50L16.8,81.14a5,5,0,0,1,2.92-9l52.17-1.06L89,21.8a5,5,0,0,1,9.44,0l17.14,49.29,52.17,1.06a5,5,0,0,1,2.92,9l-41.58,31.52,15.11,50a5,5,0,0,1-4.79,6.45ZM93.75,127.27a5.06,5.06,0,0,1,2.86.89l33.88,23.58-12-39.51a5,5,0,0,1,1.76-5.43l32.9-24.94L111.92,81a5,5,0,0,1-4.62-3.36l-13.55-39-13.55,39A5,5,0,0,1,75.58,81l-41.28.84L67.2,106.8A5,5,0,0,1,69,112.23L57,151.74l33.88-23.58A5.06,5.06,0,0,1,93.75,127.27Z"/></g></g></g></svg>