<svg xmlns="http://www.w3.org/2000/svg" xmlns:xlink="http://www.w3.org/1999/xlink" viewBox="0 0 187.5 187.5"><defs><style>.cls-1{fill:none;}.cls-2{fill:url(#linear-gradient);}.cls-3{fill:url(#linear-gradient-2);}</style><linearGradient id="linear-gradient" x1="93.75" y1="126.64" x2="93.75" y2="0.46" gradientUnits="userSpaceOnUse"><stop offset="0" stop-color="#333"/><stop offset="1" stop-color="#4d4d4d"/></linearGradient><linearGradient id="linear-gradient-2" x1="93.75" y1="171.98" x2="93.75" y2="110.1" gradientUnits="userSpaceOnUse"><stop offset="0" stop-color="#29cefc"/><stop offset="1" stop-color="#7fe2fd"/></linearGradient></defs><g id="Layer_2" data-name="Layer 2"><g id="Icons"><g id="Snø"><g id="Frame"><rect class="cls-1" width="187.5" height="187.5"/></g><path class="cls-2" d="M142.78,44.7a49.24,49.24,0,0,0-98.06,0,49.26,49.26,0,0,0-30.3,83.87A4.78,4.78,0,0,0,17.78,130a4.75,4.75,0,0,0,3.36-8.1A39.76,39.76,0,1,1,89,93.75a4.75,4.75,0,0,0,9.5,0,49.32,49.32,0,0,0-44.24-49,39.75,39.75,0,0,1,79.24,4.5V54h4.75a39.76,39.76,0,0,1,28.11,67.88,4.75,4.75,0,0,0,6.72,6.71,49.26,49.26,0,0,0-30.3-83.88Z"/><path class="cls-3" d="M124,145.36H63.47a4.88,4.88,0,1,1,0-9.75H124a4.88,4.88,0,1,1,0,9.75Z"/><path class="cls-3" d="M78.6,171.58a4.89,4.89,0,0,1-4.22-7.32l30.29-52.44a4.88,4.88,0,0,1,8.45,4.88L82.83,169.14A4.89,4.89,0,0,1,78.6,171.58Z"/><path class="cls-3" d="M108.89,171.58a4.86,4.86,0,0,1-4.23-2.44L74.39,116.69a4.88,4.88,0,0,1,8.45-4.87l30.27,52.45a4.87,4.87,0,0,1-4.22,7.31Z"/></g></g></g></svg>