<svg xmlns="http://www.w3.org/2000/svg" xmlns:xlink="http://www.w3.org/1999/xlink" viewBox="0 0 187.5 187.5"><defs><style>.cls-1{fill:none;}.cls-2{fill:url(#linear-gradient);}</style><linearGradient id="linear-gradient" x1="93.75" y1="146.53" x2="93.75" y2="38.51" gradientUnits="userSpaceOnUse"><stop offset="0" stop-color="#333"/><stop offset="1" stop-color="#4d4d4d"/></linearGradient></defs><g id="Layer_2" data-name="Layer 2"><g id="Icons"><g id="Overskyet"><g id="Frame"><rect class="cls-1" width="187.5" height="187.5"/></g><path class="cls-2" d="M135.73,76.39a42.15,42.15,0,0,0-83.95,0A42.17,42.17,0,0,0,25.83,148.2a4.07,4.07,0,0,0,5.75-5.75,34,34,0,1,1,58.11-24.07,4.06,4.06,0,0,0,8.12,0A42.21,42.21,0,0,0,59.94,76.43a34,34,0,0,1,67.84,3.85v4.06h4.07a34,34,0,0,1,24.07,58.11,4.07,4.07,0,0,0,5.75,5.75,42.17,42.17,0,0,0-25.94-71.81Z"/></g></g></g></svg>