<svg xmlns="http://www.w3.org/2000/svg" xmlns:xlink="http://www.w3.org/1999/xlink" viewBox="0 0 187.5 129.97"><defs><style>.cls-1{fill:url(#linear-gradient);}</style><linearGradient id="linear-gradient" x1="93.75" y1="126.64" x2="93.75" y2="0.46" gradientUnits="userSpaceOnUse"><stop offset="0" stop-color="#333"/><stop offset="1" stop-color="#4d4d4d"/></linearGradient></defs><g id="Layer_2" data-name="Layer 2"><g id="Layer_1-2" data-name="Layer 1"><path class="cls-1" d="M142.78,44.7a49.24,49.24,0,0,0-98.06,0,49.26,49.26,0,0,0-30.3,83.87A4.78,4.78,0,0,0,17.78,130a4.75,4.75,0,0,0,3.36-8.1A39.76,39.76,0,1,1,89,93.75a4.75,4.75,0,0,0,9.5,0,49.32,49.32,0,0,0-44.24-49,39.75,39.75,0,0,1,79.24,4.5V54h4.75a39.76,39.76,0,0,1,28.11,67.88,4.75,4.75,0,0,0,6.72,6.71,49.26,49.26,0,0,0-30.3-83.88Z"/></g></g></svg>