<svg xmlns="http://www.w3.org/2000/svg" xmlns:xlink="http://www.w3.org/1999/xlink" viewBox="0 0 187.5 187.5"><defs><style>.cls-1{fill:none;}.cls-2{fill:url(#linear-gradient);}.cls-3{fill:url(#linear-gradient-2);}.cls-4{fill:url(#linear-gradient-3);}.cls-5{fill:url(#linear-gradient-4);}.cls-6{fill:url(#linear-gradient-6);}.cls-7{fill:url(#linear-gradient-7);}</style><linearGradient id="linear-gradient" x1="65.74" y1="117.15" x2="65.74" y2="43.29" gradientUnits="userSpaceOnUse"><stop offset="0" stop-color="#ff931e"/><stop offset="1" stop-color="#ffc311"/></linearGradient><linearGradient id="linear-gradient-2" x1="105.54" y1="148.44" x2="105.54" y2="17.63" xlink:href="#linear-gradient"/><linearGradient id="linear-gradient-3" x1="27.28" y1="148.44" x2="27.28" y2="17.63" xlink:href="#linear-gradient"/><linearGradient id="linear-gradient-4" x1="11.07" y1="148.44" x2="11.07" y2="17.63" xlink:href="#linear-gradient"/><linearGradient id="linear-gradient-6" x1="66.41" y1="148.44" x2="66.41" y2="17.63" xlink:href="#linear-gradient"/><linearGradient id="linear-gradient-7" x1="109.37" y1="169.1" x2="109.38" y2="63.95" gradientUnits="userSpaceOnUse"><stop offset="0" stop-color="#333"/><stop offset="1" stop-color="#4d4d4d"/></linearGradient></defs><g id="Layer_2" data-name="Layer 2"><g id="Icons"><g id="Lett_Overskyet" data-name="Lett Overskyet"><g id="Frame"><rect class="cls-1" width="187.5" height="187.5"/></g><path class="cls-2" d="M100.93,64.45a38.74,38.74,0,1,0-57.88,48.48,38.19,38.19,0,0,0,7,4.22,33.41,33.41,0,0,1,11.5-6.81A28.73,28.73,0,1,1,91.33,67.76a27.82,27.82,0,0,1,3,7.36A32.55,32.55,0,0,1,103.81,72,38.14,38.14,0,0,0,100.93,64.45Z"/><path class="cls-3" d="M97.71,50.73a3.55,3.55,0,0,1,0-5l10.64-10.65a3.54,3.54,0,0,1,5,5L102.72,50.73A3.55,3.55,0,0,1,97.71,50.73Z"/><path class="cls-4" d="M35.1,113.34a3.52,3.52,0,0,1,0,5L24.46,129a3.54,3.54,0,1,1-5-5l10.64-10.64A3.53,3.53,0,0,1,35.1,113.34Z"/><path class="cls-5" d="M22.14,82a3.54,3.54,0,0,1-3.55,3.54h-15a3.54,3.54,0,0,1,0-7.08H18.59A3.55,3.55,0,0,1,22.14,82Z"/><path class="cls-4" d="M35.1,50.73a3.55,3.55,0,0,1-5,0L19.45,40.08a3.54,3.54,0,0,1,5-5L35.1,45.72A3.53,3.53,0,0,1,35.1,50.73Z"/><path class="cls-6" d="M66.41,37.76a3.55,3.55,0,0,1-3.55-3.54v-15a3.55,3.55,0,1,1,7.09,0v15A3.55,3.55,0,0,1,66.41,37.76Z"/><path class="cls-7" d="M187.5,141.7a40.81,40.81,0,0,1-12,29,4,4,0,0,1-5.6-5.59,33.12,33.12,0,0,0-23.42-56.55h-4v-4a33.07,33.07,0,0,0-9.82-23.51,35.62,35.62,0,0,0-2.91-2.57,32.92,32.92,0,0,0-26-6.57,32.55,32.55,0,0,0-9.52,3.17,33.23,33.23,0,0,0-17.82,25.74,41,41,0,0,1,18.89,6.91,41.77,41.77,0,0,1,5.64,4.62,41,41,0,0,1,12.33,29.31,4,4,0,0,1-7.91,0,33.13,33.13,0,1,0-56.55,23.42,4,4,0,1,1-5.6,5.59,41,41,0,0,1-.22-57.78,41.85,41.85,0,0,1,8.23-6.48,40.83,40.83,0,0,1,17.24-5.62A41.1,41.1,0,0,1,91.33,67.76a39.51,39.51,0,0,1,9.6-3.31,39.91,39.91,0,0,1,8.45-.88,41.1,41.1,0,0,1,40.86,37.26A41.08,41.08,0,0,1,187.5,141.7Z"/></g></g></g></svg>