<svg xmlns="http://www.w3.org/2000/svg" xmlns:xlink="http://www.w3.org/1999/xlink" viewBox="0 0 187.5 187.5"><defs><style>.cls-1{fill:none;}.cls-2{fill:url(#linear-gradient);}.cls-3{fill:url(#linear-gradient-2);}</style><linearGradient id="linear-gradient" x1="83.43" y1="77.39" x2="187.5" y2="77.39" gradientUnits="userSpaceOnUse"><stop offset="0" stop-color="#333"/><stop offset="1" stop-color="#4d4d4d"/></linearGradient><linearGradient id="linear-gradient-2" x1="78.12" y1="153.47" x2="78.13" y2="48.33" xlink:href="#linear-gradient"/></defs><g id="Layer_2" data-name="Layer 2"><g id="Icons"><g id="Måne_Overskyet" data-name="Måne Overskyet"><g id="Frame"><rect class="cls-1" width="187.5" height="187.5"/></g><path class="cls-2" d="M185.75,78.2a4.44,4.44,0,0,0-4.16-.67A37.11,37.11,0,0,1,134.53,30a4.46,4.46,0,0,0-.62-4.16A4.41,4.41,0,0,0,130.1,24,54.34,54.34,0,0,0,83.43,56.28,32.64,32.64,0,0,1,92,58.91a45.56,45.56,0,0,1,32.3-25.21,46.84,46.84,0,0,0-.83,8.79,46,46,0,0,0,54.28,45.22A45.66,45.66,0,0,1,148,121.43a32.39,32.39,0,0,1,.33,4.64,32.91,32.91,0,0,1-.33,4.67,52.82,52.82,0,0,0,8.21-3.07A54.47,54.47,0,0,0,187.49,82,4.45,4.45,0,0,0,185.75,78.2Z"/><path class="cls-3" d="M156.25,126.07c0,.54,0,1.07,0,1.6a40.83,40.83,0,0,1-12,27.42,4,4,0,0,1-5.6-5.59,33.11,33.11,0,0,0,9.71-23.43,32.39,32.39,0,0,0-.33-4.64,33.17,33.17,0,0,0-32.8-28.49h-4V89a33.07,33.07,0,0,0-9.82-23.51A33.23,33.23,0,0,0,92,58.91a33.09,33.09,0,0,0-13.88-3.06A33.27,33.27,0,0,0,63,59.5,33.2,33.2,0,0,0,45.22,85.24a40.8,40.8,0,0,1,18.89,6.9,41.84,41.84,0,0,1,5.64,4.63,41,41,0,0,1,12.33,29.3,4,4,0,0,1-7.91,0A33.13,33.13,0,1,0,17.62,149.5a4,4,0,0,1-5.6,5.59A41.06,41.06,0,0,1,37.27,85.2,41.13,41.13,0,0,1,60.08,52.13,41,41,0,0,1,87.35,49,41.06,41.06,0,0,1,119,85.2a41.11,41.11,0,0,1,36.47,32.88A40.54,40.54,0,0,1,156.25,126.07Z"/></g></g></g></svg>