<svg xmlns="http://www.w3.org/2000/svg" xmlns:xlink="http://www.w3.org/1999/xlink" viewBox="0 0 132.1 132.14"><defs><style>.cls-1{fill:url(#linear-gradient);}</style><linearGradient id="linear-gradient" y1="66.07" x2="132.1" y2="66.07" gradientUnits="userSpaceOnUse"><stop offset="0" stop-color="#333"/><stop offset="1" stop-color="#4d4d4d"/></linearGradient></defs><g id="Layer_2" data-name="Layer 2"><g id="Layer_1-2" data-name="Layer 1"><path class="cls-1" d="M66.12,132.14A66.12,66.12,0,0,1,62.37,0a5,5,0,0,1,5,6.68,45.81,45.81,0,0,0,58.1,58.71,5,5,0,0,1,6.63,5A66.24,66.24,0,0,1,66.12,132.14ZM55.83,10.84a56.13,56.13,0,1,0,65.36,66,55.57,55.57,0,0,1-10.72,1A55.84,55.84,0,0,1,55.83,10.84Z"/></g></g></svg>