<svg xmlns="http://www.w3.org/2000/svg" xmlns:xlink="http://www.w3.org/1999/xlink" viewBox="0 0 187.5 156.25"><defs><style>.cls-1{fill:url(#linear-gradient);}.cls-2{fill:url(#linear-gradient-2);}.cls-3{fill:url(#linear-gradient-3);}.cls-4{fill:url(#linear-gradient-4);}.cls-5{fill:url(#linear-gradient-6);}.cls-6{fill:url(#linear-gradient-7);}</style><linearGradient id="linear-gradient" x1="65.74" y1="101.53" x2="65.74" y2="27.67" gradientUnits="userSpaceOnUse"><stop offset="0" stop-color="#ff931e"/><stop offset="1" stop-color="#ffc311"/></linearGradient><linearGradient id="linear-gradient-2" x1="105.54" y1="132.82" x2="105.54" y2="2.01" xlink:href="#linear-gradient"/><linearGradient id="linear-gradient-3" x1="27.28" y1="132.82" x2="27.28" y2="2.01" xlink:href="#linear-gradient"/><linearGradient id="linear-gradient-4" x1="11.07" y1="132.82" x2="11.07" y2="2.01" xlink:href="#linear-gradient"/><linearGradient id="linear-gradient-6" x1="66.41" y1="132.81" x2="66.41" y2="2" xlink:href="#linear-gradient"/><linearGradient id="linear-gradient-7" x1="109.37" y1="153.47" x2="109.38" y2="48.33" gradientUnits="userSpaceOnUse"><stop offset="0" stop-color="#333"/><stop offset="1" stop-color="#4d4d4d"/></linearGradient></defs><g id="Layer_2" data-name="Layer 2"><g id="Layer_1-2" data-name="Layer 1"><path class="cls-1" d="M100.93,48.82a38.73,38.73,0,1,0-50.88,52.71,33.41,33.41,0,0,1,11.5-6.81A28.73,28.73,0,1,1,91.33,52.13a27.89,27.89,0,0,1,3,7.37,32.26,32.26,0,0,1,9.52-3.17A38,38,0,0,0,100.93,48.82Z"/><path class="cls-2" d="M97.71,35.1a3.55,3.55,0,0,1,0-5l10.64-10.64a3.54,3.54,0,0,1,5,5L102.72,35.1A3.53,3.53,0,0,1,97.71,35.1Z"/><path class="cls-3" d="M35.1,97.71a3.53,3.53,0,0,1,0,5L24.46,113.36a3.54,3.54,0,0,1-5-5L30.09,97.71A3.55,3.55,0,0,1,35.1,97.71Z"/><path class="cls-4" d="M22.14,66.41A3.55,3.55,0,0,1,18.59,70h-15a3.55,3.55,0,0,1,0-7.09H18.59A3.55,3.55,0,0,1,22.14,66.41Z"/><path class="cls-3" d="M35.1,35.1a3.53,3.53,0,0,1-5,0L19.45,24.46a3.54,3.54,0,1,1,5-5L35.1,30.09A3.53,3.53,0,0,1,35.1,35.1Z"/><path class="cls-5" d="M66.41,22.14a3.55,3.55,0,0,1-3.55-3.55v-15a3.55,3.55,0,0,1,7.09,0V18.59A3.55,3.55,0,0,1,66.41,22.14Z"/><path class="cls-6" d="M187.5,126.07a40.81,40.81,0,0,1-12,29,4,4,0,0,1-5.6-5.59,33.13,33.13,0,0,0-23.42-56.56h-4V89a33.07,33.07,0,0,0-9.82-23.51,33.83,33.83,0,0,0-2.91-2.57,33,33,0,0,0-20.39-7A33.27,33.27,0,0,0,94.29,59.5,33.2,33.2,0,0,0,76.47,85.24a40.8,40.8,0,0,1,18.89,6.9A41.84,41.84,0,0,1,101,96.77a41,41,0,0,1,12.33,29.3,4,4,0,0,1-7.91,0A33.13,33.13,0,1,0,48.87,149.5a4,4,0,0,1-5.6,5.59A41.06,41.06,0,0,1,68.52,85.2,41.13,41.13,0,0,1,91.33,52.13a40.94,40.94,0,0,1,18-4.19A41.11,41.11,0,0,1,150.24,85.2,41.1,41.1,0,0,1,187.5,126.07Z"/></g></g></svg>