<svg xmlns="http://www.w3.org/2000/svg" xmlns:xlink="http://www.w3.org/1999/xlink" viewBox="0 0 187.5 187.5"><defs><style>.cls-1{fill:none;}.cls-2{fill:url(#linear-gradient);}.cls-3{fill:url(#linear-gradient-2);}.cls-4{fill:url(#linear-gradient-3);}.cls-5{fill:url(#linear-gradient-4);}.cls-6{fill:url(#linear-gradient-5);}.cls-7{fill:url(#linear-gradient-6);}</style><linearGradient id="linear-gradient" x1="93.75" y1="137.26" x2="93.75" y2="11.09" gradientUnits="userSpaceOnUse"><stop offset="0" stop-color="#333"/><stop offset="1" stop-color="#4d4d4d"/></linearGradient><linearGradient id="linear-gradient-2" x1="44.06" y1="175.12" x2="44.06" y2="123.89" gradientUnits="userSpaceOnUse"><stop offset="0" stop-color="#21a4c9"/><stop offset="1" stop-color="#4db6d4"/></linearGradient><linearGradient id="linear-gradient-3" x1="67.5" y1="175.12" x2="67.5" y2="123.89" xlink:href="#linear-gradient-2"/><linearGradient id="linear-gradient-4" x1="90.94" y1="175.12" x2="90.94" y2="123.89" xlink:href="#linear-gradient-2"/><linearGradient id="linear-gradient-5" x1="114.38" y1="175.12" x2="114.38" y2="123.89" xlink:href="#linear-gradient-2"/><linearGradient id="linear-gradient-6" x1="137.81" y1="175.12" x2="137.81" y2="123.89" xlink:href="#linear-gradient-2"/></defs><g id="Layer_2" data-name="Layer 2"><g id="Icons"><g id="Regn"><g id="Frame"><rect class="cls-1" width="187.5" height="187.5"/></g><path class="cls-2" d="M142.78,55.33a49.24,49.24,0,0,0-98.06,0,49.25,49.25,0,0,0-30.3,83.86,4.75,4.75,0,1,0,6.72-6.71A39.76,39.76,0,1,1,89,104.37a4.75,4.75,0,0,0,9.5,0,49.33,49.33,0,0,0-44.24-49,39.75,39.75,0,0,1,79.24,4.5v4.74h4.75a39.76,39.76,0,0,1,28.11,67.88,4.75,4.75,0,0,0,6.72,6.71,49.26,49.26,0,0,0-30.3-83.87Z"/><path class="cls-3" d="M36.25,176.88a5.13,5.13,0,0,1-1.58-.26,5,5,0,0,1-3.16-6.33l15.62-46.87a5,5,0,0,1,9.49,3.16L41,173.46A5,5,0,0,1,36.25,176.88Z"/><path class="cls-4" d="M59.69,176.88a5.13,5.13,0,0,1-1.58-.26A5,5,0,0,1,55,170.29l15.62-46.87a5,5,0,0,1,9.49,3.16L64.43,173.46A5,5,0,0,1,59.69,176.88Z"/><path class="cls-5" d="M83.13,176.88a5.08,5.08,0,0,1-1.58-.26,5,5,0,0,1-3.17-6.33L94,123.42a5,5,0,0,1,9.48,3.16L87.87,173.46A5,5,0,0,1,83.13,176.88Z"/><path class="cls-6" d="M106.56,176.88a5.17,5.17,0,0,1-1.58-.26,5,5,0,0,1-3.16-6.33l15.63-46.87a5,5,0,0,1,9.48,3.16l-15.62,46.88A5,5,0,0,1,106.56,176.88Z"/><path class="cls-7" d="M130,176.88a5.13,5.13,0,0,1-1.58-.26,5,5,0,0,1-3.16-6.33l15.62-46.87a5,5,0,0,1,9.49,3.16l-15.63,46.88A5,5,0,0,1,130,176.88Z"/></g></g></g></svg>