<svg xmlns="http://www.w3.org/2000/svg" xmlns:xlink="http://www.w3.org/1999/xlink" viewBox="0 0 187.5 166.25"><defs><style>.cls-1{fill:url(#linear-gradient);}.cls-2{fill:url(#linear-gradient-2);}.cls-3{fill:url(#linear-gradient-3);}.cls-4{fill:url(#linear-gradient-4);}.cls-5{fill:url(#linear-gradient-5);}.cls-6{fill:url(#linear-gradient-6);}</style><linearGradient id="linear-gradient" x1="93.75" y1="126.64" x2="93.75" y2="0.46" gradientUnits="userSpaceOnUse"><stop offset="0" stop-color="#333"/><stop offset="1" stop-color="#4d4d4d"/></linearGradient><linearGradient id="linear-gradient-2" x1="44.06" y1="164.5" x2="44.06" y2="113.26" gradientUnits="userSpaceOnUse"><stop offset="0" stop-color="#21a4c9"/><stop offset="1" stop-color="#4db6d4"/></linearGradient><linearGradient id="linear-gradient-3" x1="67.5" y1="164.5" x2="67.5" y2="113.26" xlink:href="#linear-gradient-2"/><linearGradient id="linear-gradient-4" x1="90.94" y1="164.5" x2="90.94" y2="113.26" xlink:href="#linear-gradient-2"/><linearGradient id="linear-gradient-5" x1="114.38" y1="164.5" x2="114.38" y2="113.26" xlink:href="#linear-gradient-2"/><linearGradient id="linear-gradient-6" x1="137.81" y1="164.5" x2="137.81" y2="113.26" xlink:href="#linear-gradient-2"/></defs><g id="Layer_2" data-name="Layer 2"><g id="Layer_1-2" data-name="Layer 1"><path class="cls-1" d="M142.78,44.7a49.24,49.24,0,0,0-98.06,0,49.26,49.26,0,0,0-30.3,83.87A4.78,4.78,0,0,0,17.78,130a4.75,4.75,0,0,0,3.36-8.1A39.76,39.76,0,1,1,89,93.75a4.75,4.75,0,0,0,9.5,0,49.32,49.32,0,0,0-44.24-49,39.75,39.75,0,0,1,79.24,4.5V54h4.75a39.76,39.76,0,0,1,28.11,67.88,4.75,4.75,0,0,0,6.72,6.71,49.26,49.26,0,0,0-30.3-83.88Z"/><path class="cls-2" d="M36.25,166.25a4.84,4.84,0,0,1-1.58-.26,5,5,0,0,1-3.16-6.32l15.62-46.88A5,5,0,1,1,56.62,116L41,162.83A5,5,0,0,1,36.25,166.25Z"/><path class="cls-3" d="M59.69,166.25a4.84,4.84,0,0,1-1.58-.26A5,5,0,0,1,55,159.67l15.62-46.88A5,5,0,0,1,80.06,116L64.43,162.83A5,5,0,0,1,59.69,166.25Z"/><path class="cls-4" d="M83.13,166.25a4.8,4.8,0,0,1-1.58-.26,5,5,0,0,1-3.17-6.32L94,112.79a5,5,0,1,1,9.48,3.17L87.87,162.83A5,5,0,0,1,83.13,166.25Z"/><path class="cls-5" d="M106.56,166.25A4.89,4.89,0,0,1,105,166a5,5,0,0,1-3.16-6.32l15.63-46.88a5,5,0,1,1,9.48,3.17l-15.62,46.87A5,5,0,0,1,106.56,166.25Z"/><path class="cls-6" d="M130,166.25a4.84,4.84,0,0,1-1.58-.26,5,5,0,0,1-3.16-6.32l15.62-46.88a5,5,0,1,1,9.49,3.17l-15.63,46.87A5,5,0,0,1,130,166.25Z"/></g></g></svg>