<svg xmlns="http://www.w3.org/2000/svg" xmlns:xlink="http://www.w3.org/1999/xlink" viewBox="0 0 187.5 187.5"><defs><style>.cls-1{fill:none;}.cls-2{fill:url(#linear-gradient);}.cls-3{fill:url(#linear-gradient-2);}.cls-4{fill:url(#linear-gradient-3);}.cls-5{fill:url(#linear-gradient-5);}.cls-6{fill:url(#linear-gradient-6);}.cls-7{fill:url(#linear-gradient-7);}</style><linearGradient id="linear-gradient" x1="93.75" y1="148.44" x2="93.75" y2="39.06" gradientUnits="userSpaceOnUse"><stop offset="0" stop-color="#ff931e"/><stop offset="1" stop-color="#ffc311"/></linearGradient><linearGradient id="linear-gradient-2" x1="148.99" y1="187.51" x2="148.99" y2="2.83" xlink:href="#linear-gradient"/><linearGradient id="linear-gradient-3" x1="171.87" y1="187.51" x2="171.88" y2="2.83" xlink:href="#linear-gradient"/><linearGradient id="linear-gradient-5" x1="93.75" y1="187.5" x2="93.75" y2="2.83" xlink:href="#linear-gradient"/><linearGradient id="linear-gradient-6" x1="38.51" y1="187.51" x2="38.51" y2="2.83" xlink:href="#linear-gradient"/><linearGradient id="linear-gradient-7" x1="15.62" y1="187.51" x2="15.63" y2="2.83" xlink:href="#linear-gradient"/></defs><g id="Layer_2" data-name="Layer 2"><g id="Icons"><g id="Sol_copy" data-name="Sol copy"><g id="Frame"><rect class="cls-1" width="187.5" height="187.5"/></g><path class="cls-2" d="M93.75,49.06A44.69,44.69,0,1,1,49.06,93.75,44.74,44.74,0,0,1,93.75,49.06m0-10a54.69,54.69,0,1,0,54.69,54.69A54.7,54.7,0,0,0,93.75,39.06Z"/><path class="cls-3" d="M137.94,49.56a5,5,0,0,1,0-7.08l15-15A5,5,0,0,1,160,34.53l-15,15A5,5,0,0,1,137.94,49.56Z"/><path class="cls-4" d="M156.25,93.75a5,5,0,0,1,5-5H182.5a5,5,0,0,1,0,10H161.25A5,5,0,0,1,156.25,93.75Z"/><path class="cls-3" d="M137.94,137.94a5,5,0,0,1,7.08,0l15,15A5,5,0,0,1,153,160l-15-15A5,5,0,0,1,137.94,137.94Z"/><path class="cls-5" d="M93.75,156.25a5,5,0,0,1,5,5V182.5a5,5,0,0,1-10,0V161.25A5,5,0,0,1,93.75,156.25Z"/><path class="cls-6" d="M49.56,137.94a5,5,0,0,1,0,7.08l-15,15A5,5,0,0,1,27.46,153l15-15A5,5,0,0,1,49.56,137.94Z"/><path class="cls-7" d="M31.25,93.75a5,5,0,0,1-5,5H5a5,5,0,0,1,0-10H26.25A5,5,0,0,1,31.25,93.75Z"/><path class="cls-6" d="M49.56,49.56a5,5,0,0,1-7.08,0l-15-15a5,5,0,0,1,7.07-7.07l15,15A5,5,0,0,1,49.56,49.56Z"/><path class="cls-5" d="M93.75,31.25a5,5,0,0,1-5-5V5a5,5,0,0,1,10,0V26.25A5,5,0,0,1,93.75,31.25Z"/></g></g></g></svg>