<svg xmlns="http://www.w3.org/2000/svg" xmlns:xlink="http://www.w3.org/1999/xlink" viewBox="0 0 187.5 187.5"><defs><style>.cls-1{fill:none;}.cls-2{fill:url(#linear-gradient);}.cls-3{fill:url(#linear-gradient-2);}</style><linearGradient id="linear-gradient" x1="93.75" y1="126.64" x2="93.75" y2="0.46" gradientUnits="userSpaceOnUse"><stop offset="0" stop-color="#333"/><stop offset="1" stop-color="#4d4d4d"/></linearGradient><linearGradient id="linear-gradient-2" x1="93.75" y1="-1.74" x2="93.75" y2="187.23" gradientUnits="userSpaceOnUse"><stop offset="0" stop-color="#ff931e"/><stop offset="1" stop-color="#ffc311"/></linearGradient></defs><g id="Layer_2" data-name="Layer 2"><g id="Icons"><g id="Lyn"><g id="Frame"><rect class="cls-1" width="187.5" height="187.5"/></g><path class="cls-2" d="M142.78,44.7a49.24,49.24,0,0,0-98.06,0,49.26,49.26,0,0,0-30.3,83.87A4.78,4.78,0,0,0,17.78,130a4.75,4.75,0,0,0,3.36-8.1A39.76,39.76,0,1,1,89,93.75a4.75,4.75,0,0,0,9.5,0,49.32,49.32,0,0,0-44.24-49,39.75,39.75,0,0,1,79.24,4.5V54h4.75a39.76,39.76,0,0,1,28.11,67.88,4.75,4.75,0,0,0,6.72,6.71,49.26,49.26,0,0,0-30.3-83.88Z"/><path class="cls-3" d="M85.94,187.5a5,5,0,0,1-5-5V140.62H62.5A5,5,0,0,1,57.76,134l7.81-23.43a5,5,0,1,1,9.49,3.16l-5.62,16.85h16.5a5,5,0,0,1,5,5V166.9l24.34-34.09H101.56a5,5,0,0,1-4.74-6.58L102,110.61a5,5,0,1,1,9.48,3.16l-3,9H125a5,5,0,0,1,4.07,7.91L90,185.41A5,5,0,0,1,85.94,187.5Z"/></g></g></g></svg>