<svg xmlns="http://www.w3.org/2000/svg" xmlns:xlink="http://www.w3.org/1999/xlink" viewBox="0 0 187.5 187.5"><defs><style>.cls-1,.cls-3{fill:none;}.cls-2{fill:url(#linear-gradient);}.cls-3{stroke:#464646;stroke-linecap:round;stroke-miterlimit:10;stroke-width:10px;}.cls-4{fill:url(#linear-gradient-2);}.cls-5{fill:url(#linear-gradient-3);}.cls-6{fill:url(#linear-gradient-4);}</style><linearGradient id="linear-gradient" x1="93.75" y1="112.93" x2="93.75" y2="23.25" gradientUnits="userSpaceOnUse"><stop offset="0" stop-color="#ff931e"/><stop offset="1" stop-color="#ffc311"/></linearGradient><linearGradient id="linear-gradient-2" x1="146.23" y1="183.99" x2="146.23" y2="4.62" xlink:href="#linear-gradient"/><linearGradient id="linear-gradient-3" x1="41.27" y1="183.99" x2="41.27" y2="4.62" xlink:href="#linear-gradient"/><linearGradient id="linear-gradient-4" x1="93.75" y1="183.99" x2="93.75" y2="4.62" xlink:href="#linear-gradient"/></defs><g id="Layer_2" data-name="Layer 2"><g id="IconsNew"><g id="clearSky"><g id="twilight"><rect class="cls-1" width="187.5" height="187.5"/><path class="cls-2" d="M93.75,41.88A51.93,51.93,0,0,0,41.88,93.75h10a41.87,41.87,0,0,1,83.74,0h10A51.93,51.93,0,0,0,93.75,41.88Z"/><polyline class="cls-3" points="179.69 93.75 145.62 93.75 135.62 93.75 51.88 93.75 41.88 93.75 8.22 93.75"/><path class="cls-4" d="M137.94,54.56A5,5,0,0,1,134.41,46L151,29.45a5,5,0,0,1,7.07,7.07L141.48,53.09A5,5,0,0,1,137.94,54.56Z"/><path class="cls-5" d="M49.56,54.56A5,5,0,0,1,46,53.09L29.45,36.52a5,5,0,1,1,7.07-7.07L53.09,46a5,5,0,0,1-3.53,8.54Z"/><path class="cls-6" d="M93.75,36.25a5,5,0,0,1-5-5V7.81a5,5,0,0,1,10,0V31.25A5,5,0,0,1,93.75,36.25Z"/></g></g></g></g></svg>