<svg xmlns="http://www.w3.org/2000/svg" xmlns:xlink="http://www.w3.org/1999/xlink" viewBox="0 0 187.5 187.5"><defs><style>.cls-1{fill:url(#linear-gradient);}.cls-2{fill:url(#linear-gradient-2);}.cls-3{fill:url(#linear-gradient-3);}.cls-4{fill:url(#linear-gradient-6);}.cls-5{fill:url(#linear-gradient-7);}.cls-6{fill:none;}</style><linearGradient id="linear-gradient" x1="93.75" y1="183.99" x2="93.75" y2="4.62" gradientUnits="userSpaceOnUse"><stop offset="0" stop-color="#ff931e"/><stop offset="1" stop-color="#ffc311"/></linearGradient><linearGradient id="linear-gradient-2" x1="146.23" y1="183.99" x2="146.23" y2="4.62" xlink:href="#linear-gradient"/><linearGradient id="linear-gradient-3" x1="167.97" y1="183.99" x2="167.97" y2="4.62" xlink:href="#linear-gradient"/><linearGradient id="linear-gradient-6" x1="41.27" y1="183.99" x2="41.27" y2="4.62" xlink:href="#linear-gradient"/><linearGradient id="linear-gradient-7" x1="19.53" y1="183.99" x2="19.53" y2="4.62" xlink:href="#linear-gradient"/></defs><g id="Layer_2" data-name="Layer 2"><g id="IconsNew"><g id="clearSky"><g id="day"><path class="cls-1" d="M93.75,145.63a51.88,51.88,0,1,1,51.88-51.88A51.94,51.94,0,0,1,93.75,145.63Zm0-93.75a41.88,41.88,0,1,0,41.88,41.87A41.91,41.91,0,0,0,93.75,51.88Z"/><path class="cls-2" d="M137.94,54.56A5,5,0,0,1,134.41,46L151,29.45a5,5,0,0,1,7.07,7.07L141.48,53.09A5,5,0,0,1,137.94,54.56Z"/><path class="cls-3" d="M179.69,98.75H156.25a5,5,0,0,1,0-10h23.44a5,5,0,0,1,0,10Z"/><path class="cls-2" d="M154.52,159.52a5,5,0,0,1-3.54-1.47l-16.57-16.57a5,5,0,0,1,7.07-7.07L158.05,151a5,5,0,0,1-3.53,8.54Z"/><path class="cls-1" d="M93.75,184.69a5,5,0,0,1-5-5V156.25a5,5,0,0,1,10,0v23.44A5,5,0,0,1,93.75,184.69Z"/><path class="cls-4" d="M33,159.52A5,5,0,0,1,29.45,151L46,134.41a5,5,0,1,1,7.07,7.07L36.52,158.05A5,5,0,0,1,33,159.52Z"/><path class="cls-5" d="M31.25,98.75H7.81a5,5,0,0,1,0-10H31.25a5,5,0,0,1,0,10Z"/><path class="cls-4" d="M49.56,54.56A5,5,0,0,1,46,53.09L29.45,36.52a5,5,0,1,1,7.07-7.07L53.09,46a5,5,0,0,1-3.53,8.54Z"/><path class="cls-1" d="M93.75,36.25a5,5,0,0,1-5-5V7.81a5,5,0,0,1,10,0V31.25A5,5,0,0,1,93.75,36.25Z"/><rect class="cls-6" width="187.5" height="187.5"/></g></g></g></g></svg>