<svg xmlns="http://www.w3.org/2000/svg" xmlns:xlink="http://www.w3.org/1999/xlink" viewBox="0 0 187.5 187.5"><defs><style>.cls-1{fill:none;}.cls-2{fill:url(#linear-gradient);}.cls-3{fill:url(#linear-gradient-2);}</style><linearGradient id="linear-gradient" x1="132.82" y1="104.66" x2="132.82" y2="2.81" gradientUnits="userSpaceOnUse"><stop offset="0" stop-color="#333"/><stop offset="1" stop-color="#4d4d4d"/></linearGradient><linearGradient id="linear-gradient-2" x1="82.03" y1="138.57" x2="82.03" y2="48.67" xlink:href="#linear-gradient"/></defs><g id="Layer_2" data-name="Layer 2"><g id="IconsNew"><g id="fari"><g id="night"><rect class="cls-1" width="187.5" height="187.5"/><path class="cls-2" d="M146.84,104.66,144.15,95a41.89,41.89,0,0,0,29.42-30.35,43.19,43.19,0,0,1-50.75-50.74A42.13,42.13,0,0,0,91,54l-10-.15a52.13,52.13,0,0,1,48.62-51,5,5,0,0,1,4.93,6.91A32.77,32.77,0,0,0,132,22.38,33.15,33.15,0,0,0,165.12,55.5,32.77,32.77,0,0,0,177.77,53a5,5,0,0,1,6.91,4.93A51.91,51.91,0,0,1,146.84,104.66Z"/><path class="cls-3" d="M118.92,78.19c-.91,0-1.82,0-2.73.11a34.51,34.51,0,0,0-68.32,0c-.91-.07-1.82-.11-2.73-.11a34.51,34.51,0,0,0-24.41,58.92A5,5,0,0,0,27.8,130,24.52,24.52,0,0,1,45.14,88.19a24.41,24.41,0,0,1,24.5,23.74,5,5,0,0,0,10-.31,34.72,34.72,0,0,0-22-31.09,24.51,24.51,0,0,1,48.88,2.66c0,.25,0,.49,0,.77,0,0,0,.1,0,.15h0a5,5,0,0,0,5,5h0a4.94,4.94,0,0,0,.87-.08l.26-.06.3-.07a25.16,25.16,0,0,1,6-.71A24.52,24.52,0,0,1,136.25,130a5,5,0,0,0,7.08,7.07,34.52,34.52,0,0,0-24.41-58.92Z"/></g></g></g></g></svg>