<svg xmlns="http://www.w3.org/2000/svg" xmlns:xlink="http://www.w3.org/1999/xlink" viewBox="0 0 187.5 187.5"><defs><style>.cls-1{fill:none;}.cls-2{fill:url(#linear-gradient);}.cls-3{fill:url(#linear-gradient-2);}.cls-4{fill:url(#linear-gradient-3);}.cls-5{fill:url(#linear-gradient-4);}.cls-6{fill:url(#linear-gradient-5);}.cls-7{fill:url(#linear-gradient-6);}</style><linearGradient id="linear-gradient" x1="72.81" y1="98.36" x2="72.81" y2="5.37" gradientUnits="userSpaceOnUse"><stop offset="0" stop-color="#ff931e"/><stop offset="1" stop-color="#ffc311"/></linearGradient><linearGradient id="linear-gradient-2" x1="123.32" y1="98.36" x2="123.32" y2="5.37" xlink:href="#linear-gradient"/><linearGradient id="linear-gradient-3" x1="14.2" y1="98.36" x2="14.2" y2="5.37" xlink:href="#linear-gradient"/><linearGradient id="linear-gradient-4" x1="32.93" y1="98.36" x2="32.93" y2="5.37" xlink:href="#linear-gradient"/><linearGradient id="linear-gradient-5" x1="78.12" y1="98.36" x2="78.13" y2="5.37" xlink:href="#linear-gradient"/><linearGradient id="linear-gradient-6" x1="105.47" y1="137.81" x2="105.47" y2="47.91" gradientUnits="userSpaceOnUse"><stop offset="0" stop-color="#333"/><stop offset="1" stop-color="#4d4d4d"/></linearGradient></defs><g id="Layer_2" data-name="Layer 2"><g id="IconsNew"><g id="fari"><g id="day"><rect class="cls-1" width="187.5" height="187.5"/><path class="cls-2" d="M39.53,97.91a43,43,0,0,1-4.76-19.79,43.35,43.35,0,0,1,76.07-28.44l-7.54,6.56A33.37,33.37,0,0,0,48.43,93.35Z"/><path class="cls-3" d="M118.8,42.45A5,5,0,0,1,115.27,41a5,5,0,0,1,0-7.07l9-9a5,5,0,0,1,7.07,7.07l-9,9A5,5,0,0,1,118.8,42.45Z"/><path class="cls-4" d="M20.6,83.12H7.81a5,5,0,0,1,0-10H20.6a5,5,0,0,1,0,10Z"/><path class="cls-5" d="M37.45,42.45A5,5,0,0,1,33.91,41l-9-9a5,5,0,0,1,7.07-7.07l9,9A5,5,0,0,1,41,41,5,5,0,0,1,37.45,42.45Z"/><path class="cls-6" d="M78.13,25.6a5,5,0,0,1-5-5V7.81a5,5,0,0,1,10,0V20.6A5,5,0,0,1,78.13,25.6Z"/><path class="cls-7" d="M142.36,77.42c-.91,0-1.82,0-2.73.12a34.51,34.51,0,0,0-68.32,0c-.91-.07-1.82-.12-2.73-.12a34.51,34.51,0,0,0-24.41,58.92,5,5,0,0,0,7.07,0,5,5,0,0,0,0-7.07A24.52,24.52,0,0,1,68.58,87.42a24.46,24.46,0,0,1,24.5,23.75,5,5,0,0,0,10-.31,34.72,34.72,0,0,0-22-31.09A24.51,24.51,0,0,1,130,82.42c0,.24,0,.48,0,.78v.15h0a5,5,0,0,0,5,5,5,5,0,0,0,1.68-.31,24.85,24.85,0,0,1,5.72-.67,24.52,24.52,0,0,1,17.33,41.86,5,5,0,1,0,7.08,7.06,34.51,34.51,0,0,0-24.41-58.92Z"/></g></g></g></g></svg>