<svg xmlns="http://www.w3.org/2000/svg" xmlns:xlink="http://www.w3.org/1999/xlink" viewBox="0 0 187.5 187.5"><defs><style>.cls-1{fill:none;}.cls-2{fill:url(#linear-gradient);}.cls-3{fill:url(#linear-gradient-2);}</style><linearGradient id="linear-gradient" x1="93.75" y1="138.07" x2="93.75" y2="34.06" gradientUnits="userSpaceOnUse"><stop offset="0" stop-color="#333"/><stop offset="1" stop-color="#4d4d4d"/></linearGradient><linearGradient id="linear-gradient-2" x1="93.75" y1="183.95" x2="93.75" y2="134.99" gradientUnits="userSpaceOnUse"><stop offset="0" stop-color="#666"/><stop offset="1" stop-color="#999"/></linearGradient></defs><g id="Layer_2" data-name="Layer 2"><g id="IconsNew"><g id="fog"><rect class="cls-1" width="187.5" height="187.5"/><path class="cls-2" d="M137.15,68.79c-1.33,0-2.66.08-4,.21a39.72,39.72,0,0,0-78.86,0c-1.31-.13-2.64-.21-4-.21a39.73,39.73,0,0,0-28.1,67.81,5,5,0,0,0,7.08-7.07,29.72,29.72,0,0,1,21-50.74,29.63,29.63,0,0,1,29.7,28.78,5,5,0,1,0,10-.3,40,40,0,0,0-25.91-36,29.72,29.72,0,0,1,59.33,2.54c0,.3,0,.6,0,.93v.15h0a5.47,5.47,0,0,0,.1,1,5,5,0,0,0,4.9,4,5.28,5.28,0,0,0,.9-.09l.25-.06.32-.07a30.12,30.12,0,0,1,7.23-.87,29.72,29.72,0,0,1,21,50.74,5,5,0,1,0,7.08,7.07,39.73,39.73,0,0,0-28.1-67.81Z"/><path class="cls-3" d="M109.38,143.87a13.48,13.48,0,0,1-9.59-4,8.55,8.55,0,0,0-12.08,0,13.56,13.56,0,0,1-19.17,0,8.55,8.55,0,0,0-12.08,0,2.5,2.5,0,0,1-3.54-3.54,13.57,13.57,0,0,1,19.16,0,8.53,8.53,0,0,0,12.09,0,13.57,13.57,0,0,1,19.16,0,8.53,8.53,0,0,0,12.09,0,13.57,13.57,0,0,1,19.16,0A2.5,2.5,0,0,1,131,139.9a8.55,8.55,0,0,0-12.08,0A13.47,13.47,0,0,1,109.38,143.87Z"/><path class="cls-3" d="M109.38,179.69a13.55,13.55,0,0,1-9.59-4,8.53,8.53,0,0,0-12.08,0,13.58,13.58,0,0,1-19.17,0,8.53,8.53,0,0,0-12.08,0,2.5,2.5,0,0,1-3.54-3.54,13.57,13.57,0,0,1,19.16,0,8.56,8.56,0,0,0,12.09,0,13.57,13.57,0,0,1,19.16,0,8.56,8.56,0,0,0,12.09,0,13.57,13.57,0,0,1,19.16,0,2.5,2.5,0,0,1-3.54,3.54,8.53,8.53,0,0,0-12.08,0A13.54,13.54,0,0,1,109.38,179.69Z"/><path class="cls-3" d="M140.62,162.73a13.47,13.47,0,0,1-9.58-4,8.55,8.55,0,0,0-12.08,0,13.58,13.58,0,0,1-19.17,0,8.55,8.55,0,0,0-12.08,0,13.58,13.58,0,0,1-19.17,0,8.55,8.55,0,0,0-12.08,0,13.56,13.56,0,0,1-19.17,0,8.55,8.55,0,0,0-12.08,0,2.5,2.5,0,1,1-3.54-3.54,13.57,13.57,0,0,1,19.16,0,8.53,8.53,0,0,0,12.09,0,13.57,13.57,0,0,1,19.16,0,8.55,8.55,0,0,0,12.09,0,13.57,13.57,0,0,1,19.16,0,8.55,8.55,0,0,0,12.09,0,13.57,13.57,0,0,1,19.16,0,8.53,8.53,0,0,0,12.09,0,13.57,13.57,0,0,1,19.16,0,2.5,2.5,0,1,1-3.54,3.54,8.55,8.55,0,0,0-12.08,0A13.48,13.48,0,0,1,140.62,162.73Z"/></g></g></g></svg>