<svg xmlns="http://www.w3.org/2000/svg" xmlns:xlink="http://www.w3.org/1999/xlink" viewBox="0 0 187.5 187.5"><defs><style>.cls-1{fill:none;}.cls-2{fill:url(#linear-gradient);}.cls-3{fill:url(#linear-gradient-2);}.cls-4{fill:url(#linear-gradient-3);}.cls-5{fill:url(#linear-gradient-4);}.cls-6{fill:url(#linear-gradient-5);}.cls-7{fill:url(#linear-gradient-6);}.cls-8{fill:url(#linear-gradient-7);}.cls-9{fill:url(#linear-gradient-8);}.cls-10{fill:url(#linear-gradient-9);}.cls-11{fill:url(#linear-gradient-10);}</style><linearGradient id="linear-gradient" x1="140.88" y1="85.76" x2="140.88" y2="2.81" gradientUnits="userSpaceOnUse"><stop offset="0" stop-color="#333"/><stop offset="1" stop-color="#4d4d4d"/></linearGradient><linearGradient id="linear-gradient-2" x1="93.75" y1="138.07" x2="93.75" y2="34.06" xlink:href="#linear-gradient"/><linearGradient id="linear-gradient-3" x1="48.6" y1="171.87" x2="57.19" y2="171.87" gradientUnits="userSpaceOnUse"><stop offset="0" stop-color="#21a4c9"/><stop offset="1" stop-color="#4db6d4"/></linearGradient><linearGradient id="linear-gradient-4" x1="32.98" y1="164.06" x2="41.56" y2="164.06" xlink:href="#linear-gradient-3"/><linearGradient id="linear-gradient-5" x1="79.85" y1="171.87" x2="88.44" y2="171.87" xlink:href="#linear-gradient-3"/><linearGradient id="linear-gradient-6" x1="64.23" y1="164.06" x2="72.81" y2="164.06" xlink:href="#linear-gradient-3"/><linearGradient id="linear-gradient-7" x1="111.1" y1="171.87" x2="119.69" y2="171.87" xlink:href="#linear-gradient-3"/><linearGradient id="linear-gradient-8" x1="95.48" y1="164.06" x2="104.06" y2="164.06" xlink:href="#linear-gradient-3"/><linearGradient id="linear-gradient-9" x1="142.35" y1="171.87" x2="150.94" y2="171.87" xlink:href="#linear-gradient-3"/><linearGradient id="linear-gradient-10" x1="126.73" y1="164.06" x2="135.31" y2="164.06" xlink:href="#linear-gradient-3"/></defs><g id="Layer_2" data-name="Layer 2"><g id="IconsNew"><g id="rain"><g id="heavy"><g id="heavyRainShowers"><g id="heavyRainShowersNight"><rect class="cls-1" width="187.5" height="187.5"/><path class="cls-2" d="M161.09,85.76l-4.66-8.85A34.27,34.27,0,0,0,173.3,56.19a36.78,36.78,0,0,1-42.58-36.26,37.15,37.15,0,0,1,.47-5.89,33.85,33.85,0,0,0-24.13,26.89l-9.86-1.7A43.86,43.86,0,0,1,137.81,2.82a5,5,0,0,1,4.93,6.91,26.44,26.44,0,0,0-2,10.2,26.75,26.75,0,0,0,36.92,24.71,5,5,0,0,1,6.91,4.93A44.31,44.31,0,0,1,161.09,85.76Z"/><path class="cls-3" d="M137.15,68.79c-1.33,0-2.66.08-4,.21a39.72,39.72,0,0,0-78.86,0c-1.31-.13-2.64-.21-4-.21a39.73,39.73,0,0,0-28.1,67.81,5,5,0,0,0,7.08-7.06,29.73,29.73,0,0,1,21-50.75,29.63,29.63,0,0,1,29.7,28.79,5,5,0,0,0,10-.31,40,40,0,0,0-25.91-36,29.72,29.72,0,0,1,59.33,2.54c0,.28,0,.55,0,.83v.26h0a5.67,5.67,0,0,0,.1,1,5,5,0,0,0,4.9,4h0a4.14,4.14,0,0,0,.87-.09l.26-.05.32-.07a29.73,29.73,0,0,1,28.25,49.87,5,5,0,1,0,7.08,7.06,39.73,39.73,0,0,0-28.1-67.81Z"/><path class="cls-4" d="M51.1,182.19a2.2,2.2,0,0,1-.56-.07,2.49,2.49,0,0,1-1.87-3l3.58-15.63a2.5,2.5,0,0,1,4.87,1.12l-3.58,15.63A2.52,2.52,0,0,1,51.1,182.19Z"/><path class="cls-5" d="M35.48,174.38a2.68,2.68,0,0,1-.56-.07,2.49,2.49,0,0,1-1.88-3l3.59-15.63a2.5,2.5,0,1,1,4.87,1.12l-3.59,15.62A2.5,2.5,0,0,1,35.48,174.38Z"/><path class="cls-6" d="M82.35,182.19a2.2,2.2,0,0,1-.56-.07,2.49,2.49,0,0,1-1.87-3L83.5,163.5a2.5,2.5,0,0,1,4.87,1.12l-3.58,15.63A2.52,2.52,0,0,1,82.35,182.19Z"/><path class="cls-7" d="M66.73,174.38a2.68,2.68,0,0,1-.56-.07,2.49,2.49,0,0,1-1.88-3l3.59-15.63a2.5,2.5,0,1,1,4.87,1.12l-3.59,15.62A2.5,2.5,0,0,1,66.73,174.38Z"/><path class="cls-8" d="M113.6,182.19a2.2,2.2,0,0,1-.56-.07,2.49,2.49,0,0,1-1.87-3l3.58-15.63a2.5,2.5,0,0,1,4.87,1.12L116,180.25A2.52,2.52,0,0,1,113.6,182.19Z"/><path class="cls-9" d="M98,174.38a2.68,2.68,0,0,1-.56-.07,2.49,2.49,0,0,1-1.88-3l3.59-15.63a2.5,2.5,0,1,1,4.87,1.12l-3.59,15.62A2.5,2.5,0,0,1,98,174.38Z"/><path class="cls-10" d="M144.85,182.19a2.2,2.2,0,0,1-.56-.07,2.49,2.49,0,0,1-1.87-3L146,163.5a2.5,2.5,0,0,1,4.87,1.12l-3.58,15.63A2.52,2.52,0,0,1,144.85,182.19Z"/><path class="cls-11" d="M129.23,174.38a2.68,2.68,0,0,1-.56-.07,2.49,2.49,0,0,1-1.88-3l3.59-15.63a2.5,2.5,0,1,1,4.87,1.12l-3.59,15.62A2.5,2.5,0,0,1,129.23,174.38Z"/></g></g></g></g></g></g></svg>