<svg xmlns="http://www.w3.org/2000/svg" xmlns:xlink="http://www.w3.org/1999/xlink" viewBox="0 0 187.5 187.5"><defs><style>.cls-1{fill:none;}.cls-2{fill:url(#linear-gradient);}.cls-3{fill:url(#linear-gradient-2);}.cls-4{fill:url(#linear-gradient-3);}.cls-5{fill:url(#linear-gradient-4);}.cls-6{fill:url(#linear-gradient-5);}.cls-7{fill:url(#linear-gradient-6);}.cls-8{fill:url(#linear-gradient-7);}.cls-9{fill:url(#linear-gradient-8);}.cls-10{fill:url(#linear-gradient-9);}.cls-11{fill:url(#linear-gradient-10);}.cls-12{fill:url(#linear-gradient-11);}.cls-13{fill:url(#linear-gradient-12);}.cls-14{fill:url(#linear-gradient-13);}.cls-15{fill:url(#linear-gradient-14);}.cls-16{fill:url(#linear-gradient-15);}.cls-17{fill:url(#linear-gradient-16);}.cls-18{fill:url(#linear-gradient-17);}.cls-19{fill:url(#linear-gradient-18);}.cls-20{fill:url(#linear-gradient-19);}.cls-21{fill:url(#linear-gradient-20);}.cls-22{fill:url(#linear-gradient-21);}</style><linearGradient id="linear-gradient" x1="56.9" y1="76.58" x2="56.9" y2="6.97" gradientUnits="userSpaceOnUse"><stop offset="0" stop-color="#ff931e"/><stop offset="1" stop-color="#ffc311"/></linearGradient><linearGradient id="linear-gradient-2" x1="97.65" y1="76.58" x2="97.65" y2="6.97" xlink:href="#linear-gradient"/><linearGradient id="linear-gradient-3" x1="12.78" y1="76.58" x2="12.78" y2="6.97" xlink:href="#linear-gradient"/><linearGradient id="linear-gradient-4" x1="27.35" y1="76.58" x2="27.35" y2="6.97" xlink:href="#linear-gradient"/><linearGradient id="linear-gradient-5" x1="62.5" y1="76.58" x2="62.5" y2="6.97" xlink:href="#linear-gradient"/><linearGradient id="linear-gradient-6" x1="93.75" y1="137.81" x2="93.75" y2="33.81" gradientUnits="userSpaceOnUse"><stop offset="0" stop-color="#333"/><stop offset="1" stop-color="#4d4d4d"/></linearGradient><linearGradient id="linear-gradient-7" x1="39.06" y1="182.19" x2="39.06" y2="159.15" gradientUnits="userSpaceOnUse"><stop offset="0" stop-color="#29cefc"/><stop offset="1" stop-color="#7fe2fd"/></linearGradient><linearGradient id="linear-gradient-8" x1="6709.44" y1="-9558" x2="6709.44" y2="-9581.04" gradientTransform="translate(-4893.67 -10424.64) rotate(120)" xlink:href="#linear-gradient-7"/><linearGradient id="linear-gradient-9" x1="-5061" y1="-10464.62" x2="-5061" y2="-10487.66" gradientTransform="translate(6581.17 -9450.36) rotate(-120)" xlink:href="#linear-gradient-7"/><linearGradient id="linear-gradient-10" x1="62.5" y1="166.56" x2="62.5" y2="143.52" xlink:href="#linear-gradient-7"/><linearGradient id="linear-gradient-11" x1="6684.19" y1="-9570.49" x2="6684.19" y2="-9593.53" gradientTransform="translate(-4893.67 -10424.64) rotate(120)" xlink:href="#linear-gradient-7"/><linearGradient id="linear-gradient-12" x1="-5059.19" y1="-10436.51" x2="-5059.19" y2="-10459.55" gradientTransform="translate(6581.17 -9450.36) rotate(-120)" xlink:href="#linear-gradient-7"/><linearGradient id="linear-gradient-13" x1="93.75" y1="182.19" x2="93.75" y2="159.15" xlink:href="#linear-gradient-7"/><linearGradient id="linear-gradient-14" x1="6682.09" y1="-9605.36" x2="6682.09" y2="-9628.4" gradientTransform="translate(-4893.67 -10424.64) rotate(120)" xlink:href="#linear-gradient-7"/><linearGradient id="linear-gradient-15" x1="-5088.34" y1="-10417.26" x2="-5088.34" y2="-10440.3" gradientTransform="translate(6581.17 -9450.36) rotate(-120)" xlink:href="#linear-gradient-7"/><linearGradient id="linear-gradient-16" x1="125" y1="166.56" x2="125" y2="143.52" xlink:href="#linear-gradient-7"/><linearGradient id="linear-gradient-17" x1="6652.94" y1="-9624.61" x2="6652.94" y2="-9647.66" gradientTransform="translate(-4893.67 -10424.64) rotate(120)" xlink:href="#linear-gradient-7"/><linearGradient id="linear-gradient-18" x1="-5090.44" y1="-10382.39" x2="-5090.44" y2="-10405.43" gradientTransform="translate(6581.17 -9450.36) rotate(-120)" xlink:href="#linear-gradient-7"/><linearGradient id="linear-gradient-19" x1="148.44" y1="182.19" x2="148.44" y2="159.15" xlink:href="#linear-gradient-7"/><linearGradient id="linear-gradient-20" x1="6654.75" y1="-9652.72" x2="6654.75" y2="-9675.77" gradientTransform="translate(-4893.67 -10424.64) rotate(120)" xlink:href="#linear-gradient-7"/><linearGradient id="linear-gradient-21" x1="-5115.69" y1="-10369.9" x2="-5115.69" y2="-10392.94" gradientTransform="translate(6581.17 -9450.36) rotate(-120)" xlink:href="#linear-gradient-7"/></defs><g id="Layer_2" data-name="Layer 2"><g id="IconsNew"><g id="snow"><g id="heavy"><g id="heavySnowShowers"><g id="heavySnowShowersDay"><rect class="cls-1" width="187.5" height="187.5"/><path class="cls-2" d="M31.77,78.91a34.82,34.82,0,0,1,54.36-42l-6.78,7.34A24.82,24.82,0,0,0,37.67,62.5a24.47,24.47,0,0,0,2.92,11.69Z"/><path class="cls-3" d="M94.14,35.86a5,5,0,0,1-3.54-8.53l7-7a5,5,0,0,1,7.08,7.08l-7,7A5,5,0,0,1,94.14,35.86Z"/><path class="cls-4" d="M17.76,67.5h-10a5,5,0,0,1,0-10h10a5,5,0,1,1,0,10Z"/><path class="cls-5" d="M30.86,35.86a5,5,0,0,1-3.53-1.46l-7-7a5,5,0,1,1,7.08-7.08l7,7a5,5,0,0,1-3.54,8.53Z"/><path class="cls-6" d="M62.5,22.76a5,5,0,0,1-5-5v-10a5,5,0,0,1,10,0v10A5,5,0,0,1,62.5,22.76Z"/><path class="cls-7" d="M137.15,68.53c-1.33,0-2.66.09-4,.22a39.72,39.72,0,0,0-78.86,0c-1.31-.13-2.64-.22-4-.22a39.73,39.73,0,0,0-28.1,67.81,5,5,0,0,0,3.54,1.47,4.94,4.94,0,0,0,3.53-1.46,5,5,0,0,0,0-7.07,29.73,29.73,0,0,1,21-50.75,30.41,30.41,0,0,1,7.45.93,29.87,29.87,0,0,1,22.25,27.86,5,5,0,1,0,10-.31A40,40,0,0,0,64.14,71a29.72,29.72,0,0,1,59.33,2.53c0,.31,0,.6,0,.94v.15h0a5,5,0,0,0,5,5,5.28,5.28,0,0,0,.9-.09l.25-.06.32-.07a30.19,30.19,0,0,1,7.23-.88,29.73,29.73,0,0,1,21,50.75,5,5,0,0,0,0,7.07,4.94,4.94,0,0,0,3.53,1.46,5,5,0,0,0,3.54-1.47,39.73,39.73,0,0,0-28.1-67.81Z"/><path class="cls-8" d="M39.06,182.19a2.5,2.5,0,0,1-2.5-2.5v-18a2.5,2.5,0,0,1,5,0v18A2.5,2.5,0,0,1,39.06,182.19Z"/><path class="cls-9" d="M46.87,177.68a2.5,2.5,0,0,1-1.25-.34l-15.62-9A2.5,2.5,0,1,1,32.5,164l15.62,9a2.5,2.5,0,0,1-1.25,4.67Z"/><path class="cls-10" d="M31.25,177.68A2.5,2.5,0,0,1,30,173l15.62-9a2.5,2.5,0,1,1,2.5,4.33l-15.62,9A2.45,2.45,0,0,1,31.25,177.68Z"/><path class="cls-11" d="M62.5,166.56a2.5,2.5,0,0,1-2.5-2.5V146a2.5,2.5,0,0,1,5,0v18A2.5,2.5,0,0,1,62.5,166.56Z"/><path class="cls-12" d="M70.31,162.05a2.6,2.6,0,0,1-1.25-.33l-15.62-9a2.5,2.5,0,1,1,2.5-4.33l15.62,9a2.49,2.49,0,0,1,.92,3.41A2.52,2.52,0,0,1,70.31,162.05Z"/><path class="cls-13" d="M54.69,162.05a2.52,2.52,0,0,1-2.17-1.25,2.49,2.49,0,0,1,.92-3.41l15.62-9a2.5,2.5,0,1,1,2.5,4.33l-15.62,9A2.6,2.6,0,0,1,54.69,162.05Z"/><path class="cls-14" d="M93.75,182.19a2.5,2.5,0,0,1-2.5-2.5v-18a2.5,2.5,0,0,1,5,0v18A2.5,2.5,0,0,1,93.75,182.19Z"/><path class="cls-15" d="M101.56,177.68a2.5,2.5,0,0,1-1.25-.34l-15.62-9a2.5,2.5,0,1,1,2.5-4.33l15.62,9a2.5,2.5,0,0,1-1.25,4.67Z"/><path class="cls-16" d="M85.94,177.68A2.5,2.5,0,0,1,84.69,173l15.62-9a2.5,2.5,0,1,1,2.5,4.33l-15.62,9A2.5,2.5,0,0,1,85.94,177.68Z"/><path class="cls-17" d="M125,166.56a2.5,2.5,0,0,1-2.5-2.5V146a2.5,2.5,0,1,1,5,0v18A2.5,2.5,0,0,1,125,166.56Z"/><path class="cls-18" d="M132.81,162.05a2.6,2.6,0,0,1-1.25-.33l-15.62-9a2.5,2.5,0,1,1,2.5-4.33l15.62,9a2.49,2.49,0,0,1,.92,3.41A2.52,2.52,0,0,1,132.81,162.05Z"/><path class="cls-19" d="M117.19,162.05A2.52,2.52,0,0,1,115,160.8a2.49,2.49,0,0,1,.92-3.41l15.62-9a2.5,2.5,0,1,1,2.5,4.33l-15.62,9A2.6,2.6,0,0,1,117.19,162.05Z"/><path class="cls-20" d="M148.44,182.19a2.5,2.5,0,0,1-2.5-2.5v-18a2.5,2.5,0,0,1,5,0v18A2.5,2.5,0,0,1,148.44,182.19Z"/><path class="cls-21" d="M156.25,177.68a2.45,2.45,0,0,1-1.25-.34l-15.62-9a2.5,2.5,0,1,1,2.5-4.33l15.62,9a2.5,2.5,0,0,1-1.25,4.67Z"/><path class="cls-22" d="M140.63,177.68a2.5,2.5,0,0,1-1.25-4.67L155,164a2.5,2.5,0,1,1,2.5,4.33l-15.62,9A2.5,2.5,0,0,1,140.63,177.68Z"/></g></g></g></g></g></g></svg>