<svg xmlns="http://www.w3.org/2000/svg" xmlns:xlink="http://www.w3.org/1999/xlink" viewBox="0 0 187.5 187.5"><defs><style>.cls-1{fill:none;}.cls-2{fill:url(#linear-gradient);}.cls-3{fill:url(#linear-gradient-2);}.cls-4{fill:url(#linear-gradient-3);}.cls-5{fill:url(#linear-gradient-4);}.cls-6{fill:url(#linear-gradient-5);}.cls-7{fill:url(#linear-gradient-6);}.cls-8{fill:url(#linear-gradient-7);}.cls-9{fill:url(#linear-gradient-8);}.cls-10{fill:url(#linear-gradient-9);}.cls-11{fill:url(#linear-gradient-10);}</style><linearGradient id="linear-gradient" x1="39.06" y1="168.98" x2="39.06" y2="145.94" gradientUnits="userSpaceOnUse"><stop offset="0" stop-color="#29cefc"/><stop offset="1" stop-color="#7fe2fd"/></linearGradient><linearGradient id="linear-gradient-2" x1="8863.06" y1="-13301.4" x2="8863.06" y2="-13324.44" gradientTransform="translate(-7058.73 -14174.64) rotate(120)" xlink:href="#linear-gradient"/><linearGradient id="linear-gradient-3" x1="-7214.63" y1="-14208.02" x2="-7214.63" y2="-14231.06" gradientTransform="translate(8746.23 -13200.36) rotate(-120)" xlink:href="#linear-gradient"/><linearGradient id="linear-gradient-4" x1="60.71" y1="182.83" x2="60.71" y2="147.4" gradientUnits="userSpaceOnUse"><stop offset="0" stop-color="#21a4c9"/><stop offset="1" stop-color="#4db6d4"/></linearGradient><linearGradient id="linear-gradient-5" x1="95.54" y1="182.83" x2="95.54" y2="147.4" xlink:href="#linear-gradient-4"/><linearGradient id="linear-gradient-6" x1="132.81" y1="182.19" x2="132.81" y2="159.15" xlink:href="#linear-gradient"/><linearGradient id="linear-gradient-7" x1="8827.63" y1="-13389.19" x2="8827.63" y2="-13412.23" gradientTransform="translate(-7058.73 -14174.64) rotate(120)" xlink:href="#linear-gradient"/><linearGradient id="linear-gradient-8" x1="-7272.94" y1="-14133.43" x2="-7272.94" y2="-14156.47" gradientTransform="translate(8746.23 -13200.36) rotate(-120)" xlink:href="#linear-gradient"/><linearGradient id="linear-gradient-9" x1="154.46" y1="182.83" x2="154.46" y2="147.4" xlink:href="#linear-gradient-4"/><linearGradient id="linear-gradient-10" x1="93.75" y1="138.07" x2="93.75" y2="34.06" gradientUnits="userSpaceOnUse"><stop offset="0" stop-color="#333"/><stop offset="1" stop-color="#4d4d4d"/></linearGradient></defs><g id="Layer_2" data-name="Layer 2"><g id="IconsNew"><g id="sleet"><g id="heavy"><g id="heavySleet"><rect class="cls-1" width="187.5" height="187.5"/><path class="cls-2" d="M39.06,169a2.5,2.5,0,0,1-2.5-2.5v-18a2.5,2.5,0,0,1,5,0v18A2.5,2.5,0,0,1,39.06,169Z"/><path class="cls-3" d="M46.87,164.47a2.44,2.44,0,0,1-1.24-.34l-15.63-9a2.5,2.5,0,1,1,2.5-4.33l15.63,9a2.5,2.5,0,0,1-1.26,4.67Z"/><path class="cls-4" d="M31.25,164.47A2.5,2.5,0,0,1,30,159.8l15.63-9a2.5,2.5,0,0,1,2.5,4.33l-15.63,9A2.45,2.45,0,0,1,31.25,164.47Z"/><path class="cls-5" d="M58.92,182.19a2.22,2.22,0,0,1-.57-.07,2.49,2.49,0,0,1-1.87-3l3.58-15.63a2.5,2.5,0,0,1,4.88,1.12l-3.59,15.63A2.51,2.51,0,0,1,58.92,182.19Z"/><path class="cls-6" d="M93.75,166.56a2.74,2.74,0,0,1-.56-.06,2.51,2.51,0,0,1-1.88-3l3.59-15.62A2.5,2.5,0,1,1,99.77,149l-3.58,15.62A2.51,2.51,0,0,1,93.75,166.56Z"/><path class="cls-7" d="M132.81,182.19a2.5,2.5,0,0,1-2.5-2.5v-18a2.5,2.5,0,0,1,5,0v18A2.5,2.5,0,0,1,132.81,182.19Z"/><path class="cls-8" d="M140.62,177.68a2.44,2.44,0,0,1-1.24-.34l-15.63-9a2.5,2.5,0,1,1,2.5-4.33l15.63,9a2.5,2.5,0,0,1-1.26,4.67Z"/><path class="cls-9" d="M125,177.68a2.5,2.5,0,0,1-1.25-4.67l15.63-9a2.5,2.5,0,0,1,2.5,4.33l-15.63,9A2.45,2.45,0,0,1,125,177.68Z"/><path class="cls-10" d="M152.67,166.56a2.76,2.76,0,0,1-.57-.06,2.5,2.5,0,0,1-1.87-3l3.58-15.62a2.5,2.5,0,0,1,4.88,1.12l-3.59,15.62A2.5,2.5,0,0,1,152.67,166.56Z"/><path class="cls-11" d="M137.15,68.79c-1.33,0-2.66.08-4,.21a39.72,39.72,0,0,0-78.86,0c-1.31-.13-2.64-.21-4-.21a39.73,39.73,0,0,0-28.1,67.81,5,5,0,0,0,7.08-7.07,29.73,29.73,0,0,1,21-50.74,29.63,29.63,0,0,1,29.7,28.78,5,5,0,1,0,10-.3,40,40,0,0,0-25.91-36,29.72,29.72,0,0,1,59.33,2.54c0,.3,0,.59,0,.93v.15h0a5,5,0,0,0,5,5h0a4.81,4.81,0,0,0,.85-.09,2,2,0,0,0,.26-.06l.31-.07a30.27,30.27,0,0,1,7.24-.87,29.72,29.72,0,0,1,21,50.74,5,5,0,1,0,7.08,7.07,39.73,39.73,0,0,0-28.1-67.81Z"/></g></g></g></g></g></svg>