<svg xmlns="http://www.w3.org/2000/svg" xmlns:xlink="http://www.w3.org/1999/xlink" viewBox="0 0 187.5 187.5"><defs><style>.cls-1{fill:none;}.cls-2{fill:url(#linear-gradient);}.cls-3{fill:url(#linear-gradient-2);}.cls-4{fill:url(#linear-gradient-3);}.cls-5{fill:url(#linear-gradient-4);}.cls-6{fill:url(#linear-gradient-5);}.cls-7{fill:url(#linear-gradient-6);}.cls-8{fill:url(#linear-gradient-7);}.cls-9{fill:url(#linear-gradient-8);}.cls-10{fill:url(#linear-gradient-9);}.cls-11{fill:url(#linear-gradient-10);}.cls-12{fill:url(#linear-gradient-11);}</style><linearGradient id="linear-gradient" x1="140.88" y1="85.76" x2="140.88" y2="2.81" gradientUnits="userSpaceOnUse"><stop offset="0" stop-color="#333"/><stop offset="1" stop-color="#4d4d4d"/></linearGradient><linearGradient id="linear-gradient-2" x1="93.75" y1="138.07" x2="93.75" y2="34.07" xlink:href="#linear-gradient"/><linearGradient id="linear-gradient-3" x1="39.06" y1="168.98" x2="39.06" y2="145.94" gradientUnits="userSpaceOnUse"><stop offset="0" stop-color="#29cefc"/><stop offset="1" stop-color="#7fe2fd"/></linearGradient><linearGradient id="linear-gradient-4" x1="8921.08" y1="-14267.9" x2="8921.08" y2="-14290.95" gradientTransform="translate(-7866.74 -14708.13) rotate(120)" xlink:href="#linear-gradient-3"/><linearGradient id="linear-gradient-5" x1="-8022.64" y1="-14741.51" x2="-8022.64" y2="-14764.55" gradientTransform="translate(8804.24 -14166.87) rotate(-120)" xlink:href="#linear-gradient-3"/><linearGradient id="linear-gradient-6" x1="60.71" y1="182.15" x2="60.71" y2="147.47" gradientUnits="userSpaceOnUse"><stop offset="0" stop-color="#21a4c9"/><stop offset="1" stop-color="#4db6d4"/></linearGradient><linearGradient id="linear-gradient-7" x1="95.54" y1="182.15" x2="95.54" y2="147.47" xlink:href="#linear-gradient-6"/><linearGradient id="linear-gradient-8" x1="132.81" y1="182.19" x2="132.81" y2="159.15" xlink:href="#linear-gradient-3"/><linearGradient id="linear-gradient-9" x1="8885.64" y1="-14355.7" x2="8885.64" y2="-14378.74" gradientTransform="translate(-7866.74 -14708.13) rotate(120)" xlink:href="#linear-gradient-3"/><linearGradient id="linear-gradient-10" x1="-8080.95" y1="-14666.93" x2="-8080.95" y2="-14689.97" gradientTransform="translate(8804.24 -14166.87) rotate(-120)" xlink:href="#linear-gradient-3"/><linearGradient id="linear-gradient-11" x1="154.46" y1="182.15" x2="154.46" y2="147.47" xlink:href="#linear-gradient-6"/></defs><g id="Layer_2" data-name="Layer 2"><g id="IconsNew"><g id="sleet"><g id="heavy"><g id="heavySleetShowers"><g id="heavySleetShowersNight"><rect class="cls-1" width="187.5" height="187.5"/><path class="cls-2" d="M161.09,85.76l-4.66-8.85A34.27,34.27,0,0,0,173.3,56.19a36.78,36.78,0,0,1-42.58-36.26,37.15,37.15,0,0,1,.47-5.89,33.85,33.85,0,0,0-24.13,26.89l-9.86-1.7A43.87,43.87,0,0,1,137.81,2.82a5,5,0,0,1,4.93,6.91,26.44,26.44,0,0,0-2,10.2,26.75,26.75,0,0,0,36.92,24.71,5,5,0,0,1,6.91,4.93A44.31,44.31,0,0,1,161.09,85.76Z"/><path class="cls-3" d="M137.15,68.79c-1.33,0-2.66.08-4,.21a39.72,39.72,0,0,0-78.86,0c-1.31-.13-2.64-.21-4-.21a39.73,39.73,0,0,0-28.1,67.81,5,5,0,0,0,7.08-7.06,29.73,29.73,0,0,1,21-50.75,29.63,29.63,0,0,1,29.7,28.79,5,5,0,0,0,10-.31,40,40,0,0,0-25.91-36,29.72,29.72,0,0,1,59.33,2.54c0,.28,0,.55,0,.83v.26h0a5,5,0,0,0,5,5,4.43,4.43,0,0,0,.9-.09l.25-.05c.11,0,.21,0,.32-.08a30.18,30.18,0,0,1,7.23-.87,29.73,29.73,0,0,1,21,50.75,5,5,0,1,0,7.08,7.06,39.73,39.73,0,0,0-28.1-67.81Z"/><path class="cls-4" d="M39.06,169a2.5,2.5,0,0,1-2.5-2.5v-18a2.5,2.5,0,0,1,5,0v18A2.5,2.5,0,0,1,39.06,169Z"/><path class="cls-5" d="M46.87,164.47a2.5,2.5,0,0,1-1.25-.34l-15.62-9a2.5,2.5,0,1,1,2.5-4.33l15.62,9a2.5,2.5,0,0,1-1.25,4.67Z"/><path class="cls-6" d="M31.25,164.47A2.5,2.5,0,0,1,30,159.8l15.62-9a2.5,2.5,0,1,1,2.5,4.33l-15.62,9A2.45,2.45,0,0,1,31.25,164.47Z"/><path class="cls-7" d="M58.92,182.19a2.22,2.22,0,0,1-.57-.07,2.49,2.49,0,0,1-1.87-3l3.58-15.63a2.5,2.5,0,0,1,4.88,1.12l-3.59,15.63A2.51,2.51,0,0,1,58.92,182.19Z"/><path class="cls-8" d="M93.75,166.56a2.74,2.74,0,0,1-.56-.06,2.5,2.5,0,0,1-1.88-3l3.59-15.62A2.5,2.5,0,1,1,99.77,149l-3.58,15.62A2.51,2.51,0,0,1,93.75,166.56Z"/><path class="cls-9" d="M132.81,182.19a2.5,2.5,0,0,1-2.5-2.5v-18a2.5,2.5,0,0,1,5,0v18A2.5,2.5,0,0,1,132.81,182.19Z"/><path class="cls-10" d="M140.62,177.68a2.44,2.44,0,0,1-1.24-.34l-15.63-9a2.5,2.5,0,1,1,2.5-4.33l15.63,9a2.5,2.5,0,0,1-1.26,4.67Z"/><path class="cls-11" d="M125,177.68a2.5,2.5,0,0,1-1.25-4.67l15.63-9a2.5,2.5,0,0,1,2.5,4.33l-15.63,9A2.45,2.45,0,0,1,125,177.68Z"/><path class="cls-12" d="M152.67,166.56a2.76,2.76,0,0,1-.57-.06,2.5,2.5,0,0,1-1.87-3l3.58-15.62a2.5,2.5,0,0,1,4.88,1.12l-3.59,15.62A2.5,2.5,0,0,1,152.67,166.56Z"/></g></g></g></g></g></g></svg>