<svg xmlns="http://www.w3.org/2000/svg" xmlns:xlink="http://www.w3.org/1999/xlink" viewBox="0 0 187.5 187.5"><defs><style>.cls-1{fill:none;}.cls-2{fill:url(#linear-gradient);}.cls-3{fill:url(#linear-gradient-2);}.cls-4{fill:url(#linear-gradient-3);}.cls-5{fill:url(#linear-gradient-4);}.cls-6{fill:url(#linear-gradient-5);}.cls-7{fill:url(#linear-gradient-6);}.cls-8{fill:url(#linear-gradient-7);}.cls-9{fill:url(#linear-gradient-8);}.cls-10{fill:url(#linear-gradient-9);}.cls-11{fill:url(#linear-gradient-10);}.cls-12{fill:url(#linear-gradient-11);}.cls-13{fill:url(#linear-gradient-12);}.cls-14{fill:url(#linear-gradient-13);}.cls-15{fill:url(#linear-gradient-14);}.cls-16{fill:url(#linear-gradient-15);}.cls-17{fill:url(#linear-gradient-16);}</style><linearGradient id="linear-gradient" x1="56.9" y1="78.25" x2="56.9" y2="7.87" gradientUnits="userSpaceOnUse"><stop offset="0" stop-color="#ff931e"/><stop offset="1" stop-color="#ffc311"/></linearGradient><linearGradient id="linear-gradient-2" x1="97.65" y1="78.25" x2="97.65" y2="7.87" xlink:href="#linear-gradient"/><linearGradient id="linear-gradient-3" x1="12.78" y1="78.25" x2="12.78" y2="7.87" xlink:href="#linear-gradient"/><linearGradient id="linear-gradient-4" x1="27.35" y1="78.25" x2="27.35" y2="7.87" xlink:href="#linear-gradient"/><linearGradient id="linear-gradient-5" x1="62.5" y1="78.25" x2="62.5" y2="7.87" xlink:href="#linear-gradient"/><linearGradient id="linear-gradient-6" x1="93.75" y1="137.81" x2="93.75" y2="33.81" gradientUnits="userSpaceOnUse"><stop offset="0" stop-color="#333"/><stop offset="1" stop-color="#4d4d4d"/></linearGradient><linearGradient id="linear-gradient-7" x1="39.06" y1="168.98" x2="39.06" y2="145.94" gradientUnits="userSpaceOnUse"><stop offset="0" stop-color="#29cefc"/><stop offset="1" stop-color="#7fe2fd"/></linearGradient><linearGradient id="linear-gradient-8" x1="9512.58" y1="-14426.4" x2="9512.58" y2="-14449.44" gradientTransform="translate(-7708.25 -15299.64) rotate(120)" xlink:href="#linear-gradient-7"/><linearGradient id="linear-gradient-9" x1="-7864.15" y1="-15333.02" x2="-7864.15" y2="-15356.06" gradientTransform="translate(9395.75 -14325.36) rotate(-120)" xlink:href="#linear-gradient-7"/><linearGradient id="linear-gradient-10" x1="60.71" y1="182.39" x2="60.71" y2="146.81" gradientUnits="userSpaceOnUse"><stop offset="0" stop-color="#21a4c9"/><stop offset="1" stop-color="#4db6d4"/></linearGradient><linearGradient id="linear-gradient-11" x1="115.39" y1="182.39" x2="115.39" y2="146.81" xlink:href="#linear-gradient-10"/><linearGradient id="linear-gradient-12" x1="132.81" y1="182.19" x2="132.81" y2="159.15" xlink:href="#linear-gradient-7"/><linearGradient id="linear-gradient-13" x1="9477.15" y1="-14514.19" x2="9477.15" y2="-14537.23" gradientTransform="translate(-7708.25 -15299.64) rotate(120)" xlink:href="#linear-gradient-7"/><linearGradient id="linear-gradient-14" x1="-7922.46" y1="-15258.43" x2="-7922.46" y2="-15281.47" gradientTransform="translate(9395.75 -14325.36) rotate(-120)" xlink:href="#linear-gradient-7"/><linearGradient id="linear-gradient-15" x1="154.46" y1="182.39" x2="154.46" y2="146.81" xlink:href="#linear-gradient-10"/><linearGradient id="linear-gradient-16" x1="93.75" y1="182.39" x2="93.75" y2="125.07" xlink:href="#linear-gradient"/></defs><g id="Layer_2" data-name="Layer 2"><g id="IconsNew"><g id="sleet"><g id="heavy"><g id="heavySleetShowersAndThunder"><g id="heavySleetShowersAndThunderDay"><rect class="cls-1" width="187.5" height="187.5"/><path class="cls-2" d="M31.77,78.91a34.82,34.82,0,0,1,54.36-42l-6.78,7.34A24.82,24.82,0,0,0,37.67,62.5a24.47,24.47,0,0,0,2.92,11.69Z"/><path class="cls-3" d="M94.14,35.86a5,5,0,0,1-3.54-8.53l7-7a5,5,0,0,1,7.08,7.08l-7,7A5,5,0,0,1,94.14,35.86Z"/><path class="cls-4" d="M17.76,67.5h-10a5,5,0,0,1,0-10h10a5,5,0,1,1,0,10Z"/><path class="cls-5" d="M30.86,35.86a5,5,0,0,1-3.53-1.46l-7-7a5,5,0,1,1,7.08-7.08l7,7a5,5,0,0,1-3.54,8.53Z"/><path class="cls-6" d="M62.5,22.76a5,5,0,0,1-5-5v-10a5,5,0,0,1,10,0v10A5,5,0,0,1,62.5,22.76Z"/><path class="cls-7" d="M137.15,68.53c-1.33,0-2.66.09-4,.22a39.72,39.72,0,0,0-78.86,0c-1.31-.13-2.64-.22-4-.22a39.73,39.73,0,0,0-28.1,67.81,5,5,0,0,0,3.54,1.47,4.94,4.94,0,0,0,3.53-1.46,5,5,0,0,0,0-7.07,29.73,29.73,0,0,1,21-50.75,30.41,30.41,0,0,1,7.45.93,29.87,29.87,0,0,1,22.25,27.86,5,5,0,1,0,10-.31A40,40,0,0,0,64.14,71a29.72,29.72,0,0,1,59.33,2.53c0,.31,0,.6,0,.94v.15h0a5,5,0,0,0,5,5,5.28,5.28,0,0,0,.9-.09l.25-.06.32-.07a30.19,30.19,0,0,1,7.23-.88,29.73,29.73,0,0,1,21,50.75,5,5,0,0,0,0,7.07,4.94,4.94,0,0,0,3.53,1.46,5,5,0,0,0,3.54-1.47,39.73,39.73,0,0,0-28.1-67.81Z"/><path class="cls-8" d="M39.06,169a2.5,2.5,0,0,1-2.5-2.5v-18a2.5,2.5,0,0,1,5,0v18A2.5,2.5,0,0,1,39.06,169Z"/><path class="cls-9" d="M46.87,164.47a2.5,2.5,0,0,1-1.25-.34l-15.62-9a2.5,2.5,0,1,1,2.5-4.33l15.62,9a2.5,2.5,0,0,1-1.25,4.67Z"/><path class="cls-10" d="M31.25,164.47A2.5,2.5,0,0,1,30,159.8l15.62-9a2.5,2.5,0,1,1,2.5,4.33l-15.62,9A2.45,2.45,0,0,1,31.25,164.47Z"/><path class="cls-11" d="M58.92,182.19a2.22,2.22,0,0,1-.57-.07,2.49,2.49,0,0,1-1.87-3l3.58-15.63a2.5,2.5,0,0,1,4.88,1.12l-3.59,15.63A2.51,2.51,0,0,1,58.92,182.19Z"/><path class="cls-12" d="M113.6,166.56a2.74,2.74,0,0,1-.56-.06,2.5,2.5,0,0,1-1.87-3l3.58-15.62a2.5,2.5,0,1,1,4.87,1.12L116,164.62A2.51,2.51,0,0,1,113.6,166.56Z"/><path class="cls-13" d="M132.81,182.19a2.5,2.5,0,0,1-2.5-2.5v-18a2.5,2.5,0,0,1,5,0v18A2.5,2.5,0,0,1,132.81,182.19Z"/><path class="cls-14" d="M140.62,177.68a2.44,2.44,0,0,1-1.24-.34l-15.63-9a2.5,2.5,0,1,1,2.5-4.33l15.63,9a2.5,2.5,0,0,1-1.26,4.67Z"/><path class="cls-15" d="M125,177.68a2.5,2.5,0,0,1-1.25-4.67l15.63-9a2.5,2.5,0,0,1,2.5,4.33l-15.63,9A2.45,2.45,0,0,1,125,177.68Z"/><path class="cls-16" d="M152.67,166.56a2.76,2.76,0,0,1-.57-.06,2.5,2.5,0,0,1-1.87-3l3.58-15.62a2.5,2.5,0,0,1,4.88,1.12l-3.59,15.62A2.5,2.5,0,0,1,152.67,166.56Z"/><path class="cls-17" d="M89.84,182.19a2.64,2.64,0,0,1-.55-.06,2.5,2.5,0,0,1-2-2.44V160.31H82a2.5,2.5,0,0,1-2.26-3.57L95.4,123.92a2.5,2.5,0,0,1,4.76,1.08v19.38h5.31a2.48,2.48,0,0,1,2.11,1.16,2.52,2.52,0,0,1,.15,2.41L92.1,180.76A2.5,2.5,0,0,1,89.84,182.19ZM86,155.31h3.85a2.5,2.5,0,0,1,2.5,2.5v10.81l9.17-19.24H97.66a2.5,2.5,0,0,1-2.5-2.5V136.06Z"/></g></g></g></g></g></g></svg>