<svg xmlns="http://www.w3.org/2000/svg" xmlns:xlink="http://www.w3.org/1999/xlink" viewBox="0 0 187.5 187.5"><defs><style>.cls-1{fill:none;}.cls-2{fill:url(#linear-gradient);}.cls-3{fill:url(#linear-gradient-2);}.cls-4{fill:url(#linear-gradient-3);}.cls-5{fill:url(#linear-gradient-4);}.cls-6{fill:url(#linear-gradient-5);}.cls-7{fill:url(#linear-gradient-6);}.cls-8{fill:url(#linear-gradient-7);}.cls-9{fill:url(#linear-gradient-8);}.cls-10{fill:url(#linear-gradient-9);}.cls-11{fill:url(#linear-gradient-10);}.cls-12{fill:url(#linear-gradient-11);}.cls-13{fill:url(#linear-gradient-12);}.cls-14{fill:url(#linear-gradient-13);}.cls-15{fill:url(#linear-gradient-14);}</style><linearGradient id="linear-gradient" x1="93.75" y1="138.07" x2="93.75" y2="34.06" gradientUnits="userSpaceOnUse"><stop offset="0" stop-color="#333"/><stop offset="1" stop-color="#4d4d4d"/></linearGradient><linearGradient id="linear-gradient-2" x1="39.06" y1="182.19" x2="39.06" y2="159.15" gradientTransform="matrix(-1, 0, 0, 1, 101.56, 0)" gradientUnits="userSpaceOnUse"><stop offset="0" stop-color="#29cefc"/><stop offset="1" stop-color="#7fe2fd"/></linearGradient><linearGradient id="linear-gradient-3" x1="6492.93" y1="-9183" x2="6492.93" y2="-9206.04" gradientTransform="matrix(0.5, 0.87, 0.87, -0.5, 4778.72, -10049.64)" xlink:href="#linear-gradient-2"/><linearGradient id="linear-gradient-4" x1="-4844.49" y1="-10089.62" x2="-4844.49" y2="-10112.66" gradientTransform="matrix(0.5, -0.87, -0.87, -0.5, -6263.1, -9075.36)" xlink:href="#linear-gradient-2"/><linearGradient id="linear-gradient-5" x1="62.5" y1="166.56" x2="62.5" y2="143.52" xlink:href="#linear-gradient-2"/><linearGradient id="linear-gradient-6" x1="6467.68" y1="-9195.49" x2="6467.68" y2="-9218.53" gradientTransform="matrix(0.5, 0.87, 0.87, -0.5, 4778.72, -10049.64)" xlink:href="#linear-gradient-2"/><linearGradient id="linear-gradient-7" x1="-4842.68" y1="-10061.51" x2="-4842.68" y2="-10084.55" gradientTransform="matrix(0.5, -0.87, -0.87, -0.5, -6263.1, -9075.36)" xlink:href="#linear-gradient-2"/><linearGradient id="linear-gradient-8" x1="125" y1="166.56" x2="125" y2="143.52" gradientTransform="matrix(1, 0, 0, 1, 0, 0)" xlink:href="#linear-gradient-2"/><linearGradient id="linear-gradient-9" x1="6436.43" y1="-9249.61" x2="6436.43" y2="-9272.66" gradientTransform="translate(-4677.16 -10049.64) rotate(120)" xlink:href="#linear-gradient-2"/><linearGradient id="linear-gradient-10" x1="-4873.93" y1="-10007.39" x2="-4873.93" y2="-10030.43" gradientTransform="translate(6364.66 -9075.36) rotate(-120)" xlink:href="#linear-gradient-2"/><linearGradient id="linear-gradient-11" x1="148.44" y1="182.19" x2="148.44" y2="159.15" gradientTransform="matrix(1, 0, 0, 1, 0, 0)" xlink:href="#linear-gradient-2"/><linearGradient id="linear-gradient-12" x1="6438.24" y1="-9277.72" x2="6438.24" y2="-9300.77" gradientTransform="translate(-4677.16 -10049.64) rotate(120)" xlink:href="#linear-gradient-2"/><linearGradient id="linear-gradient-13" x1="-4899.18" y1="-9994.9" x2="-4899.18" y2="-10017.94" gradientTransform="translate(6364.66 -9075.36) rotate(-120)" xlink:href="#linear-gradient-2"/><linearGradient id="linear-gradient-14" x1="93.75" y1="182.8" x2="93.75" y2="122.97" gradientUnits="userSpaceOnUse"><stop offset="0" stop-color="#ff931e"/><stop offset="1" stop-color="#ffc311"/></linearGradient></defs><g id="Layer_2" data-name="Layer 2"><g id="IconsNew"><g id="snow"><g id="heavy"><g id="heavySnowAndThunder"><rect class="cls-1" width="187.5" height="187.5"/><path class="cls-2" d="M137.15,68.79c-1.33,0-2.66.08-4,.21a39.72,39.72,0,0,0-78.86,0c-1.31-.13-2.64-.21-4-.21a39.73,39.73,0,0,0-28.1,67.81,5,5,0,0,0,7.08-7.07,29.73,29.73,0,0,1,21-50.74,29.63,29.63,0,0,1,29.7,28.78,5,5,0,1,0,10-.3,40,40,0,0,0-25.91-36,29.72,29.72,0,0,1,59.33,2.54c0,.3,0,.59,0,.93v.15h0a5,5,0,0,0,5,5h0a4.81,4.81,0,0,0,.85-.09,2,2,0,0,0,.26-.06l.31-.07a30.27,30.27,0,0,1,7.24-.87,29.72,29.72,0,0,1,21,50.74,5,5,0,1,0,7.08,7.07,39.73,39.73,0,0,0-28.1-67.81Z"/><path class="cls-3" d="M62.5,182.19a2.5,2.5,0,0,1-2.5-2.5v-18a2.5,2.5,0,0,1,5,0v18A2.5,2.5,0,0,1,62.5,182.19Z"/><path class="cls-4" d="M54.69,177.68A2.5,2.5,0,0,1,53.44,173l15.62-9a2.5,2.5,0,1,1,2.5,4.33l-15.62,9A2.5,2.5,0,0,1,54.69,177.68Z"/><path class="cls-5" d="M70.31,177.68a2.5,2.5,0,0,1-1.25-.34l-15.62-9a2.5,2.5,0,1,1,2.5-4.33l15.62,9a2.5,2.5,0,0,1-1.25,4.67Z"/><path class="cls-6" d="M39.06,166.56a2.5,2.5,0,0,1-2.5-2.5V146a2.5,2.5,0,0,1,5,0v18A2.5,2.5,0,0,1,39.06,166.56Z"/><path class="cls-7" d="M31.25,162.05a2.52,2.52,0,0,1-2.17-1.25,2.49,2.49,0,0,1,.92-3.41l15.63-9a2.48,2.48,0,0,1,3.41.91,2.51,2.51,0,0,1-.91,3.42l-15.63,9A2.54,2.54,0,0,1,31.25,162.05Z"/><path class="cls-8" d="M46.87,162.05a2.53,2.53,0,0,1-1.24-.33L30,152.7a2.5,2.5,0,1,1,2.5-4.33l15.63,9a2.5,2.5,0,0,1-1.26,4.66Z"/><path class="cls-9" d="M125,166.56a2.5,2.5,0,0,1-2.5-2.5V146a2.5,2.5,0,1,1,5,0v18A2.5,2.5,0,0,1,125,166.56Z"/><path class="cls-10" d="M132.81,162.05a2.6,2.6,0,0,1-1.25-.33l-15.62-9a2.5,2.5,0,1,1,2.5-4.33l15.62,9a2.49,2.49,0,0,1,.92,3.41A2.52,2.52,0,0,1,132.81,162.05Z"/><path class="cls-11" d="M117.19,162.05A2.52,2.52,0,0,1,115,160.8a2.49,2.49,0,0,1,.92-3.41l15.62-9a2.5,2.5,0,1,1,2.5,4.33l-15.62,9A2.6,2.6,0,0,1,117.19,162.05Z"/><path class="cls-12" d="M148.44,182.19a2.5,2.5,0,0,1-2.5-2.5v-18a2.5,2.5,0,0,1,5,0v18A2.5,2.5,0,0,1,148.44,182.19Z"/><path class="cls-13" d="M156.25,177.68a2.45,2.45,0,0,1-1.25-.34l-15.62-9a2.5,2.5,0,1,1,2.5-4.33l15.62,9a2.5,2.5,0,0,1-1.25,4.67Z"/><path class="cls-14" d="M140.63,177.68a2.5,2.5,0,0,1-1.25-4.67L155,164a2.5,2.5,0,1,1,2.5,4.33l-15.62,9A2.5,2.5,0,0,1,140.63,177.68Z"/><path class="cls-15" d="M89.84,182.19a2.64,2.64,0,0,1-.55-.06,2.5,2.5,0,0,1-2-2.44V160.31H82a2.5,2.5,0,0,1-2.26-3.57L95.4,123.92a2.5,2.5,0,0,1,4.76,1.08v19.38h5.31a2.48,2.48,0,0,1,2.11,1.16,2.52,2.52,0,0,1,.15,2.41L92.1,180.76A2.5,2.5,0,0,1,89.84,182.19ZM86,155.31h3.85a2.5,2.5,0,0,1,2.5,2.5v10.81l9.17-19.24H97.66a2.5,2.5,0,0,1-2.5-2.5V136.06Z"/></g></g></g></g></g></svg>