<svg xmlns="http://www.w3.org/2000/svg" xmlns:xlink="http://www.w3.org/1999/xlink" viewBox="0 0 187.5 187.5"><defs><style>.cls-1{fill:none;}.cls-2{fill:url(#linear-gradient);}.cls-3{fill:url(#linear-gradient-2);}.cls-4{fill:url(#linear-gradient-3);}.cls-5{fill:url(#linear-gradient-4);}.cls-6{fill:url(#linear-gradient-5);}.cls-7{fill:url(#linear-gradient-6);}.cls-8{fill:url(#linear-gradient-7);}.cls-9{fill:url(#linear-gradient-8);}.cls-10{fill:url(#linear-gradient-9);}</style><linearGradient id="linear-gradient" x1="140.88" y1="85.76" x2="140.88" y2="2.81" gradientUnits="userSpaceOnUse"><stop offset="0" stop-color="#333"/><stop offset="1" stop-color="#4d4d4d"/></linearGradient><linearGradient id="linear-gradient-2" x1="93.75" y1="138.07" x2="93.75" y2="34.07" xlink:href="#linear-gradient"/><linearGradient id="linear-gradient-3" x1="52.89" y1="181.96" x2="52.89" y2="157.3" gradientUnits="userSpaceOnUse"><stop offset="0" stop-color="#21a4c9"/><stop offset="1" stop-color="#4db6d4"/></linearGradient><linearGradient id="linear-gradient-4" x1="37.27" y1="181.96" x2="37.27" y2="157.3" xlink:href="#linear-gradient-3"/><linearGradient id="linear-gradient-5" x1="68.52" y1="181.96" x2="68.52" y2="157.3" xlink:href="#linear-gradient-3"/><linearGradient id="linear-gradient-6" x1="115.39" y1="181.96" x2="115.39" y2="157.3" xlink:href="#linear-gradient-3"/><linearGradient id="linear-gradient-7" x1="146.64" y1="181.96" x2="146.64" y2="157.3" xlink:href="#linear-gradient-3"/><linearGradient id="linear-gradient-8" x1="131.02" y1="181.96" x2="131.02" y2="157.3" xlink:href="#linear-gradient-3"/><linearGradient id="linear-gradient-9" x1="93.75" y1="181.96" x2="93.75" y2="127.51" gradientUnits="userSpaceOnUse"><stop offset="0" stop-color="#ff931e"/><stop offset="1" stop-color="#ffc311"/></linearGradient></defs><g id="Layer_2" data-name="Layer 2"><g id="IconsNew"><g id="rain"><g id="heavy"><g id="heavyRainShowersAndThunder"><g id="heavyRainShowersAndThunderNight"><rect class="cls-1" width="187.5" height="187.5"/><path class="cls-2" d="M161.09,85.76l-4.66-8.85A34.27,34.27,0,0,0,173.3,56.19a36.78,36.78,0,0,1-42.58-36.26,37.15,37.15,0,0,1,.47-5.89,33.85,33.85,0,0,0-24.13,26.89l-9.86-1.7A43.87,43.87,0,0,1,137.81,2.82a5,5,0,0,1,4.93,6.91,26.44,26.44,0,0,0-2,10.2,26.75,26.75,0,0,0,36.92,24.71,5,5,0,0,1,6.91,4.93A44.31,44.31,0,0,1,161.09,85.76Z"/><path class="cls-3" d="M137.15,68.79c-1.33,0-2.66.08-4,.21a39.72,39.72,0,0,0-78.86,0c-1.31-.13-2.64-.21-4-.21a39.73,39.73,0,0,0-28.1,67.81,5,5,0,0,0,7.08-7.06,29.73,29.73,0,0,1,21-50.75,29.63,29.63,0,0,1,29.7,28.79,5,5,0,0,0,5,4.84h.15a5,5,0,0,0,4.85-5.15,40,40,0,0,0-25.91-36,29.72,29.72,0,0,1,59.33,2.54c0,.28,0,.55,0,.83v.26h0a5,5,0,0,0,5,5,4.43,4.43,0,0,0,.9-.09l.25-.05c.11,0,.21,0,.32-.08a30.18,30.18,0,0,1,7.23-.87,29.73,29.73,0,0,1,21,50.75,5,5,0,1,0,7.08,7.06,39.73,39.73,0,0,0-28.1-67.81Z"/><path class="cls-4" d="M51.1,182.19a2.2,2.2,0,0,1-.56-.07,2.49,2.49,0,0,1-1.87-3l3.58-15.63a2.5,2.5,0,0,1,4.87,1.12l-3.58,15.63A2.52,2.52,0,0,1,51.1,182.19Z"/><path class="cls-5" d="M35.48,174.38a2.68,2.68,0,0,1-.56-.07,2.49,2.49,0,0,1-1.88-3l3.59-15.63a2.5,2.5,0,1,1,4.87,1.12l-3.59,15.62A2.5,2.5,0,0,1,35.48,174.38Z"/><path class="cls-6" d="M66.73,174.38a2.68,2.68,0,0,1-.56-.07,2.49,2.49,0,0,1-1.88-3l3.59-15.63a2.5,2.5,0,1,1,4.87,1.12l-3.59,15.62A2.5,2.5,0,0,1,66.73,174.38Z"/><path class="cls-7" d="M113.6,182.19a2.2,2.2,0,0,1-.56-.07,2.49,2.49,0,0,1-1.87-3l3.58-15.63a2.5,2.5,0,0,1,4.87,1.12L116,180.25A2.52,2.52,0,0,1,113.6,182.19Z"/><path class="cls-8" d="M144.85,182.19a2.2,2.2,0,0,1-.56-.07,2.49,2.49,0,0,1-1.87-3L146,163.5a2.5,2.5,0,0,1,4.87,1.12l-3.58,15.63A2.52,2.52,0,0,1,144.85,182.19Z"/><path class="cls-9" d="M129.23,174.38a2.68,2.68,0,0,1-.56-.07,2.49,2.49,0,0,1-1.88-3l3.59-15.63a2.5,2.5,0,1,1,4.87,1.12l-3.59,15.62A2.5,2.5,0,0,1,129.23,174.38Z"/><path class="cls-10" d="M89.84,182.19a2.64,2.64,0,0,1-.55-.06,2.5,2.5,0,0,1-2-2.44V160.31H82a2.5,2.5,0,0,1-2.26-3.57L95.4,123.92a2.5,2.5,0,0,1,4.76,1.08v19.38h5.31a2.48,2.48,0,0,1,2.11,1.16,2.52,2.52,0,0,1,.15,2.41L92.1,180.76A2.5,2.5,0,0,1,89.84,182.19ZM86,155.31h3.85a2.5,2.5,0,0,1,2.5,2.5v10.81l9.17-19.24H97.66a2.5,2.5,0,0,1-2.5-2.5V136.06Z"/></g></g></g></g></g></g></svg>