<svg xmlns="http://www.w3.org/2000/svg" xmlns:xlink="http://www.w3.org/1999/xlink" viewBox="0 0 187.5 187.5"><defs><style>.cls-1{fill:none;}.cls-2{fill:url(#linear-gradient);}.cls-3{fill:url(#linear-gradient-2);}.cls-4{fill:url(#linear-gradient-3);}.cls-5{fill:url(#linear-gradient-4);}.cls-6{fill:url(#linear-gradient-5);}.cls-7{fill:url(#linear-gradient-6);}.cls-8{fill:url(#linear-gradient-7);}.cls-9{fill:url(#linear-gradient-8);}.cls-10{fill:url(#linear-gradient-9);}.cls-11{fill:url(#linear-gradient-10);}.cls-12{fill:url(#linear-gradient-11);}.cls-13{fill:url(#linear-gradient-12);}.cls-14{fill:url(#linear-gradient-13);}.cls-15{fill:url(#linear-gradient-14);}.cls-16{fill:url(#linear-gradient-15);}.cls-17{fill:url(#linear-gradient-16);}</style><linearGradient id="linear-gradient" x1="93.75" y1="138.35" x2="93.75" y2="34.34" gradientUnits="userSpaceOnUse"><stop offset="0" stop-color="#333"/><stop offset="1" stop-color="#4d4d4d"/></linearGradient><linearGradient id="linear-gradient-2" x1="39.06" y1="182.19" x2="39.06" y2="159.15" gradientUnits="userSpaceOnUse"><stop offset="0" stop-color="#29cefc"/><stop offset="1" stop-color="#7fe2fd"/></linearGradient><linearGradient id="linear-gradient-3" x1="6276.43" y1="-8808" x2="6276.43" y2="-8831.04" gradientTransform="translate(-4460.66 -9674.64) rotate(120)" xlink:href="#linear-gradient-2"/><linearGradient id="linear-gradient-4" x1="-4627.99" y1="-9714.62" x2="-4627.99" y2="-9737.66" gradientTransform="translate(6148.16 -8700.36) rotate(-120)" xlink:href="#linear-gradient-2"/><linearGradient id="linear-gradient-5" x1="62.5" y1="166.56" x2="62.5" y2="143.52" xlink:href="#linear-gradient-2"/><linearGradient id="linear-gradient-6" x1="6251.18" y1="-8820.49" x2="6251.18" y2="-8843.53" gradientTransform="translate(-4460.66 -9674.64) rotate(120)" xlink:href="#linear-gradient-2"/><linearGradient id="linear-gradient-7" x1="-4626.18" y1="-9686.51" x2="-4626.18" y2="-9709.55" gradientTransform="translate(6148.16 -8700.36) rotate(-120)" xlink:href="#linear-gradient-2"/><linearGradient id="linear-gradient-8" x1="93.75" y1="182.19" x2="93.75" y2="159.15" xlink:href="#linear-gradient-2"/><linearGradient id="linear-gradient-9" x1="6249.08" y1="-8855.36" x2="6249.08" y2="-8878.4" gradientTransform="translate(-4460.66 -9674.64) rotate(120)" xlink:href="#linear-gradient-2"/><linearGradient id="linear-gradient-10" x1="-4655.33" y1="-9667.26" x2="-4655.33" y2="-9690.3" gradientTransform="translate(6148.16 -8700.36) rotate(-120)" xlink:href="#linear-gradient-2"/><linearGradient id="linear-gradient-11" x1="125" y1="166.56" x2="125" y2="143.52" xlink:href="#linear-gradient-2"/><linearGradient id="linear-gradient-12" x1="6219.93" y1="-8874.61" x2="6219.93" y2="-8897.66" gradientTransform="translate(-4460.66 -9674.64) rotate(120)" xlink:href="#linear-gradient-2"/><linearGradient id="linear-gradient-13" x1="-4657.43" y1="-9632.39" x2="-4657.43" y2="-9655.43" gradientTransform="translate(6148.16 -8700.36) rotate(-120)" xlink:href="#linear-gradient-2"/><linearGradient id="linear-gradient-14" x1="148.44" y1="182.19" x2="148.44" y2="159.15" xlink:href="#linear-gradient-2"/><linearGradient id="linear-gradient-15" x1="6221.74" y1="-8902.72" x2="6221.74" y2="-8925.77" gradientTransform="translate(-4460.66 -9674.64) rotate(120)" xlink:href="#linear-gradient-2"/><linearGradient id="linear-gradient-16" x1="-4682.68" y1="-9619.9" x2="-4682.68" y2="-9642.94" gradientTransform="translate(6148.16 -8700.36) rotate(-120)" xlink:href="#linear-gradient-2"/></defs><g id="Layer_2" data-name="Layer 2"><g id="IconsNew"><g id="snow"><g id="heavy"><g id="heavySnow"><rect class="cls-1" width="187.5" height="187.5"/><path class="cls-2" d="M137.15,69.07c-1.33,0-2.66.08-4,.21a39.72,39.72,0,0,0-78.86,0c-1.31-.13-2.64-.21-4-.21a39.73,39.73,0,0,0-28.1,67.81,5,5,0,0,0,7.08-7.06,29.73,29.73,0,0,1,21-50.75,29.63,29.63,0,0,1,29.7,28.78,5,5,0,1,0,10-.3,40,40,0,0,0-25.91-36,29.72,29.72,0,0,1,59.33,2.54c0,.3,0,.6,0,.93v.15h0a5,5,0,0,0,5,5h0a4.81,4.81,0,0,0,.85-.09,1.1,1.1,0,0,0,.26-.06,2.84,2.84,0,0,0,.31-.06,29.74,29.74,0,0,1,28.26,49.87,5,5,0,1,0,7.08,7.06,39.73,39.73,0,0,0-28.1-67.81Z"/><path class="cls-3" d="M39.06,182.19a2.5,2.5,0,0,1-2.5-2.5v-18a2.5,2.5,0,0,1,5,0v18A2.5,2.5,0,0,1,39.06,182.19Z"/><path class="cls-4" d="M46.87,177.68a2.44,2.44,0,0,1-1.24-.34l-15.63-9A2.5,2.5,0,1,1,32.5,164l15.63,9a2.5,2.5,0,0,1-1.26,4.67Z"/><path class="cls-5" d="M31.25,177.68A2.5,2.5,0,0,1,30,173l15.63-9a2.5,2.5,0,0,1,2.5,4.33l-15.63,9A2.45,2.45,0,0,1,31.25,177.68Z"/><path class="cls-6" d="M62.5,166.56a2.5,2.5,0,0,1-2.5-2.5V146a2.5,2.5,0,0,1,5,0v18A2.5,2.5,0,0,1,62.5,166.56Z"/><path class="cls-7" d="M70.31,162.05a2.6,2.6,0,0,1-1.25-.33l-15.62-9a2.5,2.5,0,1,1,2.5-4.33l15.62,9a2.49,2.49,0,0,1,.92,3.41A2.52,2.52,0,0,1,70.31,162.05Z"/><path class="cls-8" d="M54.69,162.05a2.52,2.52,0,0,1-2.17-1.25,2.49,2.49,0,0,1,.92-3.41l15.62-9a2.5,2.5,0,1,1,2.5,4.33l-15.62,9A2.6,2.6,0,0,1,54.69,162.05Z"/><path class="cls-9" d="M93.75,182.19a2.5,2.5,0,0,1-2.5-2.5v-18a2.5,2.5,0,0,1,5,0v18A2.5,2.5,0,0,1,93.75,182.19Z"/><path class="cls-10" d="M101.56,177.68a2.5,2.5,0,0,1-1.25-.34l-15.62-9a2.5,2.5,0,1,1,2.5-4.33l15.62,9a2.5,2.5,0,0,1-1.25,4.67Z"/><path class="cls-11" d="M85.94,177.68A2.5,2.5,0,0,1,84.69,173l15.62-9a2.5,2.5,0,1,1,2.5,4.33l-15.62,9A2.5,2.5,0,0,1,85.94,177.68Z"/><path class="cls-12" d="M125,166.56a2.5,2.5,0,0,1-2.5-2.5V146a2.5,2.5,0,1,1,5,0v18A2.5,2.5,0,0,1,125,166.56Z"/><path class="cls-13" d="M132.81,162.05a2.6,2.6,0,0,1-1.25-.33l-15.62-9a2.5,2.5,0,1,1,2.5-4.33l15.62,9a2.49,2.49,0,0,1,.92,3.41A2.52,2.52,0,0,1,132.81,162.05Z"/><path class="cls-14" d="M117.19,162.05A2.52,2.52,0,0,1,115,160.8a2.49,2.49,0,0,1,.92-3.41l15.62-9a2.5,2.5,0,1,1,2.5,4.33l-15.62,9A2.6,2.6,0,0,1,117.19,162.05Z"/><path class="cls-15" d="M148.44,182.19a2.5,2.5,0,0,1-2.5-2.5v-18a2.5,2.5,0,0,1,5,0v18A2.5,2.5,0,0,1,148.44,182.19Z"/><path class="cls-16" d="M156.25,177.68a2.45,2.45,0,0,1-1.25-.34l-15.62-9a2.5,2.5,0,1,1,2.5-4.33l15.62,9a2.5,2.5,0,0,1-1.25,4.67Z"/><path class="cls-17" d="M140.63,177.68a2.5,2.5,0,0,1-1.25-4.67L155,164a2.5,2.5,0,1,1,2.5,4.33l-15.62,9A2.5,2.5,0,0,1,140.63,177.68Z"/></g></g></g></g></g></svg>