<svg xmlns="http://www.w3.org/2000/svg" xmlns:xlink="http://www.w3.org/1999/xlink" viewBox="0 0 187.5 187.5"><defs><style>.cls-1{fill:none;}.cls-2{fill:url(#linear-gradient);}.cls-3{fill:url(#linear-gradient-2);}.cls-4{fill:url(#linear-gradient-3);}.cls-5{fill:url(#linear-gradient-4);}.cls-6{fill:url(#linear-gradient-5);}.cls-7{fill:url(#linear-gradient-6);}.cls-8{fill:url(#linear-gradient-7);}.cls-9{fill:url(#linear-gradient-8);}.cls-10{fill:url(#linear-gradient-9);}.cls-11{fill:url(#linear-gradient-10);}.cls-12{fill:url(#linear-gradient-11);}.cls-13{fill:url(#linear-gradient-12);}.cls-14{fill:url(#linear-gradient-13);}.cls-15{fill:url(#linear-gradient-14);}</style><linearGradient id="linear-gradient" x1="56.9" y1="75.49" x2="56.9" y2="6.47" gradientUnits="userSpaceOnUse"><stop offset="0" stop-color="#ff931e"/><stop offset="1" stop-color="#ffc311"/></linearGradient><linearGradient id="linear-gradient-2" x1="97.65" y1="75.49" x2="97.65" y2="6.47" xlink:href="#linear-gradient"/><linearGradient id="linear-gradient-3" x1="12.78" y1="75.49" x2="12.78" y2="6.47" xlink:href="#linear-gradient"/><linearGradient id="linear-gradient-4" x1="27.35" y1="75.49" x2="27.35" y2="6.47" xlink:href="#linear-gradient"/><linearGradient id="linear-gradient-5" x1="62.5" y1="75.49" x2="62.5" y2="6.47" xlink:href="#linear-gradient"/><linearGradient id="linear-gradient-6" x1="93.75" y1="137.81" x2="93.75" y2="33.81" gradientUnits="userSpaceOnUse"><stop offset="0" stop-color="#333"/><stop offset="1" stop-color="#4d4d4d"/></linearGradient><linearGradient id="linear-gradient-7" x1="48.6" y1="171.88" x2="57.19" y2="171.88" gradientUnits="userSpaceOnUse"><stop offset="0" stop-color="#21a4c9"/><stop offset="1" stop-color="#4db6d4"/></linearGradient><linearGradient id="linear-gradient-8" x1="32.98" y1="164.06" x2="41.56" y2="164.06" xlink:href="#linear-gradient-7"/><linearGradient id="linear-gradient-9" x1="79.85" y1="171.88" x2="88.44" y2="171.88" xlink:href="#linear-gradient-7"/><linearGradient id="linear-gradient-10" x1="64.23" y1="164.06" x2="72.81" y2="164.06" xlink:href="#linear-gradient-7"/><linearGradient id="linear-gradient-11" x1="111.1" y1="171.88" x2="119.69" y2="171.88" xlink:href="#linear-gradient-7"/><linearGradient id="linear-gradient-12" x1="95.48" y1="164.06" x2="104.06" y2="164.06" xlink:href="#linear-gradient-7"/><linearGradient id="linear-gradient-13" x1="142.35" y1="171.88" x2="150.94" y2="171.88" xlink:href="#linear-gradient-7"/><linearGradient id="linear-gradient-14" x1="126.73" y1="164.06" x2="135.31" y2="164.06" xlink:href="#linear-gradient-7"/></defs><g id="Layer_2" data-name="Layer 2"><g id="IconsNew"><g id="rain"><g id="heavy"><g id="heavyRainShowers"><g id="heavyRainShowersDay"><rect class="cls-1" width="187.5" height="187.5"/><path class="cls-2" d="M31.77,78.91a34.82,34.82,0,0,1,54.36-42l-6.78,7.34A24.82,24.82,0,0,0,37.67,62.5a24.47,24.47,0,0,0,2.92,11.69Z"/><path class="cls-3" d="M94.14,35.86a5,5,0,0,1-3.54-8.53l7-7a5,5,0,0,1,7.08,7.08l-7,7A5,5,0,0,1,94.14,35.86Z"/><path class="cls-4" d="M17.76,67.5h-10a5,5,0,0,1,0-10h10a5,5,0,1,1,0,10Z"/><path class="cls-5" d="M30.86,35.86a5,5,0,0,1-3.53-1.46l-7-7a5,5,0,1,1,7.08-7.08l7,7a5,5,0,0,1-3.54,8.53Z"/><path class="cls-6" d="M62.5,22.76a5,5,0,0,1-5-5v-10a5,5,0,0,1,10,0v10A5,5,0,0,1,62.5,22.76Z"/><path class="cls-7" d="M137.15,68.53c-1.33,0-2.66.09-4,.22a39.72,39.72,0,0,0-78.86,0c-1.31-.13-2.64-.22-4-.22a39.73,39.73,0,0,0-28.1,67.81,5,5,0,0,0,3.54,1.47,4.94,4.94,0,0,0,3.53-1.46,5,5,0,0,0,0-7.07,29.73,29.73,0,0,1,21-50.75,30.41,30.41,0,0,1,7.45.93,29.87,29.87,0,0,1,22.25,27.86,5,5,0,0,0,10-.31A40,40,0,0,0,64.14,71a29.72,29.72,0,0,1,59.33,2.53c0,.31,0,.6,0,.94v.15h0a5.58,5.58,0,0,0,.1,1,5,5,0,0,0,4.9,4h0a6.1,6.1,0,0,0,.87-.09l.27-.06.3-.07a30.27,30.27,0,0,1,7.24-.88,29.73,29.73,0,0,1,21,50.75,5,5,0,0,0,0,7.07,4.94,4.94,0,0,0,3.53,1.46,5,5,0,0,0,3.54-1.47,39.73,39.73,0,0,0-28.1-67.81Z"/><path class="cls-8" d="M51.1,182.19a2.2,2.2,0,0,1-.56-.07,2.49,2.49,0,0,1-1.87-3l3.58-15.63a2.5,2.5,0,0,1,4.87,1.12l-3.58,15.63A2.52,2.52,0,0,1,51.1,182.19Z"/><path class="cls-9" d="M35.48,174.38a2.68,2.68,0,0,1-.56-.07,2.49,2.49,0,0,1-1.88-3l3.59-15.63a2.5,2.5,0,1,1,4.87,1.12l-3.59,15.62A2.5,2.5,0,0,1,35.48,174.38Z"/><path class="cls-10" d="M82.35,182.19a2.2,2.2,0,0,1-.56-.07,2.49,2.49,0,0,1-1.87-3L83.5,163.5a2.5,2.5,0,0,1,4.87,1.12l-3.58,15.63A2.52,2.52,0,0,1,82.35,182.19Z"/><path class="cls-11" d="M66.73,174.38a2.68,2.68,0,0,1-.56-.07,2.49,2.49,0,0,1-1.88-3l3.59-15.63a2.5,2.5,0,1,1,4.87,1.12l-3.59,15.62A2.5,2.5,0,0,1,66.73,174.38Z"/><path class="cls-12" d="M113.6,182.19a2.2,2.2,0,0,1-.56-.07,2.49,2.49,0,0,1-1.87-3l3.58-15.63a2.5,2.5,0,0,1,4.87,1.12L116,180.25A2.52,2.52,0,0,1,113.6,182.19Z"/><path class="cls-13" d="M98,174.38a2.68,2.68,0,0,1-.56-.07,2.49,2.49,0,0,1-1.88-3l3.59-15.63a2.5,2.5,0,1,1,4.87,1.12l-3.59,15.62A2.5,2.5,0,0,1,98,174.38Z"/><path class="cls-14" d="M144.85,182.19a2.2,2.2,0,0,1-.56-.07,2.49,2.49,0,0,1-1.87-3L146,163.5a2.5,2.5,0,0,1,4.87,1.12l-3.58,15.63A2.52,2.52,0,0,1,144.85,182.19Z"/><path class="cls-15" d="M129.23,174.38a2.68,2.68,0,0,1-.56-.07,2.49,2.49,0,0,1-1.88-3l3.59-15.63a2.5,2.5,0,1,1,4.87,1.12l-3.59,15.62A2.5,2.5,0,0,1,129.23,174.38Z"/></g></g></g></g></g></g></svg>