<svg xmlns="http://www.w3.org/2000/svg" xmlns:xlink="http://www.w3.org/1999/xlink" viewBox="0 0 187.5 187.5"><defs><style>.cls-1{fill:none;}.cls-2{fill:url(#linear-gradient);}.cls-3{fill:url(#linear-gradient-2);}.cls-4{fill:url(#linear-gradient-3);}.cls-5{fill:url(#linear-gradient-4);}.cls-6{fill:url(#linear-gradient-5);}.cls-7{fill:url(#linear-gradient-6);}.cls-8{fill:url(#linear-gradient-7);}.cls-9{fill:url(#linear-gradient-8);}.cls-10{fill:url(#linear-gradient-9);}</style><linearGradient id="linear-gradient" x1="93.75" y1="138.07" x2="93.75" y2="34.06" gradientUnits="userSpaceOnUse"><stop offset="0" stop-color="#333"/><stop offset="1" stop-color="#4d4d4d"/></linearGradient><linearGradient id="linear-gradient-2" x1="52.89" y1="181.58" x2="52.89" y2="156.01" gradientUnits="userSpaceOnUse"><stop offset="0" stop-color="#21a4c9"/><stop offset="1" stop-color="#4db6d4"/></linearGradient><linearGradient id="linear-gradient-3" x1="37.27" y1="181.58" x2="37.27" y2="156.01" xlink:href="#linear-gradient-2"/><linearGradient id="linear-gradient-4" x1="84.14" y1="181.58" x2="84.14" y2="156.01" xlink:href="#linear-gradient-2"/><linearGradient id="linear-gradient-5" x1="68.52" y1="181.58" x2="68.52" y2="156.01" xlink:href="#linear-gradient-2"/><linearGradient id="linear-gradient-6" x1="115.39" y1="181.58" x2="115.39" y2="156.01" xlink:href="#linear-gradient-2"/><linearGradient id="linear-gradient-7" x1="99.77" y1="181.58" x2="99.77" y2="156.01" xlink:href="#linear-gradient-2"/><linearGradient id="linear-gradient-8" x1="146.64" y1="181.58" x2="146.64" y2="156.01" xlink:href="#linear-gradient-2"/><linearGradient id="linear-gradient-9" x1="131.02" y1="181.58" x2="131.02" y2="156.01" xlink:href="#linear-gradient-2"/></defs><g id="Layer_2" data-name="Layer 2"><g id="IconsNew"><g id="rain"><g id="heavy"><g id="heavyRain"><rect class="cls-1" width="187.5" height="187.5"/><path class="cls-2" d="M137.15,68.79c-1.33,0-2.66.08-4,.21a39.72,39.72,0,0,0-78.86,0c-1.31-.13-2.64-.21-4-.21a39.73,39.73,0,0,0-28.1,67.81,5,5,0,0,0,7.08-7.07,29.72,29.72,0,0,1,21-50.74,29.63,29.63,0,0,1,29.7,28.78,5,5,0,1,0,10-.3,40,40,0,0,0-25.91-36,29.72,29.72,0,0,1,59.33,2.54c0,.3,0,.6,0,.93v.15h0a5.47,5.47,0,0,0,.1,1,5,5,0,0,0,4.9,4,5.28,5.28,0,0,0,.9-.09l.25-.06.32-.07a30.12,30.12,0,0,1,7.23-.87,29.72,29.72,0,0,1,21,50.74,5,5,0,1,0,7.08,7.07,39.73,39.73,0,0,0-28.1-67.81Z"/><path class="cls-3" d="M51.1,182.19a2.2,2.2,0,0,1-.56-.07,2.49,2.49,0,0,1-1.87-3l3.58-15.63a2.5,2.5,0,0,1,4.87,1.12l-3.58,15.63A2.52,2.52,0,0,1,51.1,182.19Z"/><path class="cls-4" d="M35.48,174.38a2.68,2.68,0,0,1-.56-.07,2.49,2.49,0,0,1-1.88-3l3.59-15.63a2.5,2.5,0,1,1,4.87,1.12l-3.59,15.62A2.5,2.5,0,0,1,35.48,174.38Z"/><path class="cls-5" d="M82.35,182.19a2.2,2.2,0,0,1-.56-.07,2.49,2.49,0,0,1-1.87-3L83.5,163.5a2.5,2.5,0,0,1,4.87,1.12l-3.58,15.63A2.52,2.52,0,0,1,82.35,182.19Z"/><path class="cls-6" d="M66.73,174.38a2.68,2.68,0,0,1-.56-.07,2.49,2.49,0,0,1-1.88-3l3.59-15.63a2.5,2.5,0,1,1,4.87,1.12l-3.59,15.62A2.5,2.5,0,0,1,66.73,174.38Z"/><path class="cls-7" d="M113.6,182.19a2.2,2.2,0,0,1-.56-.07,2.49,2.49,0,0,1-1.87-3l3.58-15.63a2.5,2.5,0,0,1,4.87,1.12L116,180.25A2.52,2.52,0,0,1,113.6,182.19Z"/><path class="cls-8" d="M98,174.38a2.68,2.68,0,0,1-.56-.07,2.49,2.49,0,0,1-1.88-3l3.59-15.63a2.5,2.5,0,1,1,4.87,1.12l-3.59,15.62A2.5,2.5,0,0,1,98,174.38Z"/><path class="cls-9" d="M144.85,182.19a2.2,2.2,0,0,1-.56-.07,2.49,2.49,0,0,1-1.87-3L146,163.5a2.5,2.5,0,0,1,4.87,1.12l-3.58,15.63A2.52,2.52,0,0,1,144.85,182.19Z"/><path class="cls-10" d="M129.23,174.38a2.68,2.68,0,0,1-.56-.07,2.49,2.49,0,0,1-1.88-3l3.59-15.63a2.5,2.5,0,1,1,4.87,1.12l-3.59,15.62A2.5,2.5,0,0,1,129.23,174.38Z"/></g></g></g></g></g></svg>