<svg xmlns="http://www.w3.org/2000/svg" xmlns:xlink="http://www.w3.org/1999/xlink" viewBox="0 0 187.5 187.5"><defs><style>.cls-1{fill:none;}.cls-2{fill:url(#linear-gradient);}.cls-3{fill:url(#linear-gradient-2);}.cls-4{fill:url(#linear-gradient-3);}.cls-5{fill:url(#linear-gradient-4);}.cls-6{fill:url(#linear-gradient-5);}</style><linearGradient id="linear-gradient" x1="140.88" y1="85.76" x2="140.88" y2="2.81" gradientUnits="userSpaceOnUse"><stop offset="0" stop-color="#333"/><stop offset="1" stop-color="#4d4d4d"/></linearGradient><linearGradient id="linear-gradient-2" x1="93.75" y1="138.07" x2="93.75" y2="34.06" xlink:href="#linear-gradient"/><linearGradient id="linear-gradient-3" x1="60" y1="164.06" x2="68.59" y2="164.06" gradientUnits="userSpaceOnUse"><stop offset="0" stop-color="#21a4c9"/><stop offset="1" stop-color="#4db6d4"/></linearGradient><linearGradient id="linear-gradient-4" x1="118.91" y1="156.25" x2="127.5" y2="156.25" xlink:href="#linear-gradient-3"/><linearGradient id="linear-gradient-5" x1="93.75" y1="175" x2="93.75" y2="114.67" gradientUnits="userSpaceOnUse"><stop offset="0" stop-color="#ff931e"/><stop offset="1" stop-color="#ffc311"/></linearGradient></defs><g id="Layer_2" data-name="Layer 2"><g id="IconsNew"><g id="rain"><g id="light"><g id="lightRainShowersAndThunder"><g id="lightRainShowersAndThunderNight"><rect class="cls-1" width="187.5" height="187.5"/><path class="cls-2" d="M161.09,85.76l-4.66-8.85A34.27,34.27,0,0,0,173.3,56.19a36.78,36.78,0,0,1-42.58-36.26,37.15,37.15,0,0,1,.47-5.89,33.85,33.85,0,0,0-24.13,26.89l-9.86-1.7A43.86,43.86,0,0,1,137.81,2.82a5,5,0,0,1,4.93,6.91,26.44,26.44,0,0,0-2,10.2,26.75,26.75,0,0,0,36.92,24.71,5,5,0,0,1,6.91,4.93A44.31,44.31,0,0,1,161.09,85.76Z"/><path class="cls-3" d="M137.15,68.79c-1.33,0-2.66.08-4,.21a39.72,39.72,0,0,0-78.86,0c-1.31-.13-2.64-.21-4-.21a39.73,39.73,0,0,0-28.1,67.81,5,5,0,0,0,7.08-7.06,29.73,29.73,0,0,1,21-50.75,29.63,29.63,0,0,1,29.7,28.79,5,5,0,0,0,10-.31,40,40,0,0,0-25.91-36,29.72,29.72,0,0,1,59.33,2.54c0,.28,0,.55,0,.83v.26h0a5.67,5.67,0,0,0,.1,1,5,5,0,0,0,4.9,4h0a4.14,4.14,0,0,0,.87-.09l.26-.05.32-.07a29.73,29.73,0,0,1,28.25,49.87,5,5,0,1,0,7.08,7.06,39.73,39.73,0,0,0-28.1-67.81Z"/><path class="cls-4" d="M62.5,174.38a2.77,2.77,0,0,1-.56-.07,2.49,2.49,0,0,1-1.88-3l3.59-15.63a2.5,2.5,0,1,1,4.87,1.12l-3.58,15.62A2.52,2.52,0,0,1,62.5,174.38Z"/><path class="cls-5" d="M121.42,166.56a2.76,2.76,0,0,1-.57-.06,2.5,2.5,0,0,1-1.87-3l3.58-15.62a2.5,2.5,0,0,1,4.88,1.12l-3.59,15.62A2.5,2.5,0,0,1,121.42,166.56Z"/><path class="cls-6" d="M89.84,174.38a2.67,2.67,0,0,1-.55-.07,2.49,2.49,0,0,1-2-2.43V152.5H82a2.51,2.51,0,0,1-2.26-3.57L95.4,116.11a2.5,2.5,0,0,1,4.76,1.08v19.37h5.31a2.49,2.49,0,0,1,2.11,1.17,2.52,2.52,0,0,1,.15,2.41L92.1,173A2.51,2.51,0,0,1,89.84,174.38ZM86,147.5h3.85a2.5,2.5,0,0,1,2.5,2.5v10.81l9.17-19.25H97.66a2.5,2.5,0,0,1-2.5-2.5V128.25Z"/></g></g></g></g></g></g></svg>