<svg xmlns="http://www.w3.org/2000/svg" xmlns:xlink="http://www.w3.org/1999/xlink" viewBox="0 0 187.5 187.5"><defs><style>.cls-1{fill:none;}.cls-2{fill:url(#linear-gradient);}.cls-3{fill:url(#linear-gradient-2);}.cls-4{fill:url(#linear-gradient-3);}.cls-5{fill:url(#linear-gradient-4);}.cls-6{fill:url(#linear-gradient-5);}.cls-7{fill:url(#linear-gradient-6);}</style><linearGradient id="linear-gradient" x1="141.01" y1="85.5" x2="141.01" y2="2.56" gradientUnits="userSpaceOnUse"><stop offset="0" stop-color="#333"/><stop offset="1" stop-color="#4d4d4d"/></linearGradient><linearGradient id="linear-gradient-2" x1="93.88" y1="137.81" x2="93.88" y2="33.81" xlink:href="#linear-gradient"/><linearGradient id="linear-gradient-3" x1="126.79" y1="166.46" x2="126.79" y2="146.52" gradientUnits="userSpaceOnUse"><stop offset="0" stop-color="#21a4c9"/><stop offset="1" stop-color="#4db6d4"/></linearGradient><linearGradient id="linear-gradient-4" x1="62.5" y1="182.19" x2="62.5" y2="159.15" gradientUnits="userSpaceOnUse"><stop offset="0" stop-color="#29cefc"/><stop offset="1" stop-color="#7fe2fd"/></linearGradient><linearGradient id="linear-gradient-5" x1="7188.75" y1="-11294.81" x2="7188.75" y2="-11317.85" gradientTransform="translate(-6134.69 -11708.13) rotate(120)" xlink:href="#linear-gradient-4"/><linearGradient id="linear-gradient-6" x1="-6313.75" y1="-11727.82" x2="-6313.75" y2="-11750.86" gradientTransform="translate(7072.19 -11166.87) rotate(-120)" xlink:href="#linear-gradient-4"/></defs><g id="Layer_2" data-name="Layer 2"><g id="IconsNew"><g id="sleet"><g id="light"><g id="lightSleetShowers"><g id="lightSleetShowersNight"><rect class="cls-1" width="187.5" height="187.5"/><path class="cls-2" d="M161.22,85.5l-4.66-8.85a34.3,34.3,0,0,0,16.87-20.72,36.72,36.72,0,0,1-42.58-36.25,36,36,0,0,1,.47-5.89,33.86,33.86,0,0,0-24.14,26.89L97.33,39a43.85,43.85,0,0,1,40.6-36.4,5,5,0,0,1,4.93,6.9A26.76,26.76,0,0,0,167.57,46.4a26.4,26.4,0,0,0,10.2-2,5,5,0,0,1,6.91,4.93A44.3,44.3,0,0,1,161.22,85.5Z"/><path class="cls-3" d="M137.28,68.53c-1.33,0-2.66.09-4,.22a39.71,39.71,0,0,0-78.85,0c-1.32-.13-2.64-.22-4-.22a39.73,39.73,0,0,0-28.1,67.81,5,5,0,0,0,3.54,1.47,4.94,4.94,0,0,0,3.53-1.46,5,5,0,0,0,0-7.07,29.73,29.73,0,0,1,21-50.75,30.27,30.27,0,0,1,7.44.93,29.87,29.87,0,0,1,22.26,27.86,5,5,0,0,0,5,4.85h.16A5,5,0,0,0,90.17,107a39.94,39.94,0,0,0-25.9-36,29.72,29.72,0,0,1,59.33,2.53c0,.31,0,.61,0,.94v.15h0a5,5,0,0,0,5,5,5.16,5.16,0,0,0,.89-.09l.27-.06.31-.07a30.13,30.13,0,0,1,7.23-.88,29.73,29.73,0,0,1,21,50.75,5,5,0,1,0,7.08,7.06,39.73,39.73,0,0,0-28.1-67.81Z"/><path class="cls-4" d="M125,166.56a2.74,2.74,0,0,1-.56-.06,2.5,2.5,0,0,1-1.88-3l3.59-15.62A2.5,2.5,0,1,1,131,149l-3.58,15.62A2.51,2.51,0,0,1,125,166.56Z"/><path class="cls-5" d="M62.5,182.19a2.5,2.5,0,0,1-2.5-2.5v-18a2.5,2.5,0,0,1,5,0v18A2.5,2.5,0,0,1,62.5,182.19Z"/><path class="cls-6" d="M70.31,177.68a2.5,2.5,0,0,1-1.25-.34l-15.62-9a2.5,2.5,0,1,1,2.5-4.33l15.62,9a2.5,2.5,0,0,1-1.25,4.67Z"/><path class="cls-7" d="M54.69,177.68A2.5,2.5,0,0,1,53.44,173l15.62-9a2.5,2.5,0,1,1,2.5,4.33l-15.62,9A2.5,2.5,0,0,1,54.69,177.68Z"/></g></g></g></g></g></g></svg>