<svg xmlns="http://www.w3.org/2000/svg" xmlns:xlink="http://www.w3.org/1999/xlink" viewBox="0 0 187.5 187.5"><defs><style>.cls-1{fill:none;}.cls-2{fill:url(#linear-gradient);}.cls-3{fill:url(#linear-gradient-2);}.cls-4{fill:url(#linear-gradient-3);}.cls-5{fill:url(#linear-gradient-4);}.cls-6{fill:url(#linear-gradient-5);}.cls-7{fill:url(#linear-gradient-6);}.cls-8{fill:url(#linear-gradient-7);}.cls-9{fill:url(#linear-gradient-8);}.cls-10{fill:url(#linear-gradient-9);}</style><linearGradient id="linear-gradient" x1="56.9" y1="78.12" x2="56.9" y2="7.74" gradientUnits="userSpaceOnUse"><stop offset="0" stop-color="#ff931e"/><stop offset="1" stop-color="#ffc311"/></linearGradient><linearGradient id="linear-gradient-2" x1="97.65" y1="78.12" x2="97.65" y2="7.74" xlink:href="#linear-gradient"/><linearGradient id="linear-gradient-3" x1="12.78" y1="78.12" x2="12.78" y2="7.74" xlink:href="#linear-gradient"/><linearGradient id="linear-gradient-4" x1="27.35" y1="78.12" x2="27.35" y2="7.74" xlink:href="#linear-gradient"/><linearGradient id="linear-gradient-5" x1="62.5" y1="78.12" x2="62.5" y2="7.74" xlink:href="#linear-gradient"/><linearGradient id="linear-gradient-6" x1="93.75" y1="138.07" x2="93.75" y2="34.06" gradientUnits="userSpaceOnUse"><stop offset="0" stop-color="#333"/><stop offset="1" stop-color="#4d4d4d"/></linearGradient><linearGradient id="linear-gradient-7" x1="60" y1="164.06" x2="68.59" y2="164.06" gradientUnits="userSpaceOnUse"><stop offset="0" stop-color="#21a4c9"/><stop offset="1" stop-color="#4db6d4"/></linearGradient><linearGradient id="linear-gradient-8" x1="118.91" y1="156.25" x2="127.5" y2="156.25" xlink:href="#linear-gradient-7"/><linearGradient id="linear-gradient-9" x1="93.75" y1="174.56" x2="93.75" y2="114.87" xlink:href="#linear-gradient"/></defs><g id="Layer_2" data-name="Layer 2"><g id="IconsNew"><g id="rain"><g id="light"><g id="lightRainShowersAndThunder"><g id="lightRainShowersAndThunderDay"><rect class="cls-1" width="187.5" height="187.5"/><path class="cls-2" d="M31.77,79.16a34.83,34.83,0,0,1,54.37-42l-6.79,7.34A24.82,24.82,0,0,0,37.67,62.75a24.54,24.54,0,0,0,2.92,11.7Z"/><path class="cls-3" d="M94.14,36.11a5,5,0,0,1-3.54-8.53l7-7a5,5,0,0,1,7.08,7.07l-7,7A4.94,4.94,0,0,1,94.14,36.11Z"/><path class="cls-4" d="M17.76,67.75h-10a5,5,0,0,1,0-10h10a5,5,0,1,1,0,10Z"/><path class="cls-5" d="M30.86,36.11a4.94,4.94,0,0,1-3.53-1.46l-7-7a5,5,0,0,1,7.08-7.07l7,7a5,5,0,0,1-3.54,8.53Z"/><path class="cls-6" d="M62.5,23a5,5,0,0,1-5-5V8.07a5,5,0,1,1,10,0V18A5,5,0,0,1,62.5,23Z"/><path class="cls-7" d="M137.15,68.79c-1.33,0-2.66.08-4,.21a39.72,39.72,0,0,0-78.86,0c-1.31-.13-2.64-.21-4-.21a39.73,39.73,0,0,0-28.1,67.81,5,5,0,0,0,7.08-7.07,29.72,29.72,0,0,1,21-50.74,29.63,29.63,0,0,1,29.7,28.78,5,5,0,1,0,10-.3,40,40,0,0,0-25.91-36,29.72,29.72,0,0,1,59.33,2.54c0,.3,0,.6,0,.93v.15h0a5.47,5.47,0,0,0,.1,1,5,5,0,0,0,4.9,4,5.28,5.28,0,0,0,.9-.09l.25-.06.32-.07a30.12,30.12,0,0,1,7.23-.87,29.72,29.72,0,0,1,21,50.74,5,5,0,1,0,7.08,7.07,39.73,39.73,0,0,0-28.1-67.81Z"/><path class="cls-8" d="M62.5,174.38a2.77,2.77,0,0,1-.56-.07,2.5,2.5,0,0,1-1.88-3l3.59-15.63a2.5,2.5,0,1,1,4.87,1.12l-3.58,15.62A2.52,2.52,0,0,1,62.5,174.38Z"/><path class="cls-9" d="M121.42,166.56a2.76,2.76,0,0,1-.57-.06,2.5,2.5,0,0,1-1.87-3l3.58-15.62a2.5,2.5,0,0,1,4.88,1.12l-3.59,15.62A2.5,2.5,0,0,1,121.42,166.56Z"/><path class="cls-10" d="M89.84,174.38a2.67,2.67,0,0,1-.55-.07,2.49,2.49,0,0,1-2-2.43V152.5H82a2.51,2.51,0,0,1-2.26-3.57L95.4,116.11a2.5,2.5,0,0,1,4.76,1.08v19.37h5.31a2.49,2.49,0,0,1,2.11,1.17,2.52,2.52,0,0,1,.15,2.41L92.1,173A2.51,2.51,0,0,1,89.84,174.38ZM86,147.5h3.85a2.5,2.5,0,0,1,2.5,2.5v10.81l9.17-19.25H97.66a2.5,2.5,0,0,1-2.5-2.5V128.25Z"/></g></g></g></g></g></g></svg>