<svg xmlns="http://www.w3.org/2000/svg" xmlns:xlink="http://www.w3.org/1999/xlink" viewBox="0 0 187.5 187.5"><defs><style>.cls-1{fill:none;}.cls-2{fill:url(#linear-gradient);}.cls-3{fill:url(#linear-gradient-2);}.cls-4{fill:url(#linear-gradient-3);}.cls-5{fill:url(#linear-gradient-4);}.cls-6{fill:url(#linear-gradient-5);}.cls-7{fill:url(#linear-gradient-6);}.cls-8{fill:url(#linear-gradient-7);}.cls-9{fill:url(#linear-gradient-8);}</style><linearGradient id="linear-gradient" x1="93.75" y1="138.07" x2="93.75" y2="34.06" gradientUnits="userSpaceOnUse"><stop offset="0" stop-color="#333"/><stop offset="1" stop-color="#4d4d4d"/></linearGradient><linearGradient id="linear-gradient-2" x1="62.5" y1="174.38" x2="62.5" y2="151.33" gradientUnits="userSpaceOnUse"><stop offset="0" stop-color="#29cefc"/><stop offset="1" stop-color="#7fe2fd"/></linearGradient><linearGradient id="linear-gradient-3" x1="4742.4" y1="-6199.39" x2="4742.4" y2="-6222.44" gradientTransform="translate(-2945.11 -7049.64) rotate(120)" xlink:href="#linear-gradient-2"/><linearGradient id="linear-gradient-4" x1="-3117.4" y1="-7065.42" x2="-3117.4" y2="-7088.46" gradientTransform="translate(4632.61 -6075.36) rotate(-120)" xlink:href="#linear-gradient-2"/><linearGradient id="linear-gradient-5" x1="125" y1="166.56" x2="125" y2="143.52" xlink:href="#linear-gradient-2"/><linearGradient id="linear-gradient-6" x1="4704.38" y1="-6249.61" x2="4704.38" y2="-6272.66" gradientTransform="translate(-2945.11 -7049.64) rotate(120)" xlink:href="#linear-gradient-2"/><linearGradient id="linear-gradient-7" x1="-3141.88" y1="-7007.39" x2="-3141.88" y2="-7030.43" gradientTransform="translate(4632.61 -6075.36) rotate(-120)" xlink:href="#linear-gradient-2"/><linearGradient id="linear-gradient-8" x1="93.75" y1="180.68" x2="93.75" y2="123.42" gradientUnits="userSpaceOnUse"><stop offset="0" stop-color="#ff931e"/><stop offset="1" stop-color="#ffc311"/></linearGradient></defs><g id="Layer_2" data-name="Layer 2"><g id="IconsNew"><g id="snow"><g id="light"><g id="lightSnowAndThunder"><rect class="cls-1" width="187.5" height="187.5"/><path class="cls-2" d="M137.15,68.79c-1.33,0-2.66.08-4,.21a39.72,39.72,0,0,0-78.86,0c-1.31-.13-2.64-.21-4-.21a39.73,39.73,0,0,0-28.1,67.81,5,5,0,0,0,7.08-7.07,29.72,29.72,0,0,1,21-50.74,29.63,29.63,0,0,1,29.7,28.78,5,5,0,1,0,10-.3,40,40,0,0,0-25.91-36,29.72,29.72,0,0,1,59.33,2.54c0,.3,0,.59,0,.93v.15h0a5,5,0,0,0,5,5h0a4.81,4.81,0,0,0,.85-.09,2,2,0,0,0,.26-.06l.31-.07a30.27,30.27,0,0,1,7.24-.87,29.72,29.72,0,0,1,21,50.74,5,5,0,1,0,7.08,7.07,39.73,39.73,0,0,0-28.1-67.81Z"/><path class="cls-3" d="M62.5,174.38a2.5,2.5,0,0,1-2.5-2.5v-18a2.5,2.5,0,0,1,5,0v18A2.5,2.5,0,0,1,62.5,174.38Z"/><path class="cls-4" d="M70.31,169.86a2.49,2.49,0,0,1-1.25-.33l-15.62-9a2.5,2.5,0,1,1,2.5-4.33l15.62,9a2.5,2.5,0,0,1-1.25,4.66Z"/><path class="cls-5" d="M54.69,169.86a2.5,2.5,0,0,1-1.25-4.66l15.62-9a2.5,2.5,0,1,1,2.5,4.33l-15.62,9A2.49,2.49,0,0,1,54.69,169.86Z"/><path class="cls-6" d="M125,166.56a2.5,2.5,0,0,1-2.5-2.5V146a2.5,2.5,0,1,1,5,0v18A2.5,2.5,0,0,1,125,166.56Z"/><path class="cls-7" d="M132.81,162.05a2.6,2.6,0,0,1-1.25-.33l-15.62-9a2.5,2.5,0,1,1,2.5-4.33l15.62,9a2.49,2.49,0,0,1,.92,3.41A2.52,2.52,0,0,1,132.81,162.05Z"/><path class="cls-8" d="M117.19,162.05A2.52,2.52,0,0,1,115,160.8a2.49,2.49,0,0,1,.92-3.41l15.62-9a2.5,2.5,0,1,1,2.5,4.33l-15.62,9A2.6,2.6,0,0,1,117.19,162.05Z"/><path class="cls-9" d="M89.84,182.19a2.64,2.64,0,0,1-.55-.06,2.5,2.5,0,0,1-2-2.44V160.31H82a2.5,2.5,0,0,1-2.26-3.57L95.4,123.92a2.5,2.5,0,0,1,4.76,1.08v19.38h5.31a2.48,2.48,0,0,1,2.11,1.16,2.52,2.52,0,0,1,.15,2.41L92.1,180.76A2.5,2.5,0,0,1,89.84,182.19ZM86,155.31h3.85a2.5,2.5,0,0,1,2.5,2.5v10.81l9.17-19.24H97.66a2.5,2.5,0,0,1-2.5-2.5V136.06Z"/></g></g></g></g></g></svg>