<svg xmlns="http://www.w3.org/2000/svg" xmlns:xlink="http://www.w3.org/1999/xlink" viewBox="0 0 187.5 187.5"><defs><style>.cls-1{fill:none;}.cls-2{fill:url(#linear-gradient);}.cls-3{fill:url(#linear-gradient-2);}.cls-4{fill:url(#linear-gradient-3);}.cls-5{fill:url(#linear-gradient-4);}.cls-6{fill:url(#linear-gradient-5);}.cls-7{fill:url(#linear-gradient-6);}.cls-8{fill:url(#linear-gradient-7);}.cls-9{fill:url(#linear-gradient-8);}.cls-10{fill:url(#linear-gradient-9);}.cls-11{fill:url(#linear-gradient-10);}</style><linearGradient id="linear-gradient" x1="56.9" y1="72.9" x2="56.9" y2="6.11" gradientUnits="userSpaceOnUse"><stop offset="0" stop-color="#ff931e"/><stop offset="1" stop-color="#ffc311"/></linearGradient><linearGradient id="linear-gradient-2" x1="97.65" y1="72.9" x2="97.65" y2="6.11" xlink:href="#linear-gradient"/><linearGradient id="linear-gradient-3" x1="12.78" y1="72.9" x2="12.78" y2="6.11" xlink:href="#linear-gradient"/><linearGradient id="linear-gradient-4" x1="27.35" y1="72.9" x2="27.35" y2="6.11" xlink:href="#linear-gradient"/><linearGradient id="linear-gradient-5" x1="62.5" y1="72.9" x2="62.5" y2="6.11" xlink:href="#linear-gradient"/><linearGradient id="linear-gradient-6" x1="93.75" y1="137.81" x2="93.75" y2="33.81" gradientUnits="userSpaceOnUse"><stop offset="0" stop-color="#333"/><stop offset="1" stop-color="#4d4d4d"/></linearGradient><linearGradient id="linear-gradient-7" x1="64.29" y1="181.23" x2="64.29" y2="147.77" gradientUnits="userSpaceOnUse"><stop offset="0" stop-color="#21a4c9"/><stop offset="1" stop-color="#4db6d4"/></linearGradient><linearGradient id="linear-gradient-8" x1="131.02" y1="181.23" x2="131.02" y2="147.77" xlink:href="#linear-gradient-7"/><linearGradient id="linear-gradient-9" x1="107.58" y1="181.23" x2="107.58" y2="147.77" xlink:href="#linear-gradient-7"/><linearGradient id="linear-gradient-10" x1="93.75" y1="173.97" x2="93.75" y2="119" xlink:href="#linear-gradient"/></defs><g id="Layer_2" data-name="Layer 2"><g id="IconsNew"><g id="rain"><g id="normal"><g id="rainShowersAndThunder"><g id="rainShowersAndThunderDay"><rect class="cls-1" width="187.5" height="187.5"/><path class="cls-2" d="M31.77,78.91a34.82,34.82,0,0,1,54.36-42l-6.79,7.34A24.83,24.83,0,0,0,40.59,74.19Z"/><path class="cls-3" d="M94.14,35.86a5,5,0,0,1-3.54-8.53l7-7a5,5,0,0,1,7.08,7.08l-7,7A5,5,0,0,1,94.14,35.86Z"/><path class="cls-4" d="M17.76,67.5h-10a5,5,0,0,1,0-10h10a5,5,0,1,1,0,10Z"/><path class="cls-5" d="M30.86,35.86a5,5,0,0,1-3.53-1.46l-7-7a5,5,0,1,1,7.08-7.08l7,7a5,5,0,0,1-3.54,8.53Z"/><path class="cls-6" d="M62.5,22.76a5,5,0,0,1-5-5v-10a5,5,0,0,1,10,0v10A5,5,0,0,1,62.5,22.76Z"/><path class="cls-7" d="M137.15,68.53c-1.33,0-2.66.09-4,.22a39.72,39.72,0,0,0-78.86,0c-1.31-.13-2.64-.22-4-.22a39.73,39.73,0,0,0-28.1,67.81,5,5,0,0,0,3.54,1.47,4.94,4.94,0,0,0,3.53-1.46,5,5,0,0,0,0-7.07,29.73,29.73,0,0,1,21-50.75,30.41,30.41,0,0,1,7.45.93,29.87,29.87,0,0,1,22.25,27.86,5,5,0,0,0,10-.31A40,40,0,0,0,64.14,71a29.72,29.72,0,0,1,59.33,2.53c0,.31,0,.6,0,.94v.15h0a5.58,5.58,0,0,0,.1,1,5,5,0,0,0,4.9,4h0a6.1,6.1,0,0,0,.87-.09l.27-.06.3-.07a30.27,30.27,0,0,1,7.24-.88,29.73,29.73,0,0,1,21,50.75,5,5,0,0,0,0,7.07,4.94,4.94,0,0,0,3.53,1.46,5,5,0,0,0,3.54-1.47,39.73,39.73,0,0,0-28.1-67.81Z"/><path class="cls-8" d="M62.5,174.38a2.77,2.77,0,0,1-.56-.07,2.5,2.5,0,0,1-1.88-3l3.59-15.63a2.5,2.5,0,1,1,4.87,1.12l-3.58,15.62A2.52,2.52,0,0,1,62.5,174.38Z"/><path class="cls-9" d="M129.23,166.56a2.67,2.67,0,0,1-.56-.06,2.5,2.5,0,0,1-1.88-3l3.59-15.62a2.5,2.5,0,1,1,4.87,1.12l-3.59,15.62A2.49,2.49,0,0,1,129.23,166.56Z"/><path class="cls-10" d="M105.79,182.19a2.2,2.2,0,0,1-.56-.07,2.49,2.49,0,0,1-1.88-3l3.59-15.63a2.5,2.5,0,0,1,4.87,1.12l-3.58,15.63A2.52,2.52,0,0,1,105.79,182.19Z"/><path class="cls-11" d="M89.84,174.38a2.67,2.67,0,0,1-.55-.07,2.49,2.49,0,0,1-2-2.43V152.5H82a2.51,2.51,0,0,1-2.26-3.57L95.4,116.11a2.5,2.5,0,0,1,4.76,1.08v19.37h5.31a2.49,2.49,0,0,1,2.11,1.17,2.52,2.52,0,0,1,.15,2.41L92.1,173A2.51,2.51,0,0,1,89.84,174.38ZM86,147.5h3.85a2.5,2.5,0,0,1,2.5,2.5v10.81l9.17-19.25H97.66a2.5,2.5,0,0,1-2.5-2.5V128.25Z"/></g></g></g></g></g></g></svg>