<svg xmlns="http://www.w3.org/2000/svg" xmlns:xlink="http://www.w3.org/1999/xlink" viewBox="0 0 187.5 187.5"><defs><style>.cls-1{fill:none;}.cls-2{fill:url(#linear-gradient);}.cls-3{fill:url(#linear-gradient-2);}.cls-4{fill:url(#linear-gradient-3);}.cls-5{fill:url(#linear-gradient-4);}</style><linearGradient id="linear-gradient" x1="93.75" y1="138.07" x2="93.75" y2="34.06" gradientUnits="userSpaceOnUse"><stop offset="0" stop-color="#333"/><stop offset="1" stop-color="#4d4d4d"/></linearGradient><linearGradient id="linear-gradient-2" x1="64.29" y1="179.53" x2="64.29" y2="150.43" gradientUnits="userSpaceOnUse"><stop offset="0" stop-color="#21a4c9"/><stop offset="1" stop-color="#4db6d4"/></linearGradient><linearGradient id="linear-gradient-3" x1="123.21" y1="179.53" x2="123.21" y2="150.43" xlink:href="#linear-gradient-2"/><linearGradient id="linear-gradient-4" x1="95.54" y1="179.53" x2="95.54" y2="150.43" xlink:href="#linear-gradient-2"/></defs><g id="Layer_2" data-name="Layer 2"><g id="IconsNew"><g id="rain"><g id="normal"><g id="rain-2" data-name="rain"><rect class="cls-1" width="187.5" height="187.5"/><path class="cls-2" d="M137.15,68.79c-1.33,0-2.66.08-4,.21a39.72,39.72,0,0,0-78.86,0c-1.31-.13-2.64-.21-4-.21a39.73,39.73,0,0,0-28.1,67.81,5,5,0,0,0,7.08-7.07,29.72,29.72,0,0,1,21-50.74,29.63,29.63,0,0,1,29.7,28.78,5,5,0,1,0,10-.3,40,40,0,0,0-25.91-36,29.72,29.72,0,0,1,59.33,2.54c0,.3,0,.6,0,.93v.15h0a5.47,5.47,0,0,0,.1,1,5,5,0,0,0,4.9,4,5.28,5.28,0,0,0,.9-.09l.25-.06.32-.07a30.12,30.12,0,0,1,7.23-.87,29.72,29.72,0,0,1,21,50.74,5,5,0,1,0,7.08,7.07,39.73,39.73,0,0,0-28.1-67.81Z"/><path class="cls-3" d="M62.5,174.38a2.77,2.77,0,0,1-.56-.07,2.5,2.5,0,0,1-1.88-3l3.59-15.63a2.5,2.5,0,1,1,4.87,1.12l-3.58,15.62A2.52,2.52,0,0,1,62.5,174.38Z"/><path class="cls-4" d="M121.42,166.56a2.76,2.76,0,0,1-.57-.06,2.5,2.5,0,0,1-1.87-3l3.58-15.62a2.5,2.5,0,0,1,4.88,1.12l-3.59,15.62A2.5,2.5,0,0,1,121.42,166.56Z"/><path class="cls-5" d="M93.75,182.19a2.2,2.2,0,0,1-.56-.07,2.5,2.5,0,0,1-1.88-3L94.9,163.5a2.5,2.5,0,0,1,4.87,1.12l-3.58,15.63A2.52,2.52,0,0,1,93.75,182.19Z"/></g></g></g></g></g></svg>