<svg xmlns="http://www.w3.org/2000/svg" xmlns:xlink="http://www.w3.org/1999/xlink" viewBox="0 0 187.5 187.5"><defs><style>.cls-1,.cls-3,.cls-4,.cls-5{fill:none;}.cls-2{fill:url(#linear-gradient);}.cls-3,.cls-4,.cls-5{stroke-linecap:round;stroke-miterlimit:10;stroke-width:5px;}.cls-3{stroke:url(#linear-gradient-2);}.cls-4{stroke:url(#linear-gradient-3);}.cls-5{stroke:url(#linear-gradient-4);}.cls-6{fill:url(#linear-gradient-5);}</style><linearGradient id="linear-gradient" x1="93.75" y1="137.81" x2="93.75" y2="33.81" gradientUnits="userSpaceOnUse"><stop offset="0" stop-color="#333"/><stop offset="1" stop-color="#4d4d4d"/></linearGradient><linearGradient id="linear-gradient-2" x1="60" y1="164.06" x2="68.59" y2="164.06" gradientUnits="userSpaceOnUse"><stop offset="0" stop-color="#21a4c9"/><stop offset="1" stop-color="#4db6d4"/></linearGradient><linearGradient id="linear-gradient-3" x1="126.73" y1="156.25" x2="135.31" y2="156.25" xlink:href="#linear-gradient-2"/><linearGradient id="linear-gradient-4" x1="103.29" y1="171.88" x2="111.88" y2="171.88" xlink:href="#linear-gradient-2"/><linearGradient id="linear-gradient-5" x1="93.75" y1="174.38" x2="93.75" y2="116.26" gradientUnits="userSpaceOnUse"><stop offset="0" stop-color="#ff931e"/><stop offset="1" stop-color="#ffc311"/></linearGradient></defs><g id="Layer_2" data-name="Layer 2"><g id="IconsNew"><g id="rain"><g id="normal"><g id="rainAndThunder"><rect class="cls-1" width="187.5" height="187.5"/><path class="cls-2" d="M137.15,68.53c-1.33,0-2.66.09-4,.22a39.72,39.72,0,0,0-78.86,0c-1.31-.13-2.64-.22-4-.22a39.73,39.73,0,0,0-28.1,67.81,5,5,0,0,0,3.54,1.47,4.94,4.94,0,0,0,3.53-1.46,5,5,0,0,0,0-7.07,29.73,29.73,0,0,1,21-50.75,30.41,30.41,0,0,1,7.45.93,29.87,29.87,0,0,1,22.25,27.86,5,5,0,0,0,10-.31A40,40,0,0,0,64.14,71a29.72,29.72,0,0,1,59.33,2.53c0,.31,0,.6,0,.94v.15h0a5.58,5.58,0,0,0,.1,1,5,5,0,0,0,4.9,4h0a6.1,6.1,0,0,0,.87-.09l.27-.06.3-.07a30.27,30.27,0,0,1,7.24-.88,29.73,29.73,0,0,1,21,50.75,5,5,0,0,0,0,7.07,4.94,4.94,0,0,0,3.53,1.46,5,5,0,0,0,3.54-1.47,39.73,39.73,0,0,0-28.1-67.81Z"/><line class="cls-3" x1="62.5" y1="171.88" x2="66.09" y2="156.25"/><line class="cls-4" x1="129.23" y1="164.06" x2="132.81" y2="148.44"/><line class="cls-5" x1="105.79" y1="179.69" x2="109.38" y2="164.06"/><path class="cls-6" d="M89.84,174.38a2.67,2.67,0,0,1-.55-.07,2.49,2.49,0,0,1-2-2.43V152.5H82a2.51,2.51,0,0,1-2.26-3.57L95.4,116.11a2.5,2.5,0,0,1,4.76,1.08v19.37h5.31a2.49,2.49,0,0,1,2.11,1.17,2.52,2.52,0,0,1,.15,2.41L92.1,173A2.51,2.51,0,0,1,89.84,174.38ZM86,147.5h3.85a2.5,2.5,0,0,1,2.5,2.5v10.81l9.17-19.25H97.66a2.5,2.5,0,0,1-2.5-2.5V128.25Z"/></g></g></g></g></g></svg>