<svg xmlns="http://www.w3.org/2000/svg" xmlns:xlink="http://www.w3.org/1999/xlink" viewBox="0 0 187.5 187.5"><defs><style>.cls-1{fill:none;}.cls-2{fill:url(#linear-gradient);}.cls-3{fill:url(#linear-gradient-2);}.cls-4{fill:url(#linear-gradient-3);}.cls-5{fill:url(#linear-gradient-4);}.cls-6{fill:url(#linear-gradient-5);}.cls-7{fill:url(#linear-gradient-6);}.cls-8{fill:url(#linear-gradient-7);}.cls-9{fill:url(#linear-gradient-8);}</style><linearGradient id="linear-gradient" x1="141.01" y1="85.76" x2="141.01" y2="2.81" gradientUnits="userSpaceOnUse"><stop offset="0" stop-color="#333"/><stop offset="1" stop-color="#4d4d4d"/></linearGradient><linearGradient id="linear-gradient-2" x1="93.88" y1="138.07" x2="93.88" y2="34.07" xlink:href="#linear-gradient"/><linearGradient id="linear-gradient-3" x1="142.42" y1="181.99" x2="142.42" y2="147.54" gradientUnits="userSpaceOnUse"><stop offset="0" stop-color="#21a4c9"/><stop offset="1" stop-color="#4db6d4"/></linearGradient><linearGradient id="linear-gradient-4" x1="118.98" y1="181.99" x2="118.98" y2="147.54" xlink:href="#linear-gradient-3"/><linearGradient id="linear-gradient-5" x1="62.5" y1="182.19" x2="62.5" y2="159.15" gradientUnits="userSpaceOnUse"><stop offset="0" stop-color="#29cefc"/><stop offset="1" stop-color="#7fe2fd"/></linearGradient><linearGradient id="linear-gradient-6" x1="8271.28" y1="-13169.81" x2="8271.28" y2="-13192.85" gradientTransform="translate(-7217.23 -13583.13) rotate(120)" xlink:href="#linear-gradient-5"/><linearGradient id="linear-gradient-7" x1="-7396.28" y1="-13602.82" x2="-7396.28" y2="-13625.86" gradientTransform="translate(8154.73 -13041.87) rotate(-120)" xlink:href="#linear-gradient-5"/><linearGradient id="linear-gradient-8" x1="93.75" y1="182.32" x2="93.75" y2="124.25" gradientUnits="userSpaceOnUse"><stop offset="0" stop-color="#ff931e"/><stop offset="1" stop-color="#ffc311"/></linearGradient></defs><g id="Layer_2" data-name="Layer 2"><g id="IconsNew"><g id="sleet"><g id="normal"><g id="sleetShowersAndThunder"><g id="sleetShowersAndThunderNight"><rect class="cls-1" width="187.5" height="187.5"/><path class="cls-2" d="M161.22,85.76l-4.66-8.85a34.3,34.3,0,0,0,16.87-20.72,36.78,36.78,0,0,1-42.58-36.26,36,36,0,0,1,.47-5.89,33.87,33.87,0,0,0-24.14,26.89l-9.85-1.7a43.86,43.86,0,0,1,40.6-36.41,5,5,0,0,1,4.93,6.91,26.75,26.75,0,0,0,24.71,36.92,26.58,26.58,0,0,0,10.2-2,5,5,0,0,1,6.91,4.93A44.31,44.31,0,0,1,161.22,85.76Z"/><path class="cls-3" d="M137.28,68.79c-1.33,0-2.66.08-4,.21a39.71,39.71,0,0,0-78.85,0c-1.32-.13-2.64-.21-4-.21a39.73,39.73,0,0,0-28.1,67.81,5,5,0,0,0,7.08-7.06A29.75,29.75,0,0,1,57.92,79.72a29.86,29.86,0,0,1,22.26,27.86,5,5,0,0,0,5.15,4.84,5,5,0,0,0,4.84-5.15,39.94,39.94,0,0,0-25.9-36,29.72,29.72,0,0,1,59.33,2.54c0,.31,0,.6,0,.94v.15h0a5,5,0,0,0,5,5,4.33,4.33,0,0,0,.89-.09l.27-.06.31-.07a30.12,30.12,0,0,1,7.23-.87,29.73,29.73,0,0,1,21,50.75,5,5,0,1,0,7.08,7.06,39.73,39.73,0,0,0-28.1-67.81Z"/><path class="cls-4" d="M140.63,166.56a2.6,2.6,0,0,1-.56-.06,2.5,2.5,0,0,1-1.88-3l3.58-15.62a2.5,2.5,0,0,1,4.88,1.12l-3.59,15.62A2.49,2.49,0,0,1,140.63,166.56Z"/><path class="cls-5" d="M117.19,182.19a2.15,2.15,0,0,1-.56-.07,2.49,2.49,0,0,1-1.88-3l3.59-15.63a2.5,2.5,0,0,1,4.87,1.12l-3.59,15.63A2.5,2.5,0,0,1,117.19,182.19Z"/><path class="cls-6" d="M62.5,182.19a2.5,2.5,0,0,1-2.5-2.5v-18a2.5,2.5,0,0,1,5,0v18A2.5,2.5,0,0,1,62.5,182.19Z"/><path class="cls-7" d="M70.31,177.68a2.5,2.5,0,0,1-1.25-.34l-15.62-9a2.5,2.5,0,1,1,2.5-4.33l15.62,9a2.5,2.5,0,0,1-1.25,4.67Z"/><path class="cls-8" d="M54.69,177.68A2.5,2.5,0,0,1,53.44,173l15.62-9a2.5,2.5,0,1,1,2.5,4.33l-15.62,9A2.5,2.5,0,0,1,54.69,177.68Z"/><path class="cls-9" d="M89.84,182.19a2.64,2.64,0,0,1-.55-.06,2.5,2.5,0,0,1-2-2.44V160.31H82a2.5,2.5,0,0,1-2.26-3.57L95.4,123.92a2.5,2.5,0,0,1,4.76,1.08v19.38h5.31a2.47,2.47,0,0,1,2.11,1.16,2.52,2.52,0,0,1,.15,2.41L92.1,180.76A2.5,2.5,0,0,1,89.84,182.19ZM86,155.31h3.85a2.5,2.5,0,0,1,2.5,2.5v10.81l9.17-19.24H97.66a2.5,2.5,0,0,1-2.5-2.5V136.06Z"/></g></g></g></g></g></g></svg>