<svg xmlns="http://www.w3.org/2000/svg" xmlns:xlink="http://www.w3.org/1999/xlink" viewBox="0 0 187.5 187.5"><defs><style>.cls-1{fill:none;}.cls-2{fill:url(#linear-gradient);}.cls-3{fill:url(#linear-gradient-2);}.cls-4{fill:url(#linear-gradient-3);}.cls-5{fill:url(#linear-gradient-4);}.cls-6{fill:url(#linear-gradient-5);}.cls-7{fill:url(#linear-gradient-6);}.cls-8{fill:url(#linear-gradient-7);}</style><linearGradient id="linear-gradient" x1="93.75" y1="137.81" x2="93.75" y2="33.81" gradientUnits="userSpaceOnUse"><stop offset="0" stop-color="#333"/><stop offset="1" stop-color="#4d4d4d"/></linearGradient><linearGradient id="linear-gradient-2" x1="142.42" y1="181.96" x2="142.42" y2="150.16" gradientUnits="userSpaceOnUse"><stop offset="0" stop-color="#21a4c9"/><stop offset="1" stop-color="#4db6d4"/></linearGradient><linearGradient id="linear-gradient-3" x1="118.98" y1="181.96" x2="118.98" y2="150.16" xlink:href="#linear-gradient-2"/><linearGradient id="linear-gradient-4" x1="62.5" y1="182.19" x2="62.5" y2="159.15" gradientUnits="userSpaceOnUse"><stop offset="0" stop-color="#29cefc"/><stop offset="1" stop-color="#7fe2fd"/></linearGradient><linearGradient id="linear-gradient-5" x1="8213.26" y1="-12203.3" x2="8213.26" y2="-12226.34" gradientTransform="translate(-6409.21 -13049.64) rotate(120)" xlink:href="#linear-gradient-4"/><linearGradient id="linear-gradient-6" x1="-6588.26" y1="-13069.33" x2="-6588.26" y2="-13092.37" gradientTransform="translate(8096.71 -12075.36) rotate(-120)" xlink:href="#linear-gradient-4"/><linearGradient id="linear-gradient-7" x1="93.75" y1="184.27" x2="93.75" y2="125.06" gradientUnits="userSpaceOnUse"><stop offset="0" stop-color="#ff931e"/><stop offset="1" stop-color="#ffc311"/></linearGradient></defs><g id="Layer_2" data-name="Layer 2"><g id="IconsNew"><g id="sleet"><g id="normal"><g id="sleetAndThunder"><rect class="cls-1" width="187.5" height="187.5"/><path class="cls-2" d="M137.15,68.53c-1.33,0-2.66.09-4,.22a39.72,39.72,0,0,0-78.86,0c-1.31-.13-2.64-.22-4-.22a39.73,39.73,0,0,0-28.1,67.81,5,5,0,0,0,3.54,1.47,4.94,4.94,0,0,0,3.53-1.46,5,5,0,0,0,0-7.07,29.73,29.73,0,0,1,21-50.75,30.41,30.41,0,0,1,7.45.93,29.87,29.87,0,0,1,22.25,27.86,5,5,0,1,0,10-.31A40,40,0,0,0,64.14,71a29.72,29.72,0,0,1,59.33,2.53c0,.31,0,.6,0,.94v.15h0a5,5,0,0,0,5,5,5.28,5.28,0,0,0,.9-.09l.25-.06.32-.07a30.19,30.19,0,0,1,7.23-.88,29.73,29.73,0,0,1,21,50.75,5,5,0,0,0,0,7.07,4.94,4.94,0,0,0,3.53,1.46,5,5,0,0,0,3.54-1.47,39.73,39.73,0,0,0-28.1-67.81Z"/><path class="cls-3" d="M140.63,166.56a2.6,2.6,0,0,1-.56-.06,2.5,2.5,0,0,1-1.88-3l3.58-15.62a2.5,2.5,0,0,1,4.88,1.12l-3.59,15.62A2.49,2.49,0,0,1,140.63,166.56Z"/><path class="cls-4" d="M117.19,182.19a2.15,2.15,0,0,1-.56-.07,2.49,2.49,0,0,1-1.88-3l3.59-15.63a2.5,2.5,0,0,1,4.87,1.12l-3.59,15.63A2.5,2.5,0,0,1,117.19,182.19Z"/><path class="cls-5" d="M62.5,182.19a2.5,2.5,0,0,1-2.5-2.5v-18a2.5,2.5,0,0,1,5,0v18A2.5,2.5,0,0,1,62.5,182.19Z"/><path class="cls-6" d="M70.31,177.68a2.5,2.5,0,0,1-1.25-.34l-15.62-9a2.5,2.5,0,1,1,2.5-4.33l15.62,9a2.5,2.5,0,0,1-1.25,4.67Z"/><path class="cls-7" d="M54.69,177.68A2.5,2.5,0,0,1,53.44,173l15.62-9a2.5,2.5,0,1,1,2.5,4.33l-15.62,9A2.5,2.5,0,0,1,54.69,177.68Z"/><path class="cls-8" d="M89.84,184.55a2.64,2.64,0,0,1-.55-.06,2.5,2.5,0,0,1-2-2.44V162.68H82a2.49,2.49,0,0,1-2.11-1.17,2.52,2.52,0,0,1-.15-2.41L95.4,126.29a2.5,2.5,0,0,1,4.76,1.07v19.38h5.31a2.5,2.5,0,0,1,2.26,3.57L92.1,183.13A2.5,2.5,0,0,1,89.84,184.55ZM86,157.68h3.85a2.5,2.5,0,0,1,2.5,2.5V171l9.17-19.25H97.66a2.5,2.5,0,0,1-2.5-2.5V138.43Z"/></g></g></g></g></g></svg>