<svg xmlns="http://www.w3.org/2000/svg" xmlns:xlink="http://www.w3.org/1999/xlink" viewBox="0 0 187.5 187.5"><defs><style>.cls-1{fill:none;}.cls-2{fill:url(#linear-gradient);}.cls-3{fill:url(#linear-gradient-2);}.cls-4{fill:url(#linear-gradient-3);}.cls-5{fill:url(#linear-gradient-4);}.cls-6{fill:url(#linear-gradient-5);}.cls-7{fill:url(#linear-gradient-6);}.cls-8{fill:url(#linear-gradient-7);}.cls-9{fill:url(#linear-gradient-8);}.cls-10{fill:url(#linear-gradient-9);}.cls-11{fill:url(#linear-gradient-10);}.cls-12{fill:url(#linear-gradient-11);}.cls-13{fill:url(#linear-gradient-12);}</style><linearGradient id="linear-gradient" x1="140.88" y1="85.5" x2="140.88" y2="2.56" gradientUnits="userSpaceOnUse"><stop offset="0" stop-color="#333"/><stop offset="1" stop-color="#4d4d4d"/></linearGradient><linearGradient id="linear-gradient-2" x1="93.75" y1="137.81" x2="93.75" y2="33.81" xlink:href="#linear-gradient"/><linearGradient id="linear-gradient-3" x1="62.5" y1="166.56" x2="62.5" y2="143.52" gradientUnits="userSpaceOnUse"><stop offset="0" stop-color="#29cefc"/><stop offset="1" stop-color="#7fe2fd"/></linearGradient><linearGradient id="linear-gradient-4" x1="5659.67" y1="-8661.99" x2="5659.67" y2="-8685.04" gradientTransform="translate(-4619.15 -9083.13) rotate(120)" xlink:href="#linear-gradient-3"/><linearGradient id="linear-gradient-5" x1="-4784.67" y1="-9095.01" x2="-4784.67" y2="-9118.05" gradientTransform="translate(5556.65 -8541.87) rotate(-120)" xlink:href="#linear-gradient-3"/><linearGradient id="linear-gradient-6" x1="140.62" y1="166.56" x2="140.63" y2="143.52" xlink:href="#linear-gradient-3"/><linearGradient id="linear-gradient-7" x1="5620.61" y1="-8729.65" x2="5620.61" y2="-8752.69" gradientTransform="translate(-4619.15 -9083.13) rotate(120)" xlink:href="#linear-gradient-3"/><linearGradient id="linear-gradient-8" x1="-4823.73" y1="-9027.35" x2="-4823.73" y2="-9050.39" gradientTransform="translate(5556.65 -8541.87) rotate(-120)" xlink:href="#linear-gradient-3"/><linearGradient id="linear-gradient-9" x1="117.19" y1="182.19" x2="117.19" y2="159.15" xlink:href="#linear-gradient-3"/><linearGradient id="linear-gradient-10" x1="5645.86" y1="-8717.17" x2="5645.86" y2="-8740.21" gradientTransform="translate(-4619.15 -9083.13) rotate(120)" xlink:href="#linear-gradient-3"/><linearGradient id="linear-gradient-11" x1="-4825.54" y1="-9055.46" x2="-4825.54" y2="-9078.5" gradientTransform="translate(5556.65 -8541.87) rotate(-120)" xlink:href="#linear-gradient-3"/><linearGradient id="linear-gradient-12" x1="93.75" y1="182.44" x2="93.75" y2="126.28" gradientUnits="userSpaceOnUse"><stop offset="0" stop-color="#ff931e"/><stop offset="1" stop-color="#ffc311"/></linearGradient></defs><g id="Layer_2" data-name="Layer 2"><g id="IconsNew"><g id="snow"><g id="normal"><g id="snowShowersAndThunder"><g id="snowShowersAndThunderNight"><rect class="cls-1" width="187.5" height="187.5"/><path class="cls-2" d="M161.09,85.5l-4.66-8.85A34.27,34.27,0,0,0,173.3,55.93a36.72,36.72,0,0,1-42.58-36.25,37.15,37.15,0,0,1,.47-5.89,33.83,33.83,0,0,0-24.13,26.89L97.2,39a43.86,43.86,0,0,1,40.61-36.4,5,5,0,0,1,4.93,6.9,26.49,26.49,0,0,0-2,10.21A26.75,26.75,0,0,0,167.44,46.4a26.4,26.4,0,0,0,10.2-2,5,5,0,0,1,6.91,4.93A44.3,44.3,0,0,1,161.09,85.5Z"/><path class="cls-3" d="M137.15,68.53c-1.33,0-2.66.09-4,.22a39.72,39.72,0,0,0-78.86,0c-1.31-.13-2.64-.22-4-.22a39.73,39.73,0,0,0-28.1,67.81,5,5,0,0,0,3.54,1.47,4.94,4.94,0,0,0,3.53-1.46,5,5,0,0,0,0-7.07,29.73,29.73,0,0,1,21-50.75,30.41,30.41,0,0,1,7.45.93,29.87,29.87,0,0,1,22.25,27.86,5,5,0,1,0,10-.31A40,40,0,0,0,64.14,71a29.72,29.72,0,0,1,59.33,2.53c0,.28,0,.56,0,.84v.25h0a5,5,0,0,0,5,5,5.28,5.28,0,0,0,.9-.09l.25-.06.32-.07a30.19,30.19,0,0,1,7.23-.88,29.73,29.73,0,0,1,21,50.75,5,5,0,0,0,0,7.07,4.94,4.94,0,0,0,3.53,1.46,5,5,0,0,0,3.54-1.47,39.73,39.73,0,0,0-28.1-67.81Z"/><path class="cls-4" d="M62.5,166.56a2.5,2.5,0,0,1-2.5-2.5V146a2.5,2.5,0,0,1,5,0v18A2.5,2.5,0,0,1,62.5,166.56Z"/><path class="cls-5" d="M70.31,162.05a2.6,2.6,0,0,1-1.25-.33l-15.62-9a2.5,2.5,0,1,1,2.5-4.33l15.62,9a2.49,2.49,0,0,1,.92,3.41A2.52,2.52,0,0,1,70.31,162.05Z"/><path class="cls-6" d="M54.69,162.05a2.52,2.52,0,0,1-2.17-1.25,2.49,2.49,0,0,1,.92-3.41l15.62-9a2.5,2.5,0,1,1,2.5,4.33l-15.62,9A2.6,2.6,0,0,1,54.69,162.05Z"/><path class="cls-7" d="M140.62,166.56a2.5,2.5,0,0,1-2.5-2.5V146a2.5,2.5,0,1,1,5,0v18A2.49,2.49,0,0,1,140.62,166.56Z"/><path class="cls-8" d="M148.44,162.05a2.54,2.54,0,0,1-1.25-.33l-15.63-9a2.5,2.5,0,0,1,2.5-4.33l15.63,9a2.5,2.5,0,0,1-1.25,4.66Z"/><path class="cls-9" d="M132.81,162.05a2.5,2.5,0,0,1-1.25-4.66l15.63-9a2.5,2.5,0,0,1,2.5,4.33l-15.63,9A2.54,2.54,0,0,1,132.81,162.05Z"/><path class="cls-10" d="M117.19,182.19a2.5,2.5,0,0,1-2.5-2.5v-18a2.5,2.5,0,0,1,5,0v18A2.5,2.5,0,0,1,117.19,182.19Z"/><path class="cls-11" d="M125,177.68a2.45,2.45,0,0,1-1.25-.34l-15.63-9a2.5,2.5,0,0,1,2.5-4.33l15.63,9a2.5,2.5,0,0,1-1.25,4.67Z"/><path class="cls-12" d="M109.38,177.68a2.5,2.5,0,0,1-1.26-4.67l15.63-9a2.5,2.5,0,1,1,2.5,4.33l-15.63,9A2.44,2.44,0,0,1,109.38,177.68Z"/><path class="cls-13" d="M89.84,182.19a2.64,2.64,0,0,1-.55-.06,2.5,2.5,0,0,1-2-2.44V160.31H82a2.5,2.5,0,0,1-2.26-3.57L95.4,123.92a2.5,2.5,0,0,1,4.76,1.08v19.38h5.31a2.48,2.48,0,0,1,2.11,1.16,2.52,2.52,0,0,1,.15,2.41L92.1,180.76A2.5,2.5,0,0,1,89.84,182.19ZM86,155.31h3.85a2.5,2.5,0,0,1,2.5,2.5v10.81l9.17-19.24H97.66a2.5,2.5,0,0,1-2.5-2.5V136.06Z"/></g></g></g></g></g></g></svg>