<svg xmlns="http://www.w3.org/2000/svg" xmlns:xlink="http://www.w3.org/1999/xlink" viewBox="0 0 187.5 187.5"><defs><style>.cls-1{fill:none;}.cls-2{fill:url(#linear-gradient);}.cls-3{fill:url(#linear-gradient-2);}.cls-4{fill:url(#linear-gradient-3);}.cls-5{fill:url(#linear-gradient-4);}.cls-6{fill:url(#linear-gradient-5);}.cls-7{fill:url(#linear-gradient-6);}.cls-8{fill:url(#linear-gradient-7);}.cls-9{fill:url(#linear-gradient-8);}.cls-10{fill:url(#linear-gradient-9);}.cls-11{fill:url(#linear-gradient-10);}.cls-12{fill:url(#linear-gradient-11);}</style><linearGradient id="linear-gradient" x1="93.75" y1="137.81" x2="93.75" y2="33.81" gradientUnits="userSpaceOnUse"><stop offset="0" stop-color="#333"/><stop offset="1" stop-color="#4d4d4d"/></linearGradient><linearGradient id="linear-gradient-2" x1="62.5" y1="166.56" x2="62.5" y2="143.52" gradientUnits="userSpaceOnUse"><stop offset="0" stop-color="#29cefc"/><stop offset="1" stop-color="#7fe2fd"/></linearGradient><linearGradient id="linear-gradient-3" x1="5601.66" y1="-7695.49" x2="5601.66" y2="-7718.53" gradientTransform="translate(-3811.14 -8549.64) rotate(120)" xlink:href="#linear-gradient-2"/><linearGradient id="linear-gradient-4" x1="-3976.66" y1="-8561.51" x2="-3976.66" y2="-8584.55" gradientTransform="translate(5498.64 -7575.36) rotate(-120)" xlink:href="#linear-gradient-2"/><linearGradient id="linear-gradient-5" x1="140.63" y1="166.56" x2="140.63" y2="143.52" xlink:href="#linear-gradient-2"/><linearGradient id="linear-gradient-6" x1="5562.59" y1="-7763.15" x2="5562.59" y2="-7786.19" gradientTransform="translate(-3811.14 -8549.64) rotate(120)" xlink:href="#linear-gradient-2"/><linearGradient id="linear-gradient-7" x1="-4015.72" y1="-8493.85" x2="-4015.72" y2="-8516.9" gradientTransform="translate(5498.64 -7575.36) rotate(-120)" xlink:href="#linear-gradient-2"/><linearGradient id="linear-gradient-8" x1="117.19" y1="182.19" x2="117.19" y2="159.15" xlink:href="#linear-gradient-2"/><linearGradient id="linear-gradient-9" x1="5587.84" y1="-7750.66" x2="5587.84" y2="-7773.7" gradientTransform="translate(-3811.14 -8549.64) rotate(120)" xlink:href="#linear-gradient-2"/><linearGradient id="linear-gradient-10" x1="-4017.53" y1="-8521.96" x2="-4017.53" y2="-8545.01" gradientTransform="translate(5498.64 -7575.36) rotate(-120)" xlink:href="#linear-gradient-2"/><linearGradient id="linear-gradient-11" x1="93.75" y1="182.07" x2="93.75" y2="124.59" gradientUnits="userSpaceOnUse"><stop offset="0" stop-color="#ff931e"/><stop offset="1" stop-color="#ffc311"/></linearGradient></defs><g id="Layer_2" data-name="Layer 2"><g id="IconsNew"><g id="snow"><g id="normal"><g id="snowAndThunder"><rect class="cls-1" width="187.5" height="187.5"/><path class="cls-2" d="M137.15,68.53c-1.33,0-2.66.09-4,.22a39.72,39.72,0,0,0-78.86,0c-1.31-.13-2.64-.22-4-.22a39.73,39.73,0,0,0-28.1,67.81,5,5,0,0,0,3.54,1.47,4.94,4.94,0,0,0,3.53-1.46,5,5,0,0,0,0-7.07,29.73,29.73,0,0,1,21-50.75,30.41,30.41,0,0,1,7.45.93,29.87,29.87,0,0,1,22.25,27.86,5,5,0,1,0,10-.31A40,40,0,0,0,64.14,71a29.72,29.72,0,0,1,59.33,2.53c0,.31,0,.6,0,.94v.15h0a5,5,0,0,0,5,5,5.28,5.28,0,0,0,.9-.09l.25-.06.32-.07a30.19,30.19,0,0,1,7.23-.88,29.73,29.73,0,0,1,21,50.75,5,5,0,0,0,0,7.07,4.94,4.94,0,0,0,3.53,1.46,5,5,0,0,0,3.54-1.47,39.73,39.73,0,0,0-28.1-67.81Z"/><path class="cls-3" d="M62.5,166.56a2.5,2.5,0,0,1-2.5-2.5V146a2.5,2.5,0,0,1,5,0v18A2.5,2.5,0,0,1,62.5,166.56Z"/><path class="cls-4" d="M70.31,162.05a2.6,2.6,0,0,1-1.25-.33l-15.62-9a2.5,2.5,0,1,1,2.5-4.33l15.62,9a2.49,2.49,0,0,1,.92,3.41A2.52,2.52,0,0,1,70.31,162.05Z"/><path class="cls-5" d="M54.69,162.05a2.52,2.52,0,0,1-2.17-1.25,2.49,2.49,0,0,1,.92-3.41l15.62-9a2.5,2.5,0,1,1,2.5,4.33l-15.62,9A2.6,2.6,0,0,1,54.69,162.05Z"/><path class="cls-6" d="M140.63,166.56a2.49,2.49,0,0,1-2.5-2.5V146a2.5,2.5,0,1,1,5,0v18A2.5,2.5,0,0,1,140.63,166.56Z"/><path class="cls-7" d="M148.44,162.05a2.54,2.54,0,0,1-1.25-.33l-15.63-9a2.5,2.5,0,0,1,2.5-4.33l15.63,9a2.5,2.5,0,0,1-1.25,4.66Z"/><path class="cls-8" d="M132.81,162.05a2.5,2.5,0,0,1-1.25-4.66l15.63-9a2.5,2.5,0,0,1,2.5,4.33l-15.63,9A2.54,2.54,0,0,1,132.81,162.05Z"/><path class="cls-9" d="M117.19,182.19a2.5,2.5,0,0,1-2.5-2.5v-18a2.5,2.5,0,0,1,5,0v18A2.5,2.5,0,0,1,117.19,182.19Z"/><path class="cls-10" d="M125,177.68a2.45,2.45,0,0,1-1.25-.34l-15.62-9a2.5,2.5,0,1,1,2.5-4.33l15.62,9a2.5,2.5,0,0,1-1.25,4.67Z"/><path class="cls-11" d="M109.38,177.68a2.5,2.5,0,0,1-1.25-4.67l15.62-9a2.5,2.5,0,1,1,2.5,4.33l-15.62,9A2.5,2.5,0,0,1,109.38,177.68Z"/><path class="cls-12" d="M89.84,182.19a2.64,2.64,0,0,1-.55-.06,2.5,2.5,0,0,1-2-2.44V160.31H82a2.5,2.5,0,0,1-2.26-3.57L95.4,123.92a2.5,2.5,0,0,1,4.76,1.08v19.38h5.31a2.48,2.48,0,0,1,2.11,1.16,2.52,2.52,0,0,1,.15,2.41L92.1,180.76A2.5,2.5,0,0,1,89.84,182.19ZM86,155.31h3.85a2.5,2.5,0,0,1,2.5,2.5v10.81l9.17-19.24H97.66a2.5,2.5,0,0,1-2.5-2.5V136.06Z"/></g></g></g></g></g></svg>