<svg xmlns="http://www.w3.org/2000/svg" xmlns:xlink="http://www.w3.org/1999/xlink" viewBox="0 0 187.5 187.5"><defs><style>.cls-1{fill:none;}.cls-2{fill:url(#linear-gradient);}.cls-3{fill:url(#linear-gradient-2);}.cls-4{fill:url(#linear-gradient-3);}.cls-5{fill:url(#linear-gradient-4);}.cls-6{fill:url(#linear-gradient-5);}.cls-7{fill:url(#linear-gradient-6);}.cls-8{fill:url(#linear-gradient-7);}.cls-9{fill:url(#linear-gradient-8);}.cls-10{fill:url(#linear-gradient-9);}.cls-11{fill:url(#linear-gradient-10);}.cls-12{fill:url(#linear-gradient-11);}</style><linearGradient id="linear-gradient" x1="141.01" y1="85.76" x2="141.01" y2="2.81" gradientUnits="userSpaceOnUse"><stop offset="0" stop-color="#333"/><stop offset="1" stop-color="#4d4d4d"/></linearGradient><linearGradient id="linear-gradient-2" x1="93.88" y1="138.07" x2="93.88" y2="34.07" xlink:href="#linear-gradient"/><linearGradient id="linear-gradient-3" x1="62.5" y1="166.56" x2="62.5" y2="143.52" gradientUnits="userSpaceOnUse"><stop offset="0" stop-color="#29cefc"/><stop offset="1" stop-color="#7fe2fd"/></linearGradient><linearGradient id="linear-gradient-4" x1="5443.16" y1="-8286.99" x2="5443.16" y2="-8310.04" gradientTransform="translate(-4402.64 -8708.13) rotate(120)" xlink:href="#linear-gradient-3"/><linearGradient id="linear-gradient-5" x1="-4568.16" y1="-8720.01" x2="-4568.16" y2="-8743.05" gradientTransform="translate(5340.14 -8166.87) rotate(-120)" xlink:href="#linear-gradient-3"/><linearGradient id="linear-gradient-6" x1="125" y1="166.56" x2="125" y2="143.52" xlink:href="#linear-gradient-3"/><linearGradient id="linear-gradient-7" x1="5411.91" y1="-8341.12" x2="5411.91" y2="-8364.16" gradientTransform="translate(-4402.64 -8708.13) rotate(120)" xlink:href="#linear-gradient-3"/><linearGradient id="linear-gradient-8" x1="-4599.41" y1="-8665.88" x2="-4599.41" y2="-8688.92" gradientTransform="translate(5340.14 -8166.87) rotate(-120)" xlink:href="#linear-gradient-3"/><linearGradient id="linear-gradient-9" x1="93.75" y1="182.19" x2="93.75" y2="159.15" xlink:href="#linear-gradient-3"/><linearGradient id="linear-gradient-10" x1="5441.07" y1="-8321.87" x2="5441.07" y2="-8344.91" gradientTransform="translate(-4402.64 -8708.13) rotate(120)" xlink:href="#linear-gradient-3"/><linearGradient id="linear-gradient-11" x1="-4597.32" y1="-8700.76" x2="-4597.32" y2="-8723.8" gradientTransform="translate(5340.14 -8166.87) rotate(-120)" xlink:href="#linear-gradient-3"/></defs><g id="Layer_2" data-name="Layer 2"><g id="IconsNew"><g id="snow"><g id="normal"><g id="snowShowers"><g id="snowShowersNight"><rect class="cls-1" width="187.5" height="187.5"/><path class="cls-2" d="M161.22,85.76l-4.66-8.85a34.3,34.3,0,0,0,16.87-20.72,36.78,36.78,0,0,1-42.58-36.26,36,36,0,0,1,.47-5.89,33.87,33.87,0,0,0-24.14,26.89l-9.85-1.7a43.86,43.86,0,0,1,40.6-36.41,5,5,0,0,1,4.93,6.91,26.75,26.75,0,0,0,24.71,36.92,26.58,26.58,0,0,0,10.2-2,5,5,0,0,1,6.91,4.93A44.31,44.31,0,0,1,161.22,85.76Z"/><path class="cls-3" d="M137.28,68.79c-1.33,0-2.66.08-4,.21a39.71,39.71,0,0,0-78.85,0c-1.32-.13-2.64-.21-4-.21a39.73,39.73,0,0,0-28.1,67.81,5,5,0,0,0,7.08-7.06A29.75,29.75,0,0,1,57.92,79.72a29.86,29.86,0,0,1,22.26,27.86,5,5,0,0,0,10-.31,39.94,39.94,0,0,0-25.9-36,29.72,29.72,0,0,1,59.33,2.54c0,.31,0,.6,0,.94v.15h0a5,5,0,0,0,5,5,4.33,4.33,0,0,0,.89-.09l.27-.06.31-.07a30.12,30.12,0,0,1,7.23-.87,29.73,29.73,0,0,1,21,50.75,5,5,0,1,0,7.08,7.06,39.73,39.73,0,0,0-28.1-67.81Z"/><path class="cls-4" d="M62.5,166.56a2.5,2.5,0,0,1-2.5-2.5V146a2.5,2.5,0,0,1,5,0v18A2.5,2.5,0,0,1,62.5,166.56Z"/><path class="cls-5" d="M70.31,162.05a2.6,2.6,0,0,1-1.25-.33l-15.62-9a2.5,2.5,0,1,1,2.5-4.33l15.62,9a2.49,2.49,0,0,1,.92,3.41A2.52,2.52,0,0,1,70.31,162.05Z"/><path class="cls-6" d="M54.69,162.05a2.52,2.52,0,0,1-2.17-1.25,2.49,2.49,0,0,1,.92-3.41l15.62-9a2.5,2.5,0,1,1,2.5,4.33l-15.62,9A2.6,2.6,0,0,1,54.69,162.05Z"/><path class="cls-7" d="M125,166.56a2.5,2.5,0,0,1-2.5-2.5V146a2.5,2.5,0,1,1,5,0v18A2.5,2.5,0,0,1,125,166.56Z"/><path class="cls-8" d="M132.81,162.05a2.6,2.6,0,0,1-1.25-.33l-15.62-9a2.5,2.5,0,1,1,2.5-4.33l15.62,9a2.49,2.49,0,0,1,.92,3.41A2.52,2.52,0,0,1,132.81,162.05Z"/><path class="cls-9" d="M117.19,162.05A2.52,2.52,0,0,1,115,160.8a2.49,2.49,0,0,1,.92-3.41l15.62-9a2.5,2.5,0,1,1,2.5,4.33l-15.62,9A2.6,2.6,0,0,1,117.19,162.05Z"/><path class="cls-10" d="M93.75,182.19a2.5,2.5,0,0,1-2.5-2.5v-18a2.5,2.5,0,0,1,5,0v18A2.5,2.5,0,0,1,93.75,182.19Z"/><path class="cls-11" d="M101.56,177.68a2.5,2.5,0,0,1-1.25-.34l-15.62-9a2.5,2.5,0,1,1,2.5-4.33l15.62,9a2.5,2.5,0,0,1-1.25,4.67Z"/><path class="cls-12" d="M85.94,177.68A2.5,2.5,0,0,1,84.69,173l15.62-9a2.5,2.5,0,1,1,2.5,4.33l-15.62,9A2.5,2.5,0,0,1,85.94,177.68Z"/></g></g></g></g></g></g></svg>